<svg width="20" height="21" viewBox="0 0 20 21" fill="none" xmlns="http://www.w3.org/2000/svg">
<path d="M9.75594 6.08934C10.0814 5.7639 10.0814 5.23626 9.75594 4.91083C9.43051 4.58539 8.90287 4.58539 8.57743 4.91083L3.58121 9.90705C3.57867 9.90956 3.57614 9.91208 3.57363 9.91462L3.28281 10.2055C3.12009 10.3682 3.12009 10.632 3.28281 10.7947L3.57363 11.0855C3.57614 11.0881 3.57867 11.0906 3.58121 11.0931L8.57743 16.0893C8.90287 16.4148 9.43051 16.4148 9.75594 16.0893C10.0814 15.7639 10.0814 15.2363 9.75594 14.9108L6.17853 11.3334H15.8333C16.2936 11.3334 16.6667 10.9603 16.6667 10.5001C16.6667 10.0398 16.2936 9.66675 15.8333 9.66675H6.17853L9.75594 6.08934Z" fill="#6962F4"/>
</svg>
