<svg width="16" height="16" viewBox="0 0 16 16" fill="none" xmlns="http://www.w3.org/2000/svg">
<g clip-path="url(#clip0_181_223)">
<path d="M16 8C16 11.9931 13.0744 15.3028 9.25 15.9028V10.3125H11.1141L11.4688 8H9.25V6.49937C9.25 5.86656 9.56 5.25 10.5538 5.25H11.5625V3.28125C11.5625 3.28125 10.6469 3.125 9.77156 3.125C7.94438 3.125 6.75 4.2325 6.75 6.2375V8H4.71875V10.3125H6.75V15.9028C2.92563 15.3028 0 11.9931 0 8C0 3.58187 3.58187 0 8 0C12.4181 0 16 3.58187 16 8Z" fill="#1877F2"/>
<path d="M11.1141 10.3125L11.4688 8H9.25V6.49934C9.25 5.86669 9.55994 5.25 10.5537 5.25H11.5625V3.28125C11.5625 3.28125 10.647 3.125 9.77172 3.125C7.94434 3.125 6.75 4.2325 6.75 6.2375V8H4.71875V10.3125H6.75V15.9028C7.15731 15.9667 7.57475 16 8 16C8.42525 16 8.84269 15.9667 9.25 15.9028V10.3125H11.1141Z" fill="white"/>
</g>
<defs>
<clipPath id="clip0_181_223">
<rect width="16" height="16" fill="white"/>
</clipPath>
</defs>
</svg>
