<svg width="16" height="16" viewBox="0 0 16 16" fill="none" xmlns="http://www.w3.org/2000/svg">
<g clip-path="url(#clip0_181_229)">
<path d="M1.00005 1.08886C-0.257282 2.39486 5.14612e-05 3.78219 5.14612e-05 7.99686C5.14612e-05 11.4969 -0.610615 15.0055 2.58538 15.8315C3.58338 16.0882 12.4261 16.0882 13.4227 15.8302C14.7534 15.4869 15.8361 14.4075 15.9841 12.5255C16.0047 12.2629 16.0047 3.73553 15.9834 3.46753C15.8261 1.46286 14.5921 0.307527 12.9661 0.073527C12.5934 0.019527 12.5187 0.00352702 10.6067 0.000193691C3.82472 0.00352702 2.33805 -0.298473 1.00005 1.08886Z" fill="url(#paint0_linear_181_229)"/>
<path d="M7.99862 2.09262C5.57796 2.09262 3.27929 1.87728 2.40129 4.13062C2.03862 5.06128 2.09129 6.26995 2.09129 8.00062C2.09129 9.51928 2.04262 10.9466 2.40129 11.8699C3.27729 14.1246 5.59462 13.9086 7.99729 13.9086C10.3153 13.9086 12.7053 14.15 13.594 11.8699C13.9573 10.9299 13.904 9.73928 13.904 8.00062C13.904 5.69262 14.0313 4.20262 12.912 3.08395C11.7786 1.95062 10.246 2.09262 7.99596 2.09262H7.99862ZM7.46929 3.15728C12.5186 3.14928 13.1613 2.58795 12.8066 10.386C12.6806 13.1439 10.5806 12.8413 7.99929 12.8413C3.29262 12.8413 3.15729 12.7066 3.15729 7.99795C3.15729 3.23462 3.53062 3.15995 7.46929 3.15595V3.15728ZM11.152 4.13795C10.7606 4.13795 10.4433 4.45528 10.4433 4.84662C10.4433 5.23795 10.7606 5.55528 11.152 5.55528C11.5433 5.55528 11.8606 5.23795 11.8606 4.84662C11.8606 4.45528 11.5433 4.13795 11.152 4.13795ZM7.99862 4.96662C6.32329 4.96662 4.96529 6.32528 4.96529 8.00062C4.96529 9.67595 6.32329 11.0339 7.99862 11.0339C9.67396 11.0339 11.0313 9.67595 11.0313 8.00062C11.0313 6.32528 9.67396 4.96662 7.99862 4.96662ZM7.99862 6.03128C10.602 6.03128 10.6053 9.96995 7.99862 9.96995C5.39596 9.96995 5.39196 6.03128 7.99862 6.03128Z" fill="white"/>
</g>
<defs>
<linearGradient id="paint0_linear_181_229" x1="1.03073" y1="14.9783" x2="15.901" y2="2.10818" gradientUnits="userSpaceOnUse">
<stop stop-color="#FFDD55"/>
<stop offset="0.5" stop-color="#FF543E"/>
<stop offset="1" stop-color="#C837AB"/>
</linearGradient>
<clipPath id="clip0_181_229">
<rect width="16" height="16" fill="white"/>
</clipPath>
</defs>
</svg>
