<svg width="40" height="40" viewBox="0 0 40 40" fill="none" xmlns="http://www.w3.org/2000/svg">
<g filter="url(#filter0_d_140_13388)">
<rect x="36" y="34" width="32" height="32" rx="16" transform="rotate(-180 36 34)" fill="white"/>
<path d="M21.6421 24.7998L21.6422 24.7998L22.785 23.7353L22.8211 23.7007L22.8211 23.7007L16.8774 17.5042L22.8206 11.3067C22.8207 11.3066 22.8208 11.3066 22.8208 11.3065C22.8956 11.2306 22.9544 11.1407 22.9937 11.0422C23.0331 10.9435 23.0522 10.8381 23.0498 10.7321C23.0475 10.6261 23.0238 10.5217 22.9801 10.4248C22.9364 10.3279 22.8736 10.2406 22.7955 10.168C22.7173 10.0953 22.6253 10.0387 22.5248 10.0013C22.4243 9.96402 22.3173 9.94675 22.21 9.9505C22.1027 9.95426 21.9973 9.97896 21.8997 10.0232C21.8022 10.0674 21.7146 10.1302 21.6419 10.2081C21.6418 10.2082 21.6418 10.2083 21.6417 10.2084L15.172 16.9546C15.0295 17.103 14.95 17.2997 14.95 17.5042C14.95 17.7087 15.0295 17.9054 15.172 18.0538C15.172 18.0538 15.172 18.0538 15.172 18.0538L21.6421 24.7998Z" fill="black" stroke="black" stroke-width="0.1"/>
</g>
<defs>
<filter id="filter0_d_140_13388" x="0" y="0" width="40" height="40" filterUnits="userSpaceOnUse" color-interpolation-filters="sRGB">
<feFlood flood-opacity="0" result="BackgroundImageFix"/>
<feColorMatrix in="SourceAlpha" type="matrix" values="0 0 0 0 0 0 0 0 0 0 0 0 0 0 0 0 0 0 127 0" result="hardAlpha"/>
<feOffset dy="2"/>
<feGaussianBlur stdDeviation="2"/>
<feComposite in2="hardAlpha" operator="out"/>
<feColorMatrix type="matrix" values="0 0 0 0 0 0 0 0 0 0 0 0 0 0 0 0 0 0 0.25 0"/>
<feBlend mode="normal" in2="BackgroundImageFix" result="effect1_dropShadow_140_13388"/>
<feBlend mode="normal" in="SourceGraphic" in2="effect1_dropShadow_140_13388" result="shape"/>
</filter>
</defs>
</svg>
