<svg width="24" height="24" viewBox="0 0 24 24" fill="none" xmlns="http://www.w3.org/2000/svg">
<path d="M3 7C3 6.44772 3.44772 6 4 6H20C20.5523 6 21 6.44772 21 7C21 7.55228 20.5523 8 20 8H4C3.44772 8 3 7.55228 3 7Z" fill="#0A0B0D"/>
<path d="M3 17C3 16.4477 3.44772 16 4 16H16C16.5523 16 17 16.4477 17 17C17 17.5523 16.5523 18 16 18H4C3.44772 18 3 17.5523 3 17Z" fill="#0A0B0D"/>
<path d="M4 11C3.44772 11 3 11.4477 3 12C3 12.5523 3.44772 13 4 13H12C12.5523 13 13 12.5523 13 12C13 11.4477 12.5523 11 12 11H4Z" fill="#0A0B0D"/>
</svg>
