<svg width="24" height="24" viewBox="0 0 24 24" fill="none" xmlns="http://www.w3.org/2000/svg">
<path fill-rule="evenodd" clip-rule="evenodd" d="M5.70709 4.29289C5.31657 3.90237 4.6834 3.90237 4.29288 4.29289C3.90235 4.68342 3.90235 5.31658 4.29288 5.70711L5.53104 6.94527C3.6273 8.27501 2.50659 9.98052 1.94809 11.0314C1.62293 11.6432 1.62293 12.3568 1.94809 12.9686C2.96925 14.89 5.86999 19 12 19C13.8273 19 15.3677 18.6348 16.6569 18.0712L18.2929 19.7071C18.6834 20.0976 19.3166 20.0976 19.7071 19.7071C20.0976 19.3166 20.0976 18.6834 19.7071 18.2929L5.70709 4.29289ZM14.2142 15.6284L8.3716 9.78583C7.97726 10.4307 7.74998 11.1888 7.74998 12C7.74998 14.3472 9.65277 16.25 12 16.25C12.8112 16.25 13.5693 16.0227 14.2142 15.6284ZM16.22 12.5076C16.2006 12.6706 16.2503 12.836 16.3663 12.9521L17.2537 13.8394C17.5062 14.0919 17.9325 14.0044 18.0271 13.6601C18.1724 13.1315 18.25 12.5748 18.25 12C18.25 10.6935 17.8491 9.48065 17.1637 8.47771C18.8239 9.57775 19.7934 11.0434 20.2858 11.97C20.2913 11.9803 20.2936 11.9875 20.2945 11.9914L20.2954 11.9956L20.2957 12L20.2956 12.0023C20.2956 12.0023 20.2952 12.006 20.2945 12.0086C20.2936 12.0125 20.2913 12.0197 20.2858 12.03C19.9505 12.6608 19.3942 13.5415 18.5493 14.3865C18.3461 14.5898 18.3356 14.9213 18.5388 15.1246L19.2416 15.8274C19.4307 16.0164 19.7358 16.0241 19.9254 15.8357C20.9721 14.7961 21.6544 13.7165 22.0519 12.9686C22.377 12.3568 22.377 11.6432 22.0519 11.0314C21.0307 9.10996 18.13 5 12 5C11.1616 5 10.3837 5.07687 9.66264 5.21451C9.28537 5.28653 9.16079 5.74653 9.43238 6.01812L11.0479 7.63365C11.164 7.74972 11.3294 7.7994 11.4924 7.78C11.6588 7.76019 11.8282 7.75 12 7.75C14.3472 7.75 16.25 9.65279 16.25 12C16.25 12.1718 16.2398 12.3412 16.22 12.5076ZM6.83633 8.47769C5.17606 9.57774 4.2066 11.0434 3.71417 11.97C3.70867 11.9803 3.7064 11.9875 3.70542 11.9914C3.70442 11.9955 3.70422 12 3.70422 12C3.70422 12 3.70442 12.0045 3.70542 12.0086C3.7064 12.0125 3.70867 12.0197 3.71417 12.03C4.2066 12.9566 5.17606 14.4223 6.83633 15.5223C6.15086 14.5194 5.74998 13.3065 5.74998 12C5.74998 10.6935 6.15086 9.48064 6.83633 8.47769Z" fill="#0A0B0D"/>
</svg>
