<svg width="24" height="24" viewBox="0 0 24 24" fill="none" xmlns="http://www.w3.org/2000/svg">
<path fill-rule="evenodd" clip-rule="evenodd" d="M11.978 7.58582L10.5638 6.1716C9.0017 4.6095 6.46902 4.60947 4.90694 6.17155C3.34486 7.73363 3.34486 10.2663 4.90692 11.8284L11.9779 18.8995L19.0316 11.8458L19.0491 11.8285C20.6112 10.2664 20.6112 7.73371 19.0491 6.17161C17.487 4.60952 14.9543 4.60951 13.3922 6.17159L11.978 7.58582ZM3.49264 13.2426C1.14954 10.8995 1.14961 7.10045 3.49272 4.75734C5.83585 2.41421 9.63483 2.41422 11.978 4.75737C14.3211 2.41424 18.1201 2.41426 20.4633 4.75741C22.8064 7.10056 22.8065 10.8995 20.4633 13.2427L20.4372 13.2686L13.0386 20.6672C12.4528 21.253 11.5031 21.253 10.9173 20.6672L3.49264 13.2426Z" fill="#0A0B0D"/>
</svg>
