<svg width="24" height="24" viewBox="0 0 24 24" fill="none" xmlns="http://www.w3.org/2000/svg">
<path d="M9.52514 10.5251C9.91566 10.1346 10.5488 10.1346 10.9393 10.5251L12 11.5858L13.0607 10.5251C13.4512 10.1346 14.0844 10.1346 14.4749 10.5251C14.8654 10.9157 14.8654 11.5488 14.4749 11.9393L13.4142 13L14.4749 14.0607C14.8654 14.4512 14.8654 15.0843 14.4749 15.4749C14.0844 15.8654 13.4512 15.8654 13.0607 15.4749L12 14.4142L10.9393 15.4749C10.5488 15.8654 9.91566 15.8654 9.52514 15.4749C9.13461 15.0843 9.13461 14.4512 9.52514 14.0607L10.5858 13L9.52514 11.9393C9.13461 11.5488 9.13461 10.9157 9.52514 10.5251Z" fill="#0A0B0D"/>
<path fill-rule="evenodd" clip-rule="evenodd" d="M4 5C4 3.34315 5.34315 2 7 2H14.7574C15.553 2 16.3161 2.31607 16.8787 2.87868L19.1213 5.12132C19.6839 5.68393 20 6.44699 20 7.24264V19C20 20.6569 18.6569 22 17 22H7C5.34315 22 4 20.6569 4 19V5ZM14 4H7C6.44771 4 6 4.44772 6 5V19C6 19.5523 6.44772 20 7 20H17C17.5523 20 18 19.5523 18 19V8H15.1C14.4925 8 14 7.50751 14 6.9V4ZM17.1716 6L16 4.82843V6H17.1716Z" fill="#0A0B0D"/>
</svg>
