<svg width="24" height="24" viewBox="0 0 24 24" fill="none" xmlns="http://www.w3.org/2000/svg">
<path d="M10.5 17C9.94772 17 9.5 17.4477 9.5 18C9.5 18.5523 9.94772 19 10.5 19H13.5C14.0523 19 14.5 18.5523 14.5 18C14.5 17.4477 14.0523 17 13.5 17H10.5Z" fill="#0A0B0D"/>
<path fill-rule="evenodd" clip-rule="evenodd" d="M3.5 5C3.5 3.34315 4.84315 2 6.5 2H17.5C19.1569 2 20.5 3.34315 20.5 5V19C20.5 20.6569 19.1569 22 17.5 22H6.5C4.84315 22 3.5 20.6569 3.5 19V5ZM6.5 4H17.5C18.0523 4 18.5 4.44772 18.5 5V19C18.5 19.5523 18.0523 20 17.5 20H6.5C5.94772 20 5.5 19.5523 5.5 19V5C5.5 4.44772 5.94771 4 6.5 4Z" fill="#0A0B0D"/>
</svg>
