<svg width="24" height="24" viewBox="0 0 24 24" fill="none" xmlns="http://www.w3.org/2000/svg">
<path d="M15 12.5C14.4477 12.5 14 12.9477 14 13.5C14 14.0523 14.4477 14.5 15 14.5H17C17.5523 14.5 18 14.0523 18 13.5C18 12.9477 17.5523 12.5 17 12.5H15Z" fill="#0A0B0D"/>
<path fill-rule="evenodd" clip-rule="evenodd" d="M20 6.5C21.1046 6.5 22 7.39543 22 8.5V18C22 19.6569 20.6569 21 19 21H5C3.34315 21 2 19.6569 2 18V6C2 4.34315 3.34315 3 5 3H17C18.6569 3 20 4.34315 20 6V6.5ZM17 5H5C4.44772 5 4 5.44772 4 6V18C4 18.5523 4.44772 19 5 19H19C19.5523 19 20 18.5523 20 18V8.5H9C8.44772 8.5 8 8.05228 8 7.5C8 6.94772 8.44772 6.5 9 6.5H18V6C18 5.44772 17.5523 5 17 5Z" fill="#0A0B0D"/>
</svg>
