<svg width="24" height="24" viewBox="0 0 24 24" fill="none" xmlns="http://www.w3.org/2000/svg">
<path d="M12.4571 7.29289C12.8476 7.68342 12.8476 8.31658 12.4571 8.70711L10.1642 11H16.25C16.8023 11 17.25 11.4477 17.25 12C17.25 12.5523 16.8023 13 16.25 13H10.1642L12.4571 15.2929C12.8476 15.6834 12.8476 16.3166 12.4571 16.7071C12.0666 17.0976 11.4334 17.0976 11.0429 16.7071L6.68934 12.3536C6.49408 12.1583 6.49408 11.8417 6.68934 11.6464L11.0429 7.29289C11.4334 6.90237 12.0666 6.90237 12.4571 7.29289Z" fill="#0A0B0D"/>
<path fill-rule="evenodd" clip-rule="evenodd" d="M12 22C17.5228 22 22 17.5228 22 12C22 6.47715 17.5228 2 12 2C6.47715 2 2 6.47715 2 12C2 17.5228 6.47715 22 12 22ZM12 20C16.4183 20 20 16.4183 20 12C20 7.58172 16.4183 4 12 4C7.58172 4 4 7.58172 4 12C4 16.4183 7.58172 20 12 20Z" fill="#0A0B0D"/>
</svg>
