<svg width="24" height="24" viewBox="0 0 24 24" fill="none" xmlns="http://www.w3.org/2000/svg">
<path fill-rule="evenodd" clip-rule="evenodd" d="M5.81142 7.22563L3.79289 5.20711C3.40237 4.81658 3.40237 4.18342 3.79289 3.79289C4.18342 3.40237 4.81658 3.40237 5.20711 3.79289L20.7071 19.2929C21.0976 19.6834 21.0976 20.3166 20.7071 20.7071C20.3166 21.0976 19.6834 21.0976 19.2929 20.7071L17.5858 19H15.8739C15.4299 20.7252 13.8638 22 12 22C10.1361 22 8.57003 20.7252 8.12598 19H5.58474C4.433 19 3.71095 17.7558 4.28237 16.7558L4.99997 15.5V10.5C4.99997 9.31707 5.29339 8.20268 5.81142 7.22563ZM15.5858 17H6.44633L6.99997 16.0311V10.5C6.99997 9.87858 7.11333 9.28363 7.32051 8.73472L15.5858 17ZM12 20C11.2597 20 10.6133 19.5978 10.2675 19H13.7324C13.3866 19.5978 12.7402 20 12 20Z" fill="#0A0B0D"/>
<path d="M17 13.3722C17 13.5086 17.0557 13.6391 17.1542 13.7334L18.1542 14.6906C18.4722 14.9949 19 14.7695 19 14.3293V10.5C19 6.97353 16.3923 4.05612 13 3.57089V3C13 2.44772 12.5523 2 12 2C11.4477 2 11 2.44772 11 3V3.57089C10.1469 3.69291 9.34341 3.96875 8.61855 4.36941C8.34307 4.52168 8.30728 4.8931 8.52985 5.11567L9.28479 5.87061C9.44332 6.02914 9.68694 6.06033 9.89015 5.96562C10.5312 5.66684 11.2461 5.5 12 5.5C14.7614 5.5 17 7.73858 17 10.5V13.3722Z" fill="#0A0B0D"/>
</svg>
