<svg width="24" height="24" viewBox="0 0 24 24" fill="none" xmlns="http://www.w3.org/2000/svg">
<path fill-rule="evenodd" clip-rule="evenodd" d="M16 11C16 8.79086 14.2091 7 12 7C9.79086 7 8 8.79086 8 11C8 13.2091 9.79086 15 12 15C14.2091 15 16 13.2091 16 11ZM14 11C14 9.89543 13.1046 9 12 9C10.8954 9 10 9.89543 10 11C10 12.1046 10.8954 13 12 13C13.1046 13 14 12.1046 14 11Z" fill="#0A0B0D"/>
<path fill-rule="evenodd" clip-rule="evenodd" d="M3 3C2.44772 3 2 3.44772 2 4C2 4.55228 2.44772 5 3 5H4V18C4 19.6569 5.34315 21 7 21H17C18.6569 21 20 19.6569 20 18V5H21C21.5523 5 22 4.55228 22 4C22 3.44772 21.5523 3 21 3H3ZM18 5H6V15.1C7.95913 15.4977 9.5023 17.0409 9.89998 19H14.1C14.4977 17.0409 16.0409 15.4977 18 15.1V5ZM6 17.1707V18C6 18.5523 6.44772 19 7 19H7.82929C7.52801 18.1476 6.85241 17.472 6 17.1707ZM16.1707 19H17C17.5523 19 18 18.5523 18 18V17.1707C17.1476 17.472 16.472 18.1476 16.1707 19Z" fill="#0A0B0D"/>
</svg>
