<svg width="24" height="24" viewBox="0 0 24 24" fill="none" xmlns="http://www.w3.org/2000/svg">
<path fill-rule="evenodd" clip-rule="evenodd" d="M16 12.5C16 14.7091 14.2091 16.5 12 16.5C9.79086 16.5 8 14.7091 8 12.5C8 10.2909 9.79086 8.5 12 8.5C14.2091 8.5 16 10.2909 16 12.5ZM14 12.5C14 13.6046 13.1046 14.5 12 14.5C10.8954 14.5 10 13.6046 10 12.5C10 11.3954 10.8954 10.5 12 10.5C13.1046 10.5 14 11.3954 14 12.5Z" fill="#0A0B0D"/>
<path fill-rule="evenodd" clip-rule="evenodd" d="M5 5.5H7.5L8.1 4.7C8.66656 3.94458 9.55573 3.5 10.5 3.5H13.5C14.4443 3.5 15.3334 3.94458 15.9 4.7L16.5 5.5H19C20.6569 5.5 22 6.84315 22 8.5V17.5C22 19.1569 20.6569 20.5 19 20.5H5C3.34315 20.5 2 19.1569 2 17.5V8.5C2 6.84315 3.34315 5.5 5 5.5ZM14.3 5.9L15.5 7.5H19C19.5523 7.5 20 7.94772 20 8.5V17.5C20 18.0523 19.5523 18.5 19 18.5H5C4.44772 18.5 4 18.0523 4 17.5V8.5C4 7.94772 4.44772 7.5 5 7.5H8.5L9.7 5.9C9.88885 5.64819 10.1852 5.5 10.5 5.5H13.5C13.8148 5.5 14.1111 5.64819 14.3 5.9Z" fill="#0A0B0D"/>
</svg>
