<svg width="24" height="24" viewBox="0 0 24 24" fill="none" xmlns="http://www.w3.org/2000/svg">
<path d="M9.37142 9.40408C9.95721 8.8183 9.95721 7.86855 9.37142 7.28276C8.78564 6.69698 7.83589 6.69698 7.2501 7.28276C6.66432 7.86855 6.66432 8.8183 7.2501 9.40408C7.83589 9.98987 8.78564 9.98987 9.37142 9.40408Z" fill="#0A0B0D"/>
<path fill-rule="evenodd" clip-rule="evenodd" d="M2.72933 4.79C2.71333 3.6633 3.63082 2.74581 4.75752 2.7618L8.15504 2.81004C9.71669 2.83222 11.2081 3.46244 12.3125 4.5668L16.0258 8.28008C17.79 7.91666 19.6996 8.41854 21.0708 9.78971C21.6388 10.3577 21.6388 11.2787 21.0708 11.8468L11.8141 21.1034C11.2461 21.6715 10.3251 21.6715 9.7571 21.1034C8.38587 19.7322 7.88401 17.8224 8.24752 16.0582L4.53433 12.345C3.42997 11.2406 2.79975 9.74916 2.77757 8.18752L2.72933 4.79ZM8.12665 4.80984L4.72913 4.7616L4.77737 8.15912C4.79215 9.20022 5.2123 10.1945 5.94854 10.9308L10.5032 15.4854L10.3108 16.07C9.95928 17.138 10.1286 18.3369 10.8151 19.274L19.2414 10.8477C18.3043 10.1612 17.1055 9.9919 16.0376 10.3434L15.453 10.5357L10.8983 5.98101C10.162 5.24477 9.16774 4.82462 8.12665 4.80984Z" fill="#0A0B0D"/>
<path d="M19.1797 20.0497C18.3919 20.0556 17.1684 19.976 16.2017 19.5141C15.7034 19.276 15.6984 18.6334 16.0889 18.2429L18.2102 16.1216C18.6008 15.7311 19.2433 15.7361 19.4815 16.2344C19.9433 17.201 20.0229 18.4245 20.017 19.2124C20.0135 19.6801 19.6474 20.0461 19.1797 20.0497Z" fill="#0A0B0D"/>
</svg>
