<svg width="24" height="24" viewBox="0 0 24 24" fill="none" xmlns="http://www.w3.org/2000/svg">
<path d="M15.2929 9.79286C15.6834 9.40234 16.3166 9.40234 16.7071 9.79286C17.0976 10.1834 17.0976 10.8166 16.7071 11.2071L12.3536 15.5606C12.1583 15.7559 11.8417 15.7559 11.6464 15.5606L7.29289 11.2071C6.90237 10.8166 6.90237 10.1834 7.29289 9.79286C7.68342 9.40234 8.31658 9.40234 8.70711 9.79286L12 13.0858L15.2929 9.79286Z" fill="#0A0B0D"/>
<path fill-rule="evenodd" clip-rule="evenodd" d="M22 12C22 17.5228 17.5228 22 12 22C6.47715 22 2 17.5228 2 12C2 6.47715 6.47715 2 12 2C17.5228 2 22 6.47715 22 12ZM20 12C20 16.4183 16.4183 20 12 20C7.58172 20 4 16.4183 4 12C4 7.58172 7.58172 4 12 4C16.4183 4 20 7.58172 20 12Z" fill="#0A0B0D"/>
</svg>
