<svg width="24" height="24" viewBox="0 0 24 24" fill="none" xmlns="http://www.w3.org/2000/svg">
<path fill-rule="evenodd" clip-rule="evenodd" d="M11.1716 8L9.46447 6.29289C9.27693 6.10536 9.02258 6 8.75736 6H5C4.44772 6 4 6.44772 4 7V17.5C4 18.0523 4.44772 18.5 5 18.5H19C19.5523 18.5 20 18.0523 20 17.5V9C20 8.44772 19.5523 8 19 8H11.1716ZM12 6L10.8787 4.87868C10.3161 4.31607 9.55301 4 8.75736 4H5C3.34315 4 2 5.34315 2 7V17.5C2 19.1569 3.34315 20.5 5 20.5H19C20.6569 20.5 22 19.1569 22 17.5V9C22 7.34315 20.6569 6 19 6H12Z" fill="#0A0B0D"/>
</svg>
