<svg width="24" height="24" viewBox="0 0 24 24" fill="none" xmlns="http://www.w3.org/2000/svg">
<path d="M8.00003 18C8.00003 20.2091 9.79089 22 12 22H17C19.2092 22 21 20.2091 21 18V6C21 3.79086 19.2092 2 17 2H12C9.79089 2 8.00003 3.79086 8.00003 6V8C8.00003 8.55229 8.44774 9 9.00003 9C9.55231 9 10 8.55229 10 8V6C10 4.89543 10.8955 4 12 4H17C18.1046 4 19 4.89543 19 6V18C19 19.1046 18.1046 20 17 20H12C10.8955 20 10 19.1046 10 18V16C10 15.4477 9.55231 15 9.00003 15C8.44774 15 8.00003 15.4477 8.00003 16V18Z" fill="#0A0B0D"/>
<path d="M12.9571 15.7071C12.5666 16.0976 11.9334 16.0976 11.5429 15.7071C11.1524 15.3166 11.1524 14.6834 11.5429 14.2929L12.8358 13H3.25C2.69771 13 2.25 12.5523 2.25 12C2.25 11.4477 2.69771 11 3.25 11H12.8358L11.5429 9.70711C11.1524 9.31658 11.1524 8.68342 11.5429 8.29289C11.9334 7.90237 12.5666 7.90237 12.9571 8.29289L16.3107 11.6464C16.5059 11.8417 16.5059 12.1583 16.3107 12.3536L12.9571 15.7071Z" fill="#0A0B0D"/>
</svg>
