<svg width="24" height="24" viewBox="0 0 24 24" fill="none" xmlns="http://www.w3.org/2000/svg">
<path d="M20.5 4C20.5 3.44772 20.0523 3 19.5 3C18.9477 3 18.5 3.44772 18.5 4V20C18.5 20.5523 18.9477 21 19.5 21C20.0523 21 20.5 20.5523 20.5 20V4Z" fill="#0A0B0D"/>
<path d="M14.5 7C15.0523 7 15.5 7.44772 15.5 8V20C15.5 20.5523 15.0523 21 14.5 21C13.9477 21 13.5 20.5523 13.5 20V8C13.5 7.44772 13.9477 7 14.5 7Z" fill="#0A0B0D"/>
<path d="M10.5 11C10.5 10.4477 10.0523 10 9.5 10C8.94772 10 8.5 10.4477 8.5 11V20C8.5 20.5523 8.94772 21 9.5 21C10.0523 21 10.5 20.5523 10.5 20V11Z" fill="#0A0B0D"/>
<path d="M5.5 15C5.5 14.4477 5.05228 14 4.5 14C3.94772 14 3.5 14.4477 3.5 15V20C3.5 20.5523 3.94772 21 4.5 21C5.05228 21 5.5 20.5523 5.5 20V15Z" fill="#0A0B0D"/>
</svg>
