<svg width="24" height="24" viewBox="0 0 24 24" fill="none" xmlns="http://www.w3.org/2000/svg">
<path d="M13 16.3681C13.3069 16.0934 13.5 15.6942 13.5 15.25C13.5 14.4216 12.8284 13.75 12 13.75C11.1716 13.75 10.5 14.4216 10.5 15.25C10.5 15.6942 10.6931 16.0934 11 16.3681V17.25C11 17.8023 11.4477 18.25 12 18.25C12.5523 18.25 13 17.8023 13 17.25V16.3681Z" fill="#0A0B0D"/>
<path fill-rule="evenodd" clip-rule="evenodd" d="M6 10V8C6 4.68629 8.68629 2 12 2C15.3137 2 18 4.68629 18 8V10C19.6569 10 21 11.3431 21 13V19C21 20.6569 19.6569 22 18 22H6C4.34315 22 3 20.6569 3 19V13C3 11.3431 4.34315 10 6 10ZM16 8V10H8V8C8 5.79086 9.79086 4 12 4C14.2091 4 16 5.79086 16 8ZM6 12C5.44772 12 5 12.4477 5 13V19C5 19.5523 5.44772 20 6 20H18C18.5523 20 19 19.5523 19 19V13C19 12.4477 18.5523 12 18 12H6Z" fill="#0A0B0D"/>
</svg>
