<svg width="24" height="24" viewBox="0 0 24 24" fill="none" xmlns="http://www.w3.org/2000/svg">
<path d="M7.39124 8.09838C7.00072 8.48891 7.00072 9.12207 7.39124 9.5126C7.78176 9.90312 8.41493 9.90312 8.80545 9.5126L9.51256 8.80549C9.90308 8.41497 9.90308 7.7818 9.51256 7.39128C9.12204 7.00075 8.48887 7.00075 8.09835 7.39128L7.39124 8.09838Z" fill="#0A0B0D"/>
<path fill-rule="evenodd" clip-rule="evenodd" d="M4.07363 13.9731C3.48376 13.3833 3.16613 12.5744 3.197 11.7408L3.46777 4.43007C3.48715 3.90685 3.90685 3.48715 4.43007 3.46777L11.7408 3.197C12.5744 3.16613 13.3833 3.48376 13.9731 4.07363L20.8263 10.9268C21.9978 12.0983 21.9978 13.9978 20.8263 15.1694L15.1694 20.8263C13.9978 21.9978 12.0983 21.9978 10.9268 20.8263L4.07363 13.9731ZM12.5589 5.48784L19.412 12.341C19.8026 12.7315 19.8026 13.3647 19.412 13.7552L13.7552 19.412C13.3647 19.8026 12.7315 19.8026 12.341 19.412L5.48784 12.5589C5.29122 12.3623 5.18534 12.0927 5.19563 11.8148L5.43203 5.43203L11.8148 5.19563C12.0927 5.18534 12.3623 5.29122 12.5589 5.48784Z" fill="#0A0B0D"/>
</svg>
