<svg width="24" height="24" viewBox="0 0 24 24" fill="none" xmlns="http://www.w3.org/2000/svg">
<path fill-rule="evenodd" clip-rule="evenodd" d="M5 5H13C13.5523 5 14 5.44772 14 6V8V15H7.5H5C4.44772 15 4 14.5523 4 14V6C4 5.44772 4.44772 5 5 5ZM14 17H10.3293C10.4398 17.3128 10.5 17.6494 10.5 18C10.5 19.6569 9.15685 21 7.5 21C5.84315 21 4.5 19.6569 4.5 18C4.5 17.6429 4.56239 17.3004 4.67685 16.9828C3.17197 16.8216 2 15.5477 2 14V6C2 4.34315 3.34315 3 5 3H13C14.6569 3 16 4.34315 16 6V8H17.6459C18.7822 8 19.821 8.64201 20.3292 9.65836L21.7889 12.5777C21.9277 12.8554 22 13.1616 22 13.4721V15C22 15.8316 21.4924 16.5447 20.7702 16.8463C20.9182 17.2015 21 17.5912 21 18C21 19.6569 19.6569 21 18 21C16.3431 21 15 19.6569 15 18C15 17.6494 15.0602 17.3128 15.1707 17H14ZM18 15H20V13.4721L18.5403 10.5528C18.3709 10.214 18.0247 10 17.6459 10H16V15H18ZM18 17C17.4477 17 17 17.4477 17 18C17 18.5523 17.4477 19 18 19C18.5523 19 19 18.5523 19 18C19 17.4477 18.5523 17 18 17ZM6.5 18C6.5 17.4477 6.94772 17 7.5 17C8.05228 17 8.5 17.4477 8.5 18C8.5 18.5523 8.05228 19 7.5 19C6.94772 19 6.5 18.5523 6.5 18Z" fill="#0A0B0D"/>
</svg>
