<svg width="24" height="24" viewBox="0 0 24 24" fill="none" xmlns="http://www.w3.org/2000/svg">
<path fill-rule="evenodd" clip-rule="evenodd" d="M12 2C11.4477 2 11 2.44772 11 3V12C11 12.5523 11.4477 13 12 13H21C21.5523 13 22 12.5523 22 12C22 6.47715 17.5228 2 12 2ZM13 11V4.06189C16.6187 4.51314 19.4869 7.38128 19.9381 11H13Z" fill="#0A0B0D"/>
<path d="M9.36389 4.44419C9.88535 4.26228 10.1606 3.69208 9.9787 3.17062C9.79679 2.64915 9.22659 2.37389 8.70512 2.5558C4.80243 3.91725 2 7.63006 2 12C2 17.5228 6.47715 22 12 22C16.3556 22 20.0584 19.2159 21.4307 15.3332C21.6148 14.8125 21.3418 14.2412 20.8211 14.0572C20.3004 13.8731 19.7291 14.146 19.545 14.6668C18.4463 17.7753 15.4817 20 12 20C7.58172 20 4 16.4183 4 12C4 8.50685 6.2394 5.53417 9.36389 4.44419Z" fill="#0A0B0D"/>
</svg>
