<svg width="24" height="24" viewBox="0 0 24 24" fill="none" xmlns="http://www.w3.org/2000/svg">
<path d="M5.70711 10.7071C5.31658 11.0976 4.68342 11.0976 4.29289 10.7071C3.90237 10.3166 3.90237 9.68343 4.29289 9.29291L9.28836 4.29744C9.29137 4.29439 9.2944 4.29136 9.29745 4.28835L9.64645 3.93935C9.84171 3.74409 10.1583 3.74409 10.3536 3.93935L10.7025 4.28835C10.7056 4.29136 10.7086 4.29439 10.7116 4.29744L15.7071 9.29291C16.0976 9.68343 16.0976 10.3166 15.7071 10.7071C15.3166 11.0976 14.6834 11.0976 14.2929 10.7071L11 7.41423V16C11 17.1046 11.8954 18 13 18H19C19.5523 18 20 18.4477 20 19C20 19.5523 19.5523 20 19 20H13C10.7909 20 9 18.2091 9 16V7.41423L5.70711 10.7071Z" fill="#0A0B0D"/>
</svg>
