<svg width="24" height="24" viewBox="0 0 24 24" fill="none" xmlns="http://www.w3.org/2000/svg">
<path d="M7.29289 11.5429C7.68342 11.1523 8.31658 11.1523 8.70711 11.5429L11 13.8358V7.74997C11 7.19769 11.4477 6.74997 12 6.74997C12.5523 6.74997 13 7.19769 13 7.74997V13.8358L15.2929 11.5429C15.6834 11.1523 16.3166 11.1523 16.7071 11.5429C17.0976 11.9334 17.0976 12.5666 16.7071 12.9571L12.3536 17.3106C12.1583 17.5059 11.8417 17.5059 11.6464 17.3106L7.29289 12.9571C6.90237 12.5666 6.90237 11.9334 7.29289 11.5429Z" fill="#0A0B0D"/>
<path fill-rule="evenodd" clip-rule="evenodd" d="M12 22C17.5228 22 22 17.5228 22 12C22 6.47715 17.5228 2 12 2C6.47715 2 2 6.47715 2 12C2 17.5228 6.47715 22 12 22ZM12 20C16.4183 20 20 16.4183 20 12C20 7.58172 16.4183 4 12 4C7.58172 4 4 7.58172 4 12C4 16.4183 7.58172 20 12 20Z" fill="#0A0B0D"/>
</svg>
