<svg width="24" height="24" viewBox="0 0 24 24" fill="none" xmlns="http://www.w3.org/2000/svg">
<path d="M13.2929 5.70711C12.9024 5.31658 12.9024 4.68342 13.2929 4.29289C13.6834 3.90237 14.3166 3.90237 14.7071 4.29289L20.0607 9.64645C20.2559 9.84171 20.2559 10.1583 20.0607 10.3536L14.7071 15.7071C14.3166 16.0976 13.6834 16.0976 13.2929 15.7071C12.9024 15.3166 12.9024 14.6834 13.2929 14.2929L16.5858 11H8C6.89543 11 6 11.8954 6 13V19C6 19.5523 5.55229 20 5 20C4.44771 20 4 19.5523 4 19V13C4 10.7909 5.79086 9 8 9H16.5858L13.2929 5.70711Z" fill="#0A0B0D"/>
</svg>
