<svg width="24" height="24" viewBox="0 0 24 24" fill="none" xmlns="http://www.w3.org/2000/svg">
<path d="M6 8C6 7.44772 6.44772 7 7 7H17C17.5523 7 18 7.44772 18 8C18 8.55228 17.5523 9 17 9H7C6.44772 9 6 8.55228 6 8Z" fill="#0A0B0D"/>
<path d="M6 12C6 11.4477 6.44772 11 7 11H12C12.5523 11 13 11.4477 13 12C13 12.5523 12.5523 13 12 13H7C6.44772 13 6 12.5523 6 12Z" fill="#0A0B0D"/>
<path fill-rule="evenodd" clip-rule="evenodd" d="M2 14.5C2 16.1569 3.34315 17.5 5 17.5H8V20.1958C8 20.9812 8.86395 21.46 9.53 21.0438L15.2 17.5H19C20.6569 17.5 22 16.1569 22 14.5V5.5C22 3.84315 20.6569 2.5 19 2.5H5C3.34315 2.5 2 3.84315 2 5.5V14.5ZM10 18.3915V15.5H5C4.44772 15.5 4 15.0523 4 14.5V5.5C4 4.94772 4.44772 4.5 5 4.5H19C19.5523 4.5 20 4.94772 20 5.5V14.5C20 15.0523 19.5523 15.5 19 15.5H14.6264L10 18.3915Z" fill="#0A0B0D"/>
</svg>
