<svg width="24" height="24" viewBox="0 0 24 24" fill="none" xmlns="http://www.w3.org/2000/svg">
<path fill-rule="evenodd" clip-rule="evenodd" d="M6 3C4.34315 3 3 4.34315 3 6V18C3 19.6569 4.34315 21 6 21H18C19.6569 21 21 19.6569 21 18V8.96486C21 8.16921 20.6839 7.40615 20.1213 6.84354L17.1565 3.87868C16.5938 3.31607 15.8308 3 15.0351 3H6ZM15.0351 5H15V7C15 8.10457 14.1046 9 13 9H9C7.89543 9 7 8.10457 7 7V5H6C5.44772 5 5 5.44772 5 6V18C5 18.5523 5.44772 19 6 19H7V13C7 11.8954 7.89543 11 9 11H15C16.1046 11 17 11.8954 17 13V19H18C18.5523 19 19 18.5523 19 18V8.96486C19 8.69965 18.8946 8.44529 18.7071 8.25776L15.7422 5.29289C15.5547 5.10536 15.3004 5 15.0351 5ZM15 19V13H9V19H15ZM9 5H13V7H9V5Z" fill="#0A0B0D"/>
</svg>
