<svg width="24" height="24" viewBox="0 0 24 24" fill="none" xmlns="http://www.w3.org/2000/svg">
<path fill-rule="evenodd" clip-rule="evenodd" d="M14.3599 4.23174C14.7842 3.87818 15.4147 3.9355 15.7683 4.35978L18.2683 7.35978C18.5773 7.73063 18.5773 8.2693 18.2683 8.64015L15.7683 11.6401C15.4147 12.0644 14.7842 12.1217 14.3599 11.7682C13.9356 11.4146 13.8783 10.7841 14.2318 10.3598L15.365 8.99996H6.00006C5.44778 8.99996 5.00006 8.55225 5.00006 7.99996C5.00006 7.44768 5.44778 6.99996 6.00006 6.99996H15.365L14.2318 5.64015C13.8783 5.21587 13.9356 4.58531 14.3599 4.23174ZM9.14025 12.2317C9.56452 12.5853 9.62185 13.2159 9.26828 13.6401L8.1351 15H17.5001C18.0523 15 18.5001 15.4477 18.5001 16C18.5001 16.5522 18.0523 17 17.5001 17H8.1351L9.26828 18.3598C9.62185 18.7841 9.56452 19.4146 9.14025 19.7682C8.71597 20.1217 8.0854 20.0644 7.73184 19.6401L5.23184 16.6401C4.9228 16.2693 4.9228 15.7306 5.23184 15.3598L7.73184 12.3598C8.0854 11.9355 8.71597 11.8782 9.14025 12.2317Z" fill="#0A0B0D"/>
</svg>
