<svg width="24" height="24" viewBox="0 0 24 24" fill="none" xmlns="http://www.w3.org/2000/svg">
<path fill-rule="evenodd" clip-rule="evenodd" d="M3.70711 2.29289C3.31658 1.90237 2.68342 1.90237 2.29289 2.29289C1.90237 2.68342 1.90237 3.31658 2.29289 3.70711L3.82474 5.23895C2.752 5.69615 2 6.76026 2 8V16C2 17.6569 3.34315 19 5 19H14C14.9778 19 15.8463 18.5322 16.394 17.8082L20.2929 21.7071C20.6834 22.0976 21.3166 22.0976 21.7071 21.7071C22.0976 21.3166 22.0976 20.6834 21.7071 20.2929L3.70711 2.29289ZM14.9367 16.3509L5.58579 7H5C4.44772 7 4 7.44772 4 8V16C4 16.5523 4.44772 17 5 17H14C14.4288 17 14.7946 16.7301 14.9367 16.3509Z" fill="#0A0B0D"/>
<path fill-rule="evenodd" clip-rule="evenodd" d="M15 11.5858L20.7746 17.3603C20.9107 17.4965 21.117 17.5484 21.2819 17.449C21.6991 17.1975 22 16.7465 22 16.1679V7.46557C22 6.15193 20.4311 5.47286 19.4733 6.37196L17 8.69388V8C17 6.34315 15.6569 5 14 5H9.62132C9.17587 5 8.95278 5.53857 9.26777 5.85355L10.2678 6.85355C10.3615 6.94732 10.4887 7 10.6213 7H14C14.5523 7 15 7.44771 15 8V11.5858ZM17 11.6457L20 14.8906V8.62076L17 11.4371V11.6457Z" fill="#0A0B0D"/>
</svg>
