<svg width="24" height="24" viewBox="0 0 24 24" fill="none" xmlns="http://www.w3.org/2000/svg">
<path d="M11.9571 7.29289C12.3476 7.68342 12.3476 8.31658 11.9571 8.70711L8.66421 12L11.9571 15.2929C12.3476 15.6834 12.3476 16.3166 11.9571 16.7071C11.5666 17.0976 10.9334 17.0976 10.5429 16.7071L6.18934 12.3536C5.99408 12.1583 5.99408 11.8417 6.18934 11.6464L10.5429 7.29289C10.9334 6.90237 11.5666 6.90237 11.9571 7.29289Z" fill="#0A0B0D"/>
<path d="M16.9571 8.70711C17.3476 8.31658 17.3476 7.68342 16.9571 7.29289C16.5666 6.90237 15.9334 6.90237 15.5429 7.29289L11.1893 11.6464C10.9941 11.8417 10.9941 12.1583 11.1893 12.3536L15.5429 16.7071C15.9334 17.0976 16.5666 17.0976 16.9571 16.7071C17.3476 16.3166 17.3476 15.6834 16.9571 15.2929L13.6642 12L16.9571 8.70711Z" fill="#0A0B0D"/>
<path fill-rule="evenodd" clip-rule="evenodd" d="M12 22C17.5228 22 22 17.5228 22 12C22 6.47715 17.5228 2 12 2C6.47715 2 2 6.47715 2 12C2 17.5228 6.47715 22 12 22ZM12 20C16.4183 20 20 16.4183 20 12C20 7.58172 16.4183 4 12 4C7.58172 4 4 7.58172 4 12C4 16.4183 7.58172 20 12 20Z" fill="#0A0B0D"/>
</svg>
