<svg width="24" height="24" viewBox="0 0 24 24" fill="none" xmlns="http://www.w3.org/2000/svg">
<path d="M18.2071 16.7927C18.5976 17.1832 18.5976 17.8164 18.2071 18.2069C17.8165 18.5974 17.1834 18.5974 16.7928 18.2069L12 13.4141L7.20725 18.2069C6.81673 18.5975 6.18356 18.5975 5.79304 18.207C5.40251 17.8164 5.4025 17.1833 5.79302 16.7927L10.5857 11.9999L5.79283 7.20709C5.40231 6.81657 5.40231 6.18341 5.79284 5.79289C6.18336 5.40237 6.81653 5.40237 7.20706 5.79289L11.9999 10.5857L16.7927 5.79291C17.1832 5.40238 17.8163 5.40238 18.2069 5.7929C18.5974 6.18342 18.5974 6.81658 18.2069 7.20711L13.4142 11.9999L18.2071 16.7927Z" fill="#0A0B0D"/>
</svg>
