<svg width="24" height="24" viewBox="0 0 24 24" fill="none" xmlns="http://www.w3.org/2000/svg">
<path d="M12 3C11.4477 3 11 3.44772 11 4V5.5C11 5.77614 11.2239 6 11.5 6H12.5C12.7761 6 13 5.77614 13 5.5V4C13 3.44772 12.5523 3 12 3Z" fill="#0A0B0D"/>
<path d="M14 10H13V20C13 20.5523 12.5523 21 12 21C11.4477 21 11 20.5523 11 20V10H10C9.44772 10 9 9.55228 9 9C9 8.44772 9.44772 8 10 8H14C14.5523 8 15 8.44772 15 9C15 9.55228 14.5523 10 14 10Z" fill="#0A0B0D"/>
<path d="M7 15H8C8.55228 15 9 14.5523 9 14C9 13.4477 8.55228 13 8 13H4C3.44772 13 3 13.4477 3 14C3 14.5523 3.44772 15 4 15H5V20C5 20.5523 5.44772 21 6 21C6.55228 21 7 20.5523 7 20V15Z" fill="#0A0B0D"/>
<path d="M6 3C5.44772 3 5 3.44772 5 4V10.5C5 10.7761 5.22386 11 5.5 11H6.5C6.77614 11 7 10.7761 7 10.5V4C7 3.44772 6.55228 3 6 3Z" fill="#0A0B0D"/>
<path d="M19 17H20C20.5523 17 21 16.5523 21 16C21 15.4477 20.5523 15 20 15H16C15.4477 15 15 15.4477 15 16C15 16.5523 15.4477 17 16 17H17V20C17 20.5523 17.4477 21 18 21C18.5523 21 19 20.5523 19 20V17Z" fill="#0A0B0D"/>
<path d="M18 3C17.4477 3 17 3.44772 17 4V12.5C17 12.7761 17.2239 13 17.5 13H18.5C18.7761 13 19 12.7761 19 12.5V4C19 3.44772 18.5523 3 18 3Z" fill="#0A0B0D"/>
</svg>
