<svg width="24" height="24" viewBox="0 0 24 24" fill="none" xmlns="http://www.w3.org/2000/svg">
<path fill-rule="evenodd" clip-rule="evenodd" d="M2 3.5C2 2.94772 2.44772 2.5 3 2.5H5.5C6.05228 2.5 6.5 2.94772 6.5 3.5C6.5 4.05228 6.05228 4.5 5.5 4.5H4V6C4 6.55228 3.55228 7 3 7C2.44772 7 2 6.55228 2 6V3.5ZM11.4592 2.65882C11.7886 2.44706 12.2114 2.44706 12.5408 2.65882L19.5408 7.15882C19.827 7.34282 20 7.65974 20 8V16C20 16.3403 19.827 16.6572 19.5408 16.8412L12.5408 21.3412C12.2114 21.5529 11.7886 21.5529 11.4592 21.3412L4.45924 16.8412C4.17302 16.6572 4 16.3403 4 16V8C4 7.65974 4.17302 7.34282 4.45924 7.15882L11.4592 2.65882ZM17.5 3.5C17.5 2.94772 17.9477 2.5 18.5 2.5H21C21.5523 2.5 22 2.94772 22 3.5V6C22 6.55228 21.5523 7 21 7C20.4477 7 20 6.55228 20 6V4.5H18.5C17.9477 4.5 17.5 4.05228 17.5 3.5ZM6 9.83167L11 13.046V18.6683L7.01849 16.1088L9.44721 14.8944C9.94119 14.6474 10.1414 14.0468 9.89443 13.5528C9.64744 13.0588 9.04676 12.8586 8.55279 13.1056L6 14.382V9.83167ZM13 18.6683L16.9815 16.1088L14.5528 14.8944C14.0588 14.6474 13.8586 14.0468 14.1056 13.5528C14.3526 13.0588 14.9532 12.8586 15.4472 13.1056L18 14.382V9.83167L13 13.046V18.6683ZM12 11.3112L17.1507 8L12 4.68881L6.84926 8L12 11.3112ZM3 17C3.55228 17 4 17.4477 4 18V19.5H5.5C6.05228 19.5 6.5 19.9477 6.5 20.5C6.5 21.0523 6.05228 21.5 5.5 21.5H3C2.44772 21.5 2 21.0523 2 20.5V18C2 17.4477 2.44772 17 3 17ZM21 17C21.5523 17 22 17.4477 22 18V20.5C22 21.0523 21.5523 21.5 21 21.5H18.5C17.9477 21.5 17.5 21.0523 17.5 20.5C17.5 19.9477 17.9477 19.5 18.5 19.5H20V18C20 17.4477 20.4477 17 21 17Z" fill="#0A0B0D"/>
</svg>
