<svg width="24" height="24" viewBox="0 0 24 24" fill="none" xmlns="http://www.w3.org/2000/svg">
<path d="M9.52517 9.52513C9.91569 9.1346 10.5489 9.1346 10.9394 9.52513L12 10.5858L13.0607 9.52513C13.4512 9.1346 14.0844 9.1346 14.4749 9.52513C14.8654 9.91565 14.8654 10.5488 14.4749 10.9393L13.4143 12L14.4749 13.0607C14.8654 13.4512 14.8654 14.0843 14.4749 14.4749C14.0844 14.8654 13.4512 14.8654 13.0607 14.4749L12 13.4142L10.9394 14.4749C10.5489 14.8654 9.91569 14.8654 9.52517 14.4749C9.13464 14.0843 9.13464 13.4512 9.52517 13.0607L10.5858 12L9.52517 10.9393C9.13464 10.5488 9.13464 9.91565 9.52517 9.52513Z" fill="#0A0B0D"/>
<path fill-rule="evenodd" clip-rule="evenodd" d="M2 7C2 5.34315 3.34315 4 5 4H19C20.6569 4 22 5.34315 22 7V17C22 18.6569 20.6569 20 19 20H5C3.34315 20 2 18.6569 2 17V7ZM18.1707 6H19C19.5523 6 20 6.44771 20 7V7.82929C19.1476 7.52801 18.472 6.85241 18.1707 6ZM16.1 6H7.89998C7.5023 7.95913 5.95913 9.5023 4 9.89998V14.1C5.95913 14.4977 7.5023 16.0409 7.89998 18H16.1C16.4977 16.0409 18.0409 14.4977 20 14.1V9.89998C18.0409 9.5023 16.4977 7.95913 16.1 6ZM20 16.1707C19.1476 16.472 18.472 17.1476 18.1707 18H19C19.5523 18 20 17.5523 20 17V16.1707ZM5.82929 18C5.52801 17.1476 4.85241 16.472 4 16.1707V17C4 17.5523 4.44772 18 5 18H5.82929ZM4 7.82929C4.85241 7.52801 5.52801 6.85241 5.82929 6H5C4.44772 6 4 6.44772 4 7V7.82929Z" fill="#0A0B0D"/>
</svg>
