<svg width="24" height="24" viewBox="0 0 24 24" fill="none" xmlns="http://www.w3.org/2000/svg">
<path d="M4 3C4.55228 3 5 3.44772 5 4V19H20C20.5523 19 21 19.4477 21 20C21 20.5523 20.5523 21 20 21H4C3.44772 21 3 20.5523 3 20V4C3 3.44772 3.44772 3 4 3Z" fill="#0A0B0D"/>
<path d="M19.832 16.4453C20.1384 16.9048 20.0142 17.5257 19.5547 17.8321C19.0952 18.1384 18.4743 18.0142 18.1679 17.5547L14.7543 12.4343L11.6 14.8C11.1407 15.1445 10.4864 15.0324 10.1679 14.5547L6.16793 8.55472C5.86158 8.09519 5.98576 7.47432 6.44528 7.16797C6.90481 6.86161 7.52568 6.98579 7.83203 7.44532L11.2457 12.5658L14.4 10.2C14.8593 9.85557 15.5136 9.96765 15.832 10.4453L19.832 16.4453Z" fill="#0A0B0D"/>
</svg>
