<svg width="24" height="24" viewBox="0 0 24 24" fill="none" xmlns="http://www.w3.org/2000/svg">
<path fill-rule="evenodd" clip-rule="evenodd" d="M10 15.5V18.3915L14.6264 15.5H19C19.5523 15.5 20 15.0523 20 14.5V5.5C20 4.94772 19.5523 4.5 19 4.5H5C4.44772 4.5 4 4.94772 4 5.5V14.5C4 15.0523 4.44772 15.5 5 15.5H10ZM5 17.5C3.34315 17.5 2 16.1569 2 14.5V5.5C2 3.84315 3.34315 2.5 5 2.5H19C20.6569 2.5 22 3.84315 22 5.5V14.5C22 16.1569 20.6569 17.5 19 17.5H15.2L9.53 21.0438C8.86395 21.46 8 20.9812 8 20.1958V17.5H5Z" fill="#0A0B0D"/>
</svg>
