<svg width="24" height="24" viewBox="0 0 24 24" fill="none" xmlns="http://www.w3.org/2000/svg">
<path fill-rule="evenodd" clip-rule="evenodd" d="M12 4C7.58172 4 4 7.58172 4 12C4 13.6675 4.5093 15.2144 5.38167 16.4958L16.4958 5.38167C15.2144 4.5093 13.6675 4 12 4ZM17.9989 6.70701L6.70701 17.9989C8.11814 19.2452 9.97043 20 12 20C16.4183 20 20 16.4183 20 12C20 9.97043 19.2452 8.11814 17.9989 6.70701ZM2 12C2 6.47715 6.47715 2 12 2C14.5605 2 16.8984 2.96367 18.6669 4.54655C20.7111 6.37618 22 9.03824 22 12C22 17.5228 17.5228 22 12 22C9.03824 22 6.37618 20.7111 4.54655 18.6669C2.96367 16.8984 2 14.5605 2 12Z" fill="#0A0B0D"/>
</svg>
