<svg width="24" height="24" viewBox="0 0 24 24" fill="none" xmlns="http://www.w3.org/2000/svg">
<path d="M13 13.0858L14.2929 11.7929C14.6834 11.4024 15.3166 11.4024 15.7071 11.7929C16.0976 12.1834 16.0976 12.8166 15.7071 13.2071L12.3536 16.5607C12.1583 16.7559 11.8417 16.7559 11.6464 16.5607L8.29289 13.2071C7.90237 12.8166 7.90237 12.1834 8.29289 11.7929C8.68342 11.4024 9.31658 11.4024 9.70711 11.7929L11 13.0858V3.5C11 2.94771 11.4477 2.5 12 2.5C12.5523 2.5 13 2.94771 13 3.5V13.0858Z" fill="#0A0B0D"/>
<path d="M22 12.5C22 10.2909 20.2091 8.5 18 8.5H16C15.4477 8.5 15 8.94771 15 9.5C15 10.0523 15.4477 10.5 16 10.5H18C19.1046 10.5 20 11.3954 20 12.5V17.5C20 18.6046 19.1046 19.5 18 19.5H6C4.89543 19.5 4 18.6046 4 17.5V12.5C4 11.3954 4.89543 10.5 6 10.5H8C8.55229 10.5 9 10.0523 9 9.5C9 8.94771 8.55229 8.5 8 8.5H6C3.79086 8.5 2 10.2909 2 12.5V17.5C2 19.7091 3.79086 21.5 6 21.5H18C20.2091 21.5 22 19.7091 22 17.5V12.5Z" fill="#0A0B0D"/>
</svg>
