<svg width="24" height="24" viewBox="0 0 24 24" fill="none" xmlns="http://www.w3.org/2000/svg">
<path fill-rule="evenodd" clip-rule="evenodd" d="M3 6C3 4.34315 4.34315 3 6 3H18C19.6569 3 21 4.34315 21 6V18C21 19.6569 19.6569 21 18 21H6C4.34315 21 3 19.6569 3 18V6ZM18 5H15.75V8.25H19V6C19 5.44772 18.5523 5 18 5ZM13.75 5V8.25H10.25V5H13.75ZM13.75 10.25H10.25V13.75H13.75V10.25ZM13.75 15.75H10.25V19H13.75V15.75ZM8.25 13.75V10.25H5V13.75H8.25ZM5 15.75H8.25V19H6C5.44772 19 5 18.5523 5 18V15.75ZM19 15.75V18C19 18.5523 18.5523 19 18 19H15.75V15.75H19ZM19 13.75H15.75V10.25H19V13.75ZM8.25 5V8.25H5V6C5 5.44772 5.44772 5 6 5H8.25Z" fill="#0A0B0D"/>
</svg>
