<svg width="24" height="24" viewBox="0 0 24 24" fill="none" xmlns="http://www.w3.org/2000/svg">
<path d="M12 10.5C12.5523 10.5 13 10.9477 13 11.5V13H14.5C15.0523 13 15.5 13.4477 15.5 14C15.5 14.5523 15.0523 15 14.5 15H13V16.5C13 17.0523 12.5523 17.5 12 17.5C11.4477 17.5 11 17.0523 11 16.5V15H9.5C8.94772 15 8.5 14.5523 8.5 14C8.5 13.4477 8.94772 13 9.5 13H11V11.5C11 10.9477 11.4477 10.5 12 10.5Z" fill="#0A0B0D"/>
<path fill-rule="evenodd" clip-rule="evenodd" d="M12.6644 1.75259C12.2855 1.4158 11.7145 1.4158 11.3356 1.75259L2.33565 9.75259C1.92286 10.1195 1.88568 10.7516 2.2526 11.1644C2.57359 11.5255 3.0975 11.5991 3.5 11.3663V18C3.5 20.2091 5.29086 22 7.5 22H16.5C18.7091 22 20.5 20.2091 20.5 18V11.3662C20.9025 11.5991 21.4264 11.5255 21.7474 11.1644C22.1143 10.7516 22.0772 10.1195 21.6644 9.75259L12.6644 1.75259ZM18.5 9.61572L12 3.83796L5.5 9.61574V18C5.5 19.1046 6.39543 20 7.5 20H16.5C17.6046 20 18.5 19.1046 18.5 18V9.61572Z" fill="#0A0B0D"/>
</svg>
