<svg width="24" height="24" viewBox="0 0 24 24" fill="none" xmlns="http://www.w3.org/2000/svg">
<path d="M10.5 13C9.94772 13 9.5 13.4477 9.5 14C9.5 14.5523 9.94772 15 10.5 15H13.5C14.0523 15 14.5 14.5523 14.5 14C14.5 13.4477 14.0523 13 13.5 13H10.5Z" fill="#0A0B0D"/>
<path fill-rule="evenodd" clip-rule="evenodd" d="M5 3C3.34315 3 2 4.34315 2 6V15C2 16.6569 3.34315 18 5 18H19C20.6569 18 22 16.6569 22 15V6C22 4.34315 20.6569 3 19 3H5ZM19 5H5C4.44772 5 4 5.44772 4 6V15C4 15.5523 4.44772 16 5 16H19C19.5523 16 20 15.5523 20 15V6C20 5.44771 19.5523 5 19 5Z" fill="#0A0B0D"/>
<path d="M2 20C2 19.4477 2.44772 19 3 19H21C21.5523 19 22 19.4477 22 20C22 20.5523 21.5523 21 21 21H3C2.44772 21 2 20.5523 2 20Z" fill="#0A0B0D"/>
</svg>
