<svg width="24" height="24" viewBox="0 0 24 24" fill="none" xmlns="http://www.w3.org/2000/svg">
<path fill-rule="evenodd" clip-rule="evenodd" d="M12 12C12 14.2091 10.2091 16 8 16C5.79086 16 4 14.2091 4 12C4 9.79086 5.79086 8 8 8C10.2091 8 12 9.79086 12 12ZM13.917 11C13.441 8.16229 10.973 6 8 6C4.68629 6 2 8.68629 2 12C2 15.3137 4.68629 18 8 18C10.973 18 13.441 15.8377 13.917 13H17V16.5C17 17.0523 17.4477 17.5 18 17.5C18.5523 17.5 19 17.0523 19 16.5V13H21C21.5523 13 22 12.5523 22 12C22 11.4477 21.5523 11 21 11H18H13.917Z" fill="#0A0B0D"/>
</svg>
