<svg width="24" height="24" viewBox="0 0 24 24" fill="none" xmlns="http://www.w3.org/2000/svg">
<path d="M16.7071 12.0429C16.3166 11.6523 15.6834 11.6523 15.2929 12.0429L12 15.3358L8.70711 12.0429C8.31658 11.6523 7.68342 11.6523 7.29289 12.0429C6.90237 12.4334 6.90237 13.0666 7.29289 13.4571L11.6464 17.8106C11.8417 18.0059 12.1583 18.0059 12.3536 17.8106L16.7071 13.4571C17.0976 13.0666 17.0976 12.4334 16.7071 12.0429Z" fill="#0A0B0D"/>
<path d="M15.2929 7.04286C15.6834 6.65234 16.3166 6.65234 16.7071 7.04286C17.0976 7.43339 17.0976 8.06655 16.7071 8.45708L12.3536 12.8106C12.1583 13.0059 11.8417 13.0059 11.6464 12.8106L7.29289 8.45708C6.90237 8.06655 6.90237 7.43339 7.29289 7.04286C7.68342 6.65234 8.31658 6.65234 8.70711 7.04286L12 10.3358L15.2929 7.04286Z" fill="#0A0B0D"/>
<path fill-rule="evenodd" clip-rule="evenodd" d="M12 22C17.5228 22 22 17.5228 22 12C22 6.47715 17.5228 2 12 2C6.47715 2 2 6.47715 2 12C2 17.5228 6.47715 22 12 22ZM12 20C16.4183 20 20 16.4183 20 12C20 7.58172 16.4183 4 12 4C7.58172 4 4 7.58172 4 12C4 16.4183 7.58172 20 12 20Z" fill="#0A0B0D"/>
</svg>
