<svg width="24" height="24" viewBox="0 0 24 24" fill="none" xmlns="http://www.w3.org/2000/svg">
<path d="M3 7C3 6.44772 3.44772 6 4 6H20C20.5523 6 21 6.44772 21 7C21 7.55228 20.5523 8 20 8H4C3.44772 8 3 7.55228 3 7Z" fill="#0A0B0D"/>
<path d="M7 17C7 16.4477 7.44772 16 8 16H20C20.5523 16 21 16.4477 21 17C21 17.5523 20.5523 18 20 18H8C7.44772 18 7 17.5523 7 17Z" fill="#0A0B0D"/>
<path d="M12 11C11.4477 11 11 11.4477 11 12C11 12.5523 11.4477 13 12 13H20C20.5523 13 21 12.5523 21 12C21 11.4477 20.5523 11 20 11H12Z" fill="#0A0B0D"/>
</svg>
