<svg width="24" height="24" viewBox="0 0 24 24" fill="none" xmlns="http://www.w3.org/2000/svg">
<path fill-rule="evenodd" clip-rule="evenodd" d="M5.5 3C4.11929 3 3 4.11929 3 5.5V8.5C3 9.88071 4.11929 11 5.5 11H8.5C9.88071 11 11 9.88071 11 8.5V5.5C11 4.11929 9.88071 3 8.5 3H5.5ZM8.5 5H5.5C5.22386 5 5 5.22386 5 5.5V8.5C5 8.77614 5.22386 9 5.5 9H8.5C8.77614 9 9 8.77614 9 8.5V5.5C9 5.22386 8.77614 5 8.5 5Z" fill="#0A0B0D"/>
<path fill-rule="evenodd" clip-rule="evenodd" d="M15.5 13C14.1193 13 13 14.1193 13 15.5V18.5C13 19.8807 14.1193 21 15.5 21H18.5C19.8807 21 21 19.8807 21 18.5V15.5C21 14.1193 19.8807 13 18.5 13H15.5ZM15.5 15C15.2239 15 15 15.2239 15 15.5V18.5C15 18.7761 15.2239 19 15.5 19H18.5C18.7761 19 19 18.7761 19 18.5V15.5C19 15.2239 18.7761 15 18.5 15H15.5Z" fill="#0A0B0D"/>
<path fill-rule="evenodd" clip-rule="evenodd" d="M3 15.5C3 14.1193 4.11929 13 5.5 13H8.5C9.88071 13 11 14.1193 11 15.5V18.5C11 19.8807 9.88071 21 8.5 21H5.5C4.11929 21 3 19.8807 3 18.5V15.5ZM5.5 15H8.5C8.77614 15 9 15.2239 9 15.5V18.5C9 18.7761 8.77614 19 8.5 19H5.5C5.22386 19 5 18.7761 5 18.5V15.5C5 15.2239 5.22386 15 5.5 15Z" fill="#0A0B0D"/>
<path d="M17 3.5C17.5523 3.5 18 3.94772 18 4.5V6H19.5C20.0523 6 20.5 6.44772 20.5 7C20.5 7.55228 20.0523 8 19.5 8H18V9.5C18 10.0523 17.5523 10.5 17 10.5C16.4477 10.5 16 10.0523 16 9.5V8H14.5C13.9477 8 13.5 7.55228 13.5 7C13.5 6.44772 13.9477 6 14.5 6H16V4.5C16 3.94772 16.4477 3.5 17 3.5Z" fill="#0A0B0D"/>
</svg>
