<svg width="24" height="24" viewBox="0 0 24 24" fill="none" xmlns="http://www.w3.org/2000/svg">
<path fill-rule="evenodd" clip-rule="evenodd" d="M20.7656 8.18414C21.9372 7.01257 21.9372 5.11307 20.7656 3.9415L20.0585 3.23439C18.8869 2.06282 16.9874 2.06282 15.8158 3.23439L4.42912 14.6211C4.01544 15.0348 3.73174 15.5604 3.61294 16.1333L2.80928 20.0085C2.66314 20.7131 3.28683 21.3368 3.9915 21.1907L7.86673 20.387C8.43957 20.2682 8.96519 19.9845 9.37887 19.5709L20.7656 8.18414ZM19.3514 5.35571L18.6443 4.64861C18.2538 4.25808 17.6206 4.25808 17.2301 4.64861L16.1694 5.7093L18.2907 7.83062L19.3514 6.76993C19.7419 6.3794 19.7419 5.74624 19.3514 5.35571ZM16.8765 9.24483L14.7552 7.12351L5.84333 16.0353C5.70544 16.1732 5.61087 16.3484 5.57127 16.5394L5.07693 18.923L7.46061 18.4287C7.65156 18.3891 7.82676 18.2945 7.96466 18.1567L16.8765 9.24483Z" fill="#0A0B0D"/>
</svg>
