<svg width="24" height="24" viewBox="0 0 24 24" fill="none" xmlns="http://www.w3.org/2000/svg">
<path d="M5.93587 8.50073C7.14771 6.40581 9.41028 5 12 5C15.5525 5 18.4869 7.64632 18.9395 11.0752L18.2071 10.3429C17.8166 9.95233 17.1834 9.95233 16.7929 10.3429C16.4024 10.7334 16.4024 11.3665 16.7929 11.7571L19.6464 14.6106C19.8417 14.8059 20.1583 14.8059 20.3536 14.6106L23.2071 11.7571C23.5976 11.3665 23.5976 10.7334 23.2071 10.3429C22.8166 9.95233 22.1834 9.95233 21.7929 10.3429L20.9625 11.1732C20.5451 6.59018 16.6918 3 12 3C8.66748 3 5.75929 4.81178 4.20466 7.49927C3.92812 7.97733 4.09148 8.58906 4.56954 8.86561C5.0476 9.14215 5.65933 8.97879 5.93587 8.50073Z" fill="#0A0B0D"/>
<path d="M5.79289 14.2571C6.18342 14.6476 6.81658 14.6476 7.20711 14.2571C7.59763 13.8666 7.59763 13.2334 7.20711 12.8429L4.35355 9.98936C4.15829 9.79409 3.84171 9.79409 3.64645 9.98936L0.792893 12.8429C0.402369 13.2334 0.402369 13.8666 0.792893 14.2571C1.18342 14.6476 1.81658 14.6476 2.20711 14.2571L3.10237 13.3619C3.75875 17.6862 7.49239 21 12 21C14.8426 21 17.3779 19.681 19.0256 17.6255C19.3711 17.1946 19.3018 16.5652 18.8708 16.2198C18.4399 15.8743 17.8106 15.9436 17.4651 16.3745C16.1806 17.9769 14.2101 19 12 19C8.70701 19 5.94511 16.7262 5.19873 13.663L5.79289 14.2571Z" fill="#0A0B0D"/>
</svg>
