<svg width="24" height="24" viewBox="0 0 24 24" fill="none" xmlns="http://www.w3.org/2000/svg">
<path fill-rule="evenodd" clip-rule="evenodd" d="M4.25 12C4.25 8.13401 7.38401 5 11.25 5C14.8025 5 17.7369 7.64635 18.1895 11.0752L17.4571 10.3429C17.0666 9.95237 16.4334 9.95237 16.0429 10.3429C15.6524 10.7334 15.6524 11.3666 16.0429 11.7571L18.8964 14.6107C19.0917 14.8059 19.4083 14.8059 19.6036 14.6107L22.4571 11.7571C22.8476 11.3666 22.8476 10.7334 22.4571 10.3429C22.0666 9.95237 21.4334 9.95237 21.0429 10.3429L20.2125 11.1733C19.7951 6.59021 15.9418 3 11.25 3C6.27944 3 2.25 7.02944 2.25 12C2.25 16.9706 6.27944 21 11.25 21C14.0926 21 16.6279 19.681 18.2756 17.6255C18.6211 17.1946 18.5518 16.5652 18.1208 16.2198C17.6899 15.8743 17.0606 15.9436 16.7151 16.3745C15.4306 17.9769 13.4601 19 11.25 19C7.38401 19 4.25 15.866 4.25 12Z" fill="#0A0B0D"/>
</svg>
