<svg width="24" height="24" viewBox="0 0 24 24" fill="none" xmlns="http://www.w3.org/2000/svg">
<path d="M6.638 4.12231C6.45691 3.18063 5.63292 2.5 4.67398 2.5H3C2.44772 2.5 2 2.94772 2 3.5C2 4.05228 2.44772 4.5 3 4.5L4.67398 4.5L6.55002 14.2554C6.91221 16.1388 8.56018 17.5 10.478 17.5H16.6873C18.5044 17.5 20.0932 16.2752 20.5556 14.518L21.8068 9.76348C22.3074 7.86122 20.8726 6 18.9056 6H17.5C16.9477 6 16.5 6.44772 16.5 7C16.5 7.55228 16.9477 8 17.5 8H18.9056C19.5613 8 20.0395 8.62041 19.8727 9.25449L18.6215 14.009C18.3903 14.8876 17.5959 15.5 16.6873 15.5H10.478C9.51911 15.5 8.69513 14.8194 8.51403 13.8777L7.38371 8H10C10.5523 8 11 7.55228 11 7C11 6.44772 10.5523 6 10 6H6.99909L6.638 4.12231Z" fill="#0A0B0D"/>
<path d="M8.75 21.5C7.92157 21.5 7.25 20.8284 7.25 20C7.25 19.1716 7.92157 18.5 8.75 18.5C9.57843 18.5 10.25 19.1716 10.25 20C10.25 20.8284 9.57843 21.5 8.75 21.5Z" fill="#0A0B0D"/>
<path d="M17.5 21.5C16.6716 21.5 16 20.8284 16 20C16 19.1716 16.6716 18.5 17.5 18.5C18.3284 18.5 19 19.1716 19 20C19 20.8284 18.3284 21.5 17.5 21.5Z" fill="#0A0B0D"/>
<path d="M10.0429 9.79289C10.4334 9.40237 11.0666 9.40237 11.4571 9.79289L12.75 11.0858V4C12.75 3.44772 13.1977 3 13.75 3C14.3023 3 14.75 3.44772 14.75 4V11.0858L16.0429 9.79289C16.4334 9.40237 17.0666 9.40237 17.4571 9.79289C17.8476 10.1834 17.8476 10.8166 17.4571 11.2071L14.1036 14.5607C13.9083 14.7559 13.5917 14.7559 13.3964 14.5607L10.0429 11.2071C9.65237 10.8166 9.65237 10.1834 10.0429 9.79289Z" fill="#0A0B0D"/>
</svg>
