<svg width="24" height="24" viewBox="0 0 24 24" fill="none" xmlns="http://www.w3.org/2000/svg">
<path fill-rule="evenodd" clip-rule="evenodd" d="M9 6.50463L7.06073 11.9992C6.84906 12.599 6.28222 13 5.64624 13H3C2.44772 13 2 12.5523 2 12C2 11.4477 2.44772 11 3 11H5.29248L7.82126 3.83513C8.21372 2.72316 9.78628 2.72318 10.1787 3.83513L15 17.4954L16.9393 12.0008C17.1509 11.4011 17.7178 11 18.3538 11H21C21.5523 11 22 11.4477 22 12C22 12.5523 21.5523 13 21 13H18.7075L16.1787 20.1649C15.7863 21.2768 14.2137 21.2768 13.8213 20.1649L9 6.50463Z" fill="#0A0B0D"/>
</svg>
