<svg width="24" height="24" viewBox="0 0 24 24" fill="none" xmlns="http://www.w3.org/2000/svg">
<path d="M11.7072 6.70711C12.0977 6.31658 12.0977 5.68342 11.7072 5.29289C11.3167 4.90237 10.6835 4.90237 10.293 5.29289L4.2975 11.2884C4.29445 11.2914 4.29142 11.2944 4.28841 11.2975L3.93942 11.6464C3.74415 11.8417 3.74415 12.1583 3.93942 12.3536L4.28841 12.7025C4.29142 12.7056 4.29445 12.7086 4.2975 12.7116L10.293 18.7071C10.6835 19.0976 11.3167 19.0976 11.7072 18.7071C12.0977 18.3166 12.0977 17.6834 11.7072 17.2929L7.41429 13H19C19.5523 13 20 12.5523 20 12C20 11.4477 19.5523 11 19 11H7.41429L11.7072 6.70711Z" fill="#0A0B0D"/>
</svg>
