<svg width="24" height="24" viewBox="0 0 24 24" fill="none" xmlns="http://www.w3.org/2000/svg">
<path fill-rule="evenodd" clip-rule="evenodd" d="M7 17L11.5238 20.8775C12.4968 21.7116 14 21.0202 14 19.7387V4.26132C14 2.97979 12.4968 2.28843 11.5238 3.12244L7 6.99999H5C3.34315 6.99999 2 8.34314 2 9.99999V14C2 15.6568 3.34315 17 5 17H7ZM7.73985 8.99999H5C4.44772 8.99999 4 9.44771 4 9.99999V14C4 14.5523 4.44772 15 5 15H7.73985L12 18.6516V5.34843L7.73985 8.99999Z" fill="#0A0B0D"/>
<path d="M15.9998 10.8817C15.8528 10.7502 15.6805 10.6475 15.4909 10.5819C15.2299 10.4916 15 10.2761 15 9.99999V8.99999C15 8.72385 15.225 8.49624 15.4983 8.5353C16.198 8.63525 16.8318 8.94234 17.3336 9.39144C18.048 10.0309 18.5 10.9633 18.5 12C18.5 13.0367 18.048 13.9691 17.3336 14.6085C16.8318 15.0576 16.198 15.3647 15.4983 15.4647C15.225 15.5037 15 15.2761 15 15V14C15 13.7239 15.2299 13.5083 15.4909 13.4181C15.6805 13.3525 15.8528 13.2498 15.9998 13.1183C16.3082 12.8422 16.5 12.4441 16.5 12C16.5 11.5558 16.3082 11.1578 15.9998 10.8817Z" fill="#0A0B0D"/>
<path d="M15.4993 7.02461C18.0263 7.27515 20 9.40708 20 12C20 14.5929 18.0263 16.7248 15.4993 16.9754C15.2245 17.0026 15 17.2239 15 17.5V18.5C15 18.7761 15.2246 19.0018 15.5001 18.9824C19.1327 18.726 22 15.6978 22 12C22 8.30214 19.1327 5.27399 15.5001 5.01758C15.2246 4.99814 15 5.22385 15 5.49999V6.49999C15 6.77613 15.2245 6.99737 15.4993 7.02461Z" fill="#0A0B0D"/>
</svg>
