<svg width="24" height="24" viewBox="0 0 24 24" fill="none" xmlns="http://www.w3.org/2000/svg">
<path d="M8.65419 10.5408C8.74904 10.7176 8.85069 10.9003 8.95862 11.0856C9.07511 11.2857 9.04584 11.54 8.88216 11.7036L8.14726 12.4385C7.92293 12.6629 7.54893 12.6243 7.38484 12.3527C7.20197 12.0501 7.0372 11.7574 6.89165 11.486C6.61852 10.9767 6.40496 10.5271 6.25908 10.2034C6.18604 10.0413 6.12966 9.91012 6.09099 9.81806C6.07165 9.77202 6.05671 9.7357 6.04631 9.71014L6.03412 9.67996L6.0306 9.67115L6.0291 9.66736L5.74965 8.95953L8.32693 7.01334L5.37715 4.06356C4.79224 5.01935 4.03975 6.64475 4.03493 8.66572C4.03124 10.2182 4.46812 12.076 5.87261 14.1126C6.01299 14.3162 5.9934 14.5924 5.81854 14.7673L5.09799 15.4878C4.88432 15.7015 4.53067 15.6784 4.35551 15.4322C2.63778 13.0175 2.03008 10.7043 2.03494 8.66096C2.04124 6.01376 3.07481 3.94813 3.78691 2.8347C4.49047 1.73461 5.91549 1.77348 6.70504 2.56303L9.74115 5.59913C10.5999 6.45789 10.5013 7.87755 9.53217 8.60941L8.19252 9.62102C8.31375 9.87974 8.46884 10.1952 8.65419 10.5408Z" fill="#0A0B0D"/>
<path fill-rule="evenodd" clip-rule="evenodd" d="M11.3871 14.0271L20.7071 4.70717C21.0976 4.31664 21.0976 3.68348 20.7071 3.29295C20.3166 2.90243 19.6834 2.90243 19.2929 3.29295L3.29289 19.293C2.90237 19.6835 2.90237 20.3166 3.29289 20.7072C3.68342 21.0977 4.31658 21.0977 4.70711 20.7072L7.01639 18.3979C10.0004 21.1057 12.8881 22.0078 15.3758 22.0018C18.023 21.9954 20.0886 20.9618 21.202 20.2496C22.302 19.546 22.2631 18.1211 21.4736 17.3316L18.4374 14.2954C17.5787 13.4367 16.159 13.5352 15.4272 14.5044L14.4155 15.8441C14.1568 15.7229 13.8415 15.5678 13.4959 15.3825C12.8204 15.0202 12.0607 14.5588 11.3871 14.0271ZM9.96488 15.4494L8.43241 16.9819C11.0538 19.3343 13.4469 20.0064 15.371 20.0018C17.392 19.9969 19.0173 19.2444 19.973 18.6595L17.0232 15.7096L15.0771 18.2869L14.37 18.0078L14.3655 18.006L14.3566 18.0025L14.3265 17.9903C14.3009 17.9799 14.2646 17.9649 14.2186 17.9456C14.1265 17.9069 13.9953 17.8506 13.8333 17.7775C13.5096 17.6317 13.06 17.4182 12.5507 17.1451C11.7741 16.7286 10.8228 16.1547 9.96488 15.4494Z" fill="#0A0B0D"/>
</svg>
