<svg width="24" height="24" viewBox="0 0 24 24" fill="none" xmlns="http://www.w3.org/2000/svg">
<path d="M13 8C13 8.55228 13.4477 9 14 9C14.5523 9 15 8.55228 15 8V7H20C20.5523 7 21 6.55228 21 6C21 5.44772 20.5523 5 20 5H15V4C15 3.44772 14.5523 3 14 3C13.4477 3 13 3.44772 13 4V8Z" fill="#0A0B0D"/>
<path d="M3 12C3 11.4477 3.44772 11 4 11H5.5C5.77614 11 6 11.2239 6 11.5V12.5C6 12.7761 5.77614 13 5.5 13H4C3.44772 13 3 12.5523 3 12Z" fill="#0A0B0D"/>
<path d="M9 9C8.44772 9 8 9.44772 8 10V14C8 14.5523 8.44772 15 9 15C9.55228 15 10 14.5523 10 14V13H20C20.5523 13 21 12.5523 21 12C21 11.4477 20.5523 11 20 11H10V10C10 9.44772 9.55228 9 9 9Z" fill="#0A0B0D"/>
<path d="M3 6C3 5.44772 3.44772 5 4 5H10.5C10.7761 5 11 5.22386 11 5.5V6.5C11 6.77614 10.7761 7 10.5 7H4C3.44772 7 3 6.55228 3 6Z" fill="#0A0B0D"/>
<path d="M15 16C15 15.4477 15.4477 15 16 15C16.5523 15 17 15.4477 17 16V17H20C20.5523 17 21 17.4477 21 18C21 18.5523 20.5523 19 20 19H17V20C17 20.5523 16.5523 21 16 21C15.4477 21 15 20.5523 15 20V16Z" fill="#0A0B0D"/>
<path d="M3 18C3 17.4477 3.44772 17 4 17H12.5C12.7761 17 13 17.2239 13 17.5V18.5C13 18.7761 12.7761 19 12.5 19H4C3.44772 19 3 18.5523 3 18Z" fill="#0A0B0D"/>
</svg>
