<svg width="24" height="24" viewBox="0 0 24 24" fill="none" xmlns="http://www.w3.org/2000/svg">
<path d="M14.2071 8.70711C14.5976 8.31658 14.5976 7.68342 14.2071 7.29289C13.8166 6.90237 13.1834 6.90237 12.7929 7.29289L8.43934 11.6464C8.24408 11.8417 8.24408 12.1583 8.43934 12.3536L12.7929 16.7071C13.1834 17.0976 13.8166 17.0976 14.2071 16.7071C14.5976 16.3166 14.5976 15.6834 14.2071 15.2929L10.9142 12L14.2071 8.70711Z" fill="#0A0B0D"/>
<path fill-rule="evenodd" clip-rule="evenodd" d="M22 12C22 17.5228 17.5228 22 12 22C6.47715 22 2 17.5228 2 12C2 6.47715 6.47715 2 12 2C17.5228 2 22 6.47715 22 12ZM20 12C20 16.4183 16.4183 20 12 20C7.58172 20 4 16.4183 4 12C4 7.58172 7.58172 4 12 4C16.4183 4 20 7.58172 20 12Z" fill="#0A0B0D"/>
</svg>
