<svg width="24" height="24" viewBox="0 0 24 24" fill="none" xmlns="http://www.w3.org/2000/svg">
<path d="M10.7929 2.70711C10.4024 2.31658 10.4024 1.68342 10.7929 1.29289C11.1834 0.902369 11.8166 0.902369 12.2071 1.29289L15.0607 4.14645C15.2559 4.34171 15.2559 4.65829 15.0607 4.85355L12.2071 7.70711C11.8166 8.09763 11.1834 8.09763 10.7929 7.70711C10.4024 7.31658 10.4024 6.68342 10.7929 6.29289L11.573 5.51281C7.90584 5.73349 5 8.7774 5 12.5C5 16.366 8.13401 19.5 12 19.5C15.866 19.5 19 16.366 19 12.5C19 10.2899 17.9769 8.31937 16.3745 7.03488C15.9436 6.68944 15.8743 6.06008 16.2198 5.62916C16.5652 5.19824 17.1946 5.12894 17.6255 5.47438C19.681 7.12213 21 9.65737 21 12.5C21 17.4706 16.9706 21.5 12 21.5C7.02944 21.5 3 17.4706 3 12.5C3 7.66524 6.81226 3.72089 11.5947 3.50896L10.7929 2.70711Z" fill="#0A0B0D"/>
</svg>
