<svg width="24" height="24" viewBox="0 0 24 24" fill="none" xmlns="http://www.w3.org/2000/svg">
<path d="M12.2071 6.70711C12.5976 6.31658 12.5976 5.68342 12.2071 5.29289C11.8166 4.90237 11.1834 4.90237 10.7929 5.29289L4.43935 11.6464C4.24409 11.8417 4.24409 12.1583 4.43935 12.3536L10.7929 18.7071C11.1834 19.0976 11.8166 19.0976 12.2071 18.7071C12.5976 18.3166 12.5976 17.6834 12.2071 17.2929L6.91423 12L12.2071 6.70711Z" fill="#0A0B0D"/>
<path d="M18.2071 6.70711C18.5976 6.31658 18.5976 5.68342 18.2071 5.29289C17.8166 4.90237 17.1834 4.90237 16.7929 5.29289L10.4394 11.6464C10.2441 11.8417 10.2441 12.1583 10.4394 12.3536L16.7929 18.7071C17.1834 19.0976 17.8166 19.0976 18.2071 18.7071C18.5976 18.3166 18.5976 17.6834 18.2071 17.2929L12.9142 12L18.2071 6.70711Z" fill="#0A0B0D"/>
</svg>
