<svg width="24" height="24" viewBox="0 0 24 24" fill="none" xmlns="http://www.w3.org/2000/svg">
<path fill-rule="evenodd" clip-rule="evenodd" d="M16 4H8C7.44772 4 7 4.44772 7 5V19.3851L10.6099 16.5487C11.4258 15.9077 12.5742 15.9077 13.3901 16.5487L17 19.3851V5C17 4.44772 16.5523 4 16 4ZM8 2C6.34315 2 5 3.34315 5 5V20.4138C5 21.6655 6.44254 22.3666 7.42673 21.5933L11.8455 18.1214C11.9362 18.0501 12.0638 18.0501 12.1545 18.1214L16.5733 21.5933C17.5575 22.3666 19 21.6655 19 20.4138V5C19 3.34315 17.6569 2 16 2H8Z" fill="#0A0B0D"/>
</svg>
