<svg width="24" height="24" viewBox="0 0 24 24" fill="none" xmlns="http://www.w3.org/2000/svg">
<path d="M6 16C6 15.4477 6.44772 15 7 15H9C9.55228 15 10 15.4477 10 16C10 16.5523 9.55228 17 9 17H7C6.44772 17 6 16.5523 6 16Z" fill="#0A0B0D"/>
<path d="M7 11C6.44772 11 6 11.4477 6 12C6 12.5523 6.44772 13 7 13H13C13.5523 13 14 12.5523 14 12C14 11.4477 13.5523 11 13 11H7Z" fill="#0A0B0D"/>
<path d="M6 8C6 7.44772 6.44772 7 7 7H13C13.5523 7 14 7.44772 14 8C14 8.55228 13.5523 9 13 9H7C6.44772 9 6 8.55228 6 8Z" fill="#0A0B0D"/>
<path fill-rule="evenodd" clip-rule="evenodd" d="M2 7C2 4.79086 3.79086 3 6 3H14C16.2091 3 18 4.79086 18 7V10H19C20.6569 10 22 11.3431 22 13V18C22 19.6569 20.6569 21 19 21H6C3.79086 21 2 19.2091 2 17V7ZM19 19C19.5523 19 20 18.5523 20 18V13C20 12.4477 19.5523 12 19 12H18V18C18 18.5523 18.4477 19 19 19ZM16 18C16 18.3506 16.0602 18.6872 16.1707 19H6C4.89543 19 4 18.1046 4 17V7C4 5.89543 4.89543 5 6 5H14C15.1046 5 16 5.89543 16 7V18Z" fill="#0A0B0D"/>
</svg>
