<svg width="24" height="24" viewBox="0 0 24 24" fill="none" xmlns="http://www.w3.org/2000/svg">
<path d="M15 11C14.4477 11 14 11.4477 14 12C14 12.5523 14.4477 13 15 13H17C17.5523 13 18 12.5523 18 12C18 11.4477 17.5523 11 17 11H15Z" fill="#0A0B0D"/>
<path fill-rule="evenodd" clip-rule="evenodd" d="M22 15C22 17.2091 20.2091 19 18 19C18 20.6569 16.6569 22 15 22H9C7.34315 22 6 20.6569 6 19C3.79086 19 2 17.2091 2 15V11C2 8.79086 3.79086 7 6 7V5C6 3.34315 7.34315 2 9 2H15C16.6569 2 18 3.34315 18 5L18 7C20.2091 7 22 8.79086 22 11V15ZM8 5C8 4.44772 8.44772 4 9 4H15C15.5523 4 16 4.44772 16 5V7H8V5ZM6 9H18C19.1046 9 20 9.89543 20 11V15C20 16.1046 19.1046 17 18 17L18 15H6L6 17C4.89543 17 4 16.1046 4 15V11C4 9.89543 4.89543 9 6 9ZM8 19V17H16V19C16 19.5523 15.5523 20 15 20H9C8.44772 20 8 19.5523 8 19Z" fill="#0A0B0D"/>
</svg>
