<svg width="24" height="24" viewBox="0 0 24 24" fill="none" xmlns="http://www.w3.org/2000/svg">
<path fill-rule="evenodd" clip-rule="evenodd" d="M11 3.12071C11 2.18526 12.131 1.71678 12.7925 2.37825L17.1718 6.75754C17.5818 7.16758 17.5818 7.8324 17.1718 8.24246L13.4142 12L17.1718 15.7575C17.5818 16.1676 17.5818 16.8324 17.1718 17.2425L12.7925 21.6217C12.131 22.2832 11 21.8148 11 20.8793V14.4142L8.20711 17.2071C7.81658 17.5976 7.18342 17.5976 6.79289 17.2071C6.40237 16.8166 6.40237 16.1834 6.79289 15.7929L10.5858 12L6.79289 8.2071C6.40237 7.81658 6.40237 7.18342 6.79289 6.79289C7.18342 6.40237 7.81658 6.40237 8.20711 6.79289L11 9.58578V3.12071ZM13 14.4142L15.0858 16.5L13 18.5858V14.4142ZM13 9.58578V5.41421L15.0858 7.5L13 9.58578Z" fill="#0A0B0D"/>
</svg>
