<svg width="24" height="24" viewBox="0 0 24 24" fill="none" xmlns="http://www.w3.org/2000/svg">
<path d="M15.9497 9.46444V15.5355C15.9497 16.0878 16.3975 16.5355 16.9497 16.5355C17.502 16.5355 17.9497 16.0878 17.9497 15.5355L17.9497 6.55024C17.9497 6.2741 17.7259 6.05024 17.4497 6.05024L16.9545 6.05024C16.9513 6.05023 16.9481 6.05023 16.9449 6.05024L8.46445 6.05024C7.91217 6.05024 7.46445 6.49796 7.46445 7.05024C7.46446 7.60253 7.91217 8.05024 8.46445 8.05024H14.5355L6.34313 16.2426C5.9526 16.6331 5.9526 17.2663 6.34313 17.6568C6.73365 18.0474 7.36681 18.0474 7.75734 17.6568L15.9497 9.46444Z" fill="#0A0B0D"/>
</svg>
