<svg width="24" height="24" viewBox="0 0 24 24" fill="none" xmlns="http://www.w3.org/2000/svg">
<path d="M15.2929 14.2071C15.6834 14.5977 16.3166 14.5977 16.7071 14.2071C17.0976 13.8166 17.0976 13.1834 16.7071 12.7929L12.3536 8.43937C12.1583 8.24411 11.8417 8.24411 11.6464 8.43937L7.29289 12.7929C6.90237 13.1834 6.90237 13.8166 7.29289 14.2071C7.68342 14.5977 8.31658 14.5977 8.70711 14.2071L12 10.9142L15.2929 14.2071Z" fill="#0A0B0D"/>
<path fill-rule="evenodd" clip-rule="evenodd" d="M22 12C22 17.5228 17.5228 22 12 22C6.47715 22 2 17.5228 2 12C2 6.47715 6.47715 2 12 2C17.5228 2 22 6.47715 22 12ZM20 12C20 16.4183 16.4183 20 12 20C7.58172 20 4 16.4183 4 12C4 7.58172 7.58172 4 12 4C16.4183 4 20 7.58172 20 12Z" fill="#0A0B0D"/>
</svg>
