<svg width="24" height="24" viewBox="0 0 24 24" fill="none" xmlns="http://www.w3.org/2000/svg">
<path d="M8.54289 7.70706C8.93342 8.09759 9.56658 8.09759 9.95711 7.70706L11.25 6.41417V16C11.25 16.5522 11.6977 17 12.25 17C12.8023 17 13.25 16.5522 13.25 16V6.41417L14.5429 7.70706C14.9334 8.09759 15.5666 8.09759 15.9571 7.70706C16.3476 7.31654 16.3476 6.68337 15.9571 6.29285L12.6036 2.93929C12.4083 2.74403 12.0917 2.74403 11.8964 2.93929L8.54289 6.29285C8.15237 6.68337 8.15237 7.31654 8.54289 7.70706Z" fill="#0A0B0D"/>
<path d="M4 14C4.55228 14 5 14.4477 5 15V17C5 18.1045 5.89543 19 7 19H17C18.1046 19 19 18.1045 19 17V15C19 14.4477 19.4477 14 20 14C20.5523 14 21 14.4477 21 15V17C21 19.2091 19.2091 21 17 21H7C4.79086 21 3 19.2091 3 17V15C3 14.4477 3.44772 14 4 14Z" fill="#0A0B0D"/>
</svg>
