<svg width="24" height="24" viewBox="0 0 24 24" fill="none" xmlns="http://www.w3.org/2000/svg">
<path d="M18.364 9.17158L15.182 12.3536C14.7915 12.7441 14.7915 13.3772 15.182 13.7678C15.5726 14.1583 16.2057 14.1583 16.5962 13.7678L19.7782 10.5858C21.5356 8.82843 21.5356 5.97919 19.7782 4.22183C18.0209 2.46447 15.1716 2.46447 13.4143 4.22183L10.2323 7.40381C9.84176 7.79433 9.84176 8.4275 10.2323 8.81802C10.6228 9.20855 11.256 9.20855 11.6465 8.81802L14.8285 5.63604C15.8048 4.65973 17.3877 4.65973 18.364 5.63604C19.3403 6.61235 19.3403 8.19526 18.364 9.17158Z" fill="#0A0B0D"/>
<path d="M9.17158 18.3639L12.3536 15.182C12.7441 14.7914 13.3772 14.7914 13.7678 15.182C14.1583 15.5725 14.1583 16.2057 13.7678 16.5962L10.5858 19.7782C8.82843 21.5355 5.97919 21.5355 4.22183 19.7782C2.46447 18.0208 2.46447 15.1716 4.22183 13.4142L7.40381 10.2322C7.79433 9.8417 8.4275 9.8417 8.81802 10.2322C9.20855 10.6227 9.20855 11.2559 8.81802 11.6464L5.63604 14.8284C4.65973 15.8047 4.65973 17.3876 5.63604 18.3639C6.61235 19.3403 8.19526 19.3403 9.17158 18.3639Z" fill="#0A0B0D"/>
<path d="M9.17156 13.4142C8.78103 13.8047 8.78103 14.4379 9.17156 14.8284C9.56208 15.2189 10.1952 15.2189 10.5858 14.8284L14.8284 10.5858C15.2189 10.1953 15.2189 9.56209 14.8284 9.17156C14.4379 8.78104 13.8047 8.78104 13.4142 9.17156L9.17156 13.4142Z" fill="#0A0B0D"/>
</svg>
