<svg width="24" height="24" viewBox="0 0 24 24" fill="none" xmlns="http://www.w3.org/2000/svg">
<path d="M9.5 13.5C8.94772 13.5 8.5 13.9477 8.5 14.5C8.5 15.0523 8.94772 15.5 9.5 15.5H14.5C15.0523 15.5 15.5 15.0523 15.5 14.5C15.5 13.9477 15.0523 13.5 14.5 13.5H9.5Z" fill="#0A0B0D"/>
<path fill-rule="evenodd" clip-rule="evenodd" d="M8 2C8.55228 2 9 2.44772 9 3H15C15 2.44772 15.4477 2 16 2C16.5523 2 17 2.44772 17 3H18C19.6569 3 21 4.34315 21 6V19C21 20.6569 19.6569 22 18 22H6C4.34315 22 3 20.6569 3 19V6C3 4.34315 4.34315 3 6 3H7C7 2.44772 7.44772 2 8 2ZM19 6V7H5V6C5 5.44772 5.44772 5 6 5H7C7 5.55228 7.44772 6 8 6C8.55228 6 9 5.55228 9 5H15C15 5.55228 15.4477 6 16 6C16.5523 6 17 5.55228 17 5H18C18.5523 5 19 5.44772 19 6ZM5 19V9H19V19C19 19.5523 18.5523 20 18 20H6C5.44772 20 5 19.5523 5 19Z" fill="#0A0B0D"/>
</svg>
