<svg width="24" height="24" viewBox="0 0 24 24" fill="none" xmlns="http://www.w3.org/2000/svg">
<path d="M12 16.5354C11.4478 16.5354 11 16.0877 11 15.5354L11 13L8.46448 13C7.91219 13 7.46448 12.5523 7.46449 12C7.46449 11.4477 7.91221 11 8.46449 11L11 11L11 8.46451C11 7.91223 11.4477 7.46451 12 7.4645C12.5523 7.4645 13 7.91221 13 8.46449L13 11L15.5355 10.9999C16.0878 10.9999 16.5355 11.4476 16.5355 11.9999C16.5355 12.5522 16.0878 12.9999 15.5355 12.9999L13 13L13 15.5354C13 16.0877 12.5523 16.5354 12 16.5354Z" fill="#0A0B0D"/>
<path fill-rule="evenodd" clip-rule="evenodd" d="M12 22C17.5228 22 22 17.5228 22 12C22 6.47715 17.5228 2 12 2C6.47715 2 2 6.47715 2 12C2 17.5228 6.47715 22 12 22ZM12 20C16.4183 20 20 16.4183 20 12C20 7.58172 16.4183 4 12 4C7.58172 4 4 7.58172 4 12C4 16.4183 7.58172 20 12 20Z" fill="#0A0B0D"/>
</svg>
