<svg width="24" height="24" viewBox="0 0 24 24" fill="none" xmlns="http://www.w3.org/2000/svg">
<path d="M10 10.5C9.44772 10.5 9 10.9477 9 11.5C9 12.0523 9.44772 12.5 10 12.5H14C14.5523 12.5 15 12.0523 15 11.5C15 10.9477 14.5523 10.5 14 10.5H10Z" fill="#0A0B0D"/>
<path fill-rule="evenodd" clip-rule="evenodd" d="M2 7C2 7.93192 2.63739 8.71497 3.5 8.93699V19C3.5 20.1046 4.39543 21 5.5 21H18.5C19.6046 21 20.5 20.1046 20.5 19V8.93699C21.3626 8.71497 22 7.93192 22 7V5C22 3.89543 21.1046 3 20 3H4C2.89543 3 2 3.89543 2 5V7ZM20 5H4V7H20V5ZM5.5 19V9H18.5V19H5.5Z" fill="#0A0B0D"/>
</svg>
