<svg width="24" height="24" viewBox="0 0 24 24" fill="none" xmlns="http://www.w3.org/2000/svg">
<path fill-rule="evenodd" clip-rule="evenodd" d="M20.7657 8.18414C21.9372 7.01257 21.9372 5.11307 20.7657 3.9415L20.0586 3.23439C18.887 2.06282 16.9875 2.06282 15.8159 3.23439L4.42918 14.6211C4.0155 15.0348 3.7318 15.5604 3.613 16.1333L2.80934 20.0085C2.6632 20.7131 3.28689 21.3368 3.99156 21.1907L7.86679 20.387C8.43964 20.2682 8.96525 19.9845 9.37893 19.5709L20.7657 8.18414ZM19.3514 5.35571L18.6443 4.64861C18.2538 4.25808 17.6206 4.25808 17.2301 4.64861L16.1694 5.7093L18.2908 7.83062L19.3514 6.76993C19.742 6.3794 19.742 5.74624 19.3514 5.35571ZM16.8765 9.24483L14.7552 7.12351L5.84339 16.0353C5.7055 16.1732 5.61093 16.3484 5.57133 16.5394L5.077 18.923L7.46067 18.4287C7.65162 18.3891 7.82682 18.2945 7.96472 18.1567L16.8765 9.24483Z" fill="#0A0B0D"/>
</svg>
