<svg width="24" height="24" viewBox="0 0 24 24" fill="none" xmlns="http://www.w3.org/2000/svg">
<path d="M12 6C12.5523 6 13 6.44772 13 7V14C13 14.5523 12.5523 15 12 15C11.4477 15 11 14.5523 11 14V7C11 6.44772 11.4477 6 12 6Z" fill="#0A0B0D"/>
<path d="M13 17C13 17.5523 12.5523 18 12 18C11.4477 18 11 17.5523 11 17C11 16.4477 11.4477 16 12 16C12.5523 16 13 16.4477 13 17Z" fill="#0A0B0D"/>
<path fill-rule="evenodd" clip-rule="evenodd" d="M6.97919 2.87868C7.54179 2.31607 8.30486 2 9.1005 2H14.8995C15.6951 2 16.4582 2.31607 17.0208 2.87868L21.1213 6.97918C21.6839 7.54179 22 8.30486 22 9.1005L22 14.8995C22 15.6951 21.6839 16.4582 21.1213 17.0208L17.0208 21.1213C16.4582 21.6839 15.6951 22 14.8995 22L9.10051 22C8.30486 22 7.54179 21.6839 6.97918 21.1213L2.87868 17.0208C2.31607 16.4582 2 15.6951 2 14.8995V9.10051C2 8.30486 2.31607 7.54179 2.87868 6.97918L6.97919 2.87868ZM9.1005 4L14.8995 4C15.1647 4 15.4191 4.10536 15.6066 4.29289L19.7071 8.3934C19.8946 8.58093 20 8.83529 20 9.1005L20 14.8995C20 15.1647 19.8946 15.4191 19.7071 15.6066L15.6066 19.7071C15.4191 19.8946 15.1647 20 14.8995 20L9.10051 20C8.83529 20 8.58093 19.8946 8.3934 19.7071L4.29289 15.6066C4.10536 15.4191 4 15.1647 4 14.8995L4 9.10051C4 8.83529 4.10536 8.58093 4.29289 8.3934L8.3934 4.29289C8.58094 4.10536 8.83529 4 9.1005 4Z" fill="#0A0B0D"/>
</svg>
