<svg width="24" height="24" viewBox="0 0 24 24" fill="none" xmlns="http://www.w3.org/2000/svg">
<path fill-rule="evenodd" clip-rule="evenodd" d="M21.6644 9.75259L12.6644 1.75259C12.2855 1.4158 11.7145 1.4158 11.3356 1.75259L2.33565 9.75259C1.92286 10.1195 1.88568 10.7516 2.2526 11.1644C2.57359 11.5255 3.0975 11.5991 3.5 11.3663V18C3.5 20.2091 5.29086 22 7.5 22H16.5C18.7091 22 20.5 20.2091 20.5 18V11.3662C20.9025 11.5991 21.4264 11.5255 21.7474 11.1644C22.1143 10.7516 22.0772 10.1195 21.6644 9.75259ZM18.5 9.61572L12 3.83796L5.5 9.61574V18C5.5 19.1046 6.39543 20 7.5 20H8V16C8 14.3431 9.34315 13 11 13H13C14.6569 13 16 14.3431 16 16V20H16.5C17.6046 20 18.5 19.1046 18.5 18V9.61572ZM14 20H10V16C10 15.4477 10.4477 15 11 15H13C13.5523 15 14 15.4477 14 16V20Z" fill="#0A0B0D"/>
</svg>
