<svg width="24" height="24" viewBox="0 0 24 24" fill="none" xmlns="http://www.w3.org/2000/svg">
<path d="M16.5858 13L13.2929 9.70711C12.9024 9.31658 12.9024 8.68342 13.2929 8.29289C13.6834 7.90237 14.3166 7.90237 14.7071 8.29289L20.0607 13.6464C20.2559 13.8417 20.2559 14.1583 20.0607 14.3536L14.7071 19.7071C14.3166 20.0976 13.6834 20.0976 13.2929 19.7071C12.9024 19.3166 12.9024 18.6834 13.2929 18.2929L16.5858 15H8C5.79086 15 4 13.2091 4 11V5C4 4.44771 4.44771 4 5 4C5.55229 4 6 4.44771 6 5V11C6 12.1046 6.89543 13 8 13H16.5858Z" fill="#0A0B0D"/>
</svg>
