<svg width="24" height="24" viewBox="0 0 24 24" fill="none" xmlns="http://www.w3.org/2000/svg">
<path d="M5 15C5 14.4477 5.44772 14 6 14H10C10.5523 14 11 14.4477 11 15C11 15.5523 10.5523 16 10 16H6C5.44772 16 5 15.5523 5 15Z" fill="#0A0B0D"/>
<path fill-rule="evenodd" clip-rule="evenodd" d="M2 7C2 5.34315 3.34315 4 5 4H19C20.6569 4 22 5.34315 22 7V17C22 18.6569 20.6569 20 19 20H5C3.34315 20 2 18.6569 2 17V7ZM5 6H19C19.5523 6 20 6.44771 20 7V8H4V7C4 6.44772 4.44772 6 5 6ZM20 10V17C20 17.5523 19.5523 18 19 18H5C4.44772 18 4 17.5523 4 17V10H20Z" fill="#0A0B0D"/>
</svg>
