<svg width="24" height="24" viewBox="0 0 24 24" fill="none" xmlns="http://www.w3.org/2000/svg">
<path d="M15.7071 7.20706C15.3166 7.59758 14.6834 7.59758 14.2929 7.20706L13 5.91417V15.5C13 16.0522 12.5523 16.5 12 16.5C11.4477 16.5 11 16.0522 11 15.5V5.91417L9.70711 7.20706C9.31658 7.59758 8.68342 7.59758 8.29289 7.20706C7.90237 6.81654 7.90237 6.18337 8.29289 5.79285L11.6464 2.43929C11.8417 2.24403 12.1583 2.24403 12.3536 2.43929L15.7071 5.79285C16.0976 6.18337 16.0976 6.81654 15.7071 7.20706Z" fill="#0A0B0D"/>
<path d="M18 8.49996C20.2091 8.49996 22 10.2908 22 12.5V17.5C22 19.7091 20.2091 21.5 18 21.5H6C3.79086 21.5 2 19.7091 2 17.5V12.5C2 10.2908 3.79086 8.49996 6 8.49996H8C8.55229 8.49996 9 8.94767 9 9.49996C9 10.0522 8.55229 10.5 8 10.5H6C4.89543 10.5 4 11.3954 4 12.5V17.5C4 18.6045 4.89543 19.5 6 19.5H18C19.1046 19.5 20 18.6045 20 17.5V12.5C20 11.3954 19.1046 10.5 18 10.5H16C15.4477 10.5 15 10.0522 15 9.49996C15 8.94767 15.4477 8.49996 16 8.49996H18Z" fill="#0A0B0D"/>
</svg>
