<svg width="24" height="24" viewBox="0 0 24 24" fill="none" xmlns="http://www.w3.org/2000/svg">
<path fill-rule="evenodd" clip-rule="evenodd" d="M6 5C6 3.34315 7.34315 2 9 2H19C20.6569 2 22 3.34315 22 5V18.5C22 20.1569 20.6569 21.5 19 21.5H5C3.34315 21.5 2 20.1569 2 18.5V14C2 12.3431 3.34315 11 5 11H6V5ZM6 13H5C4.44772 13 4 13.4477 4 14V18.5C4 19.0523 4.44772 19.5 5 19.5H6V13ZM8 19.5H19C19.5523 19.5 20 19.0523 20 18.5V5C20 4.44772 19.5523 4 19 4H9C8.44772 4 8 4.44772 8 5V19.5ZM9.5 8.5C9.5 7.94772 9.94772 7.5 10.5 7.5H16C16.5523 7.5 17 7.94772 17 8.5C17 9.05228 16.5523 9.5 16 9.5H10.5C9.94772 9.5 9.5 9.05228 9.5 8.5ZM9.5 12C9.5 11.4477 9.94772 11 10.5 11H18C18.5523 11 19 11.4477 19 12C19 12.5523 18.5523 13 18 13H10.5C9.94772 13 9.5 12.5523 9.5 12ZM10 15.5C10 14.9477 10.4477 14.5 11 14.5H16C16.5523 14.5 17 14.9477 17 15.5C17 16.0523 16.5523 16.5 16 16.5H11C10.4477 16.5 10 16.0523 10 15.5Z" fill="#0A0B0D"/>
</svg>
