<svg width="24" height="24" viewBox="0 0 24 24" fill="none" xmlns="http://www.w3.org/2000/svg">
<path d="M15.9666 11.4475C16.3518 11.0517 16.3433 10.4186 15.9475 10.0334C15.5517 9.64819 14.9186 9.65675 14.5334 10.0525L11.2737 13.4017L9.87547 12.2809C9.44455 11.9354 8.81519 12.0047 8.46976 12.4356C8.12432 12.8666 8.19362 13.4959 8.62454 13.8414L11.0857 15.8143C11.2866 15.9754 11.5771 15.9575 11.7567 15.7729L15.9666 11.4475Z" fill="#0A0B0D"/>
<path fill-rule="evenodd" clip-rule="evenodd" d="M7 2C5.34315 2 4 3.34315 4 5V19C4 20.6569 5.34315 22 7 22H17C18.6569 22 20 20.6569 20 19V7.24264C20 6.44699 19.6839 5.68393 19.1213 5.12132L16.8787 2.87868C16.3161 2.31607 15.553 2 14.7574 2H7ZM7 4H14V6.9C14 7.50751 14.4925 8 15.1 8H18V19C18 19.5523 17.5523 20 17 20H7C6.44772 20 6 19.5523 6 19V5C6 4.44772 6.44771 4 7 4ZM16 4.82843L17.1716 6H16V4.82843Z" fill="#0A0B0D"/>
</svg>
