<svg width="24" height="24" viewBox="0 0 24 24" fill="none" xmlns="http://www.w3.org/2000/svg">
<path d="M10.5 17C9.94772 17 9.5 17.4477 9.5 18C9.5 18.5523 9.94772 19 10.5 19H13.5C14.0523 19 14.5 18.5523 14.5 18C14.5 17.4477 14.0523 17 13.5 17H10.5Z" fill="#0A0B0D"/>
<path fill-rule="evenodd" clip-rule="evenodd" d="M5.5 5C5.5 3.34315 6.84315 2 8.5 2H15.5C17.1569 2 18.5 3.34315 18.5 5V19C18.5 20.6569 17.1569 22 15.5 22H8.5C6.84315 22 5.5 20.6569 5.5 19V5ZM8.5 4H15.5C16.0523 4 16.5 4.44772 16.5 5V19C16.5 19.5523 16.0523 20 15.5 20H8.5C7.94772 20 7.5 19.5523 7.5 19V5C7.5 4.44772 7.94771 4 8.5 4Z" fill="#0A0B0D"/>
</svg>
