<svg width="24" height="24" viewBox="0 0 24 24" fill="none" xmlns="http://www.w3.org/2000/svg">
<path d="M8 10.5C8.82843 10.5 9.5 9.82843 9.5 9C9.5 8.17157 8.82843 7.5 8 7.5C7.17157 7.5 6.5 8.17157 6.5 9C6.5 9.82843 7.17157 10.5 8 10.5Z" fill="#0A0B0D"/>
<path fill-rule="evenodd" clip-rule="evenodd" d="M5.75 2.75C4.09315 2.75 2.75 4.09315 2.75 5.75V18.25C2.75 19.9069 4.09315 21.25 5.75 21.25H18.25C19.9069 21.25 21.25 19.9069 21.25 18.25V5.75C21.25 4.09315 19.9069 2.75 18.25 2.75H5.75ZM18.25 4.75H5.75C5.19772 4.75 4.75 5.19772 4.75 5.75V13.5181L7.24877 11.9804C7.41506 11.8781 7.62571 11.8819 7.78817 11.9902L10.455 13.7681L14.6931 10.4719C14.8736 10.3315 15.1264 10.3315 15.307 10.4719L19.25 13.5387V5.75C19.25 5.19772 18.8023 4.75 18.25 4.75ZM4.75 18.25V15.8665L7.47845 14.1875L10.545 16.2319L15 12.7669L19.25 16.0724V18.25C19.25 18.8023 18.8023 19.25 18.25 19.25H5.75C5.19771 19.25 4.75 18.8023 4.75 18.25Z" fill="#0A0B0D"/>
</svg>
