<svg width="24" height="24" viewBox="0 0 24 24" fill="none" xmlns="http://www.w3.org/2000/svg">
<path d="M10.9394 10.5251C10.5489 10.1346 9.91569 10.1346 9.52517 10.5251C9.13464 10.9157 9.13464 11.5488 9.52517 11.9393L10.5858 13L9.52517 14.0607C9.13464 14.4512 9.13464 15.0843 9.52517 15.4749C9.91569 15.8654 10.5489 15.8654 10.9394 15.4749L12 14.4142L13.0607 15.4749C13.4512 15.8654 14.0844 15.8654 14.4749 15.4749C14.8654 15.0843 14.8654 14.4512 14.4749 14.0607L13.4143 13L14.4749 11.9393C14.8654 11.5488 14.8654 10.9157 14.4749 10.5251C14.0844 10.1346 13.4512 10.1346 13.0607 10.5251L12 11.5858L10.9394 10.5251Z" fill="#0A0B0D"/>
<path fill-rule="evenodd" clip-rule="evenodd" d="M8 4C8 2.89543 8.89543 2 10 2H14C15.1046 2 16 2.89543 16 4H17C18.6569 4 20 5.34315 20 7V19C20 20.6569 18.6569 22 17 22H7C5.34315 22 4 20.6569 4 19V7C4 5.34315 5.34315 4 7 4L8 4ZM10 4H14V6H10V4ZM16 6C16 7.10457 15.1046 8 14 8H10C8.89543 8 8 7.10457 8 6H7C6.44772 6 6 6.44772 6 7V19C6 19.5523 6.44772 20 7 20H17C17.5523 20 18 19.5523 18 19V7C18 6.44772 17.5523 6 17 6H16Z" fill="#0A0B0D"/>
</svg>
