<svg width="24" height="24" viewBox="0 0 24 24" fill="none" xmlns="http://www.w3.org/2000/svg">
<path d="M13.7071 2.70711C14.0976 2.31658 14.0976 1.68342 13.7071 1.29289C13.3166 0.902369 12.6834 0.902369 12.2929 1.29289L9.43934 4.14645C9.24408 4.34171 9.24408 4.65829 9.43934 4.85355L12.2929 7.70711C12.6834 8.09763 13.3166 8.09763 13.7071 7.70711C14.0976 7.31658 14.0976 6.68342 13.7071 6.29289L12.9826 5.56843C16.3834 6.04617 19 8.96751 19 12.5C19 16.366 15.866 19.5 12 19.5C8.13401 19.5 5 16.366 5 12.5C5 10.2899 6.02312 8.31937 7.62547 7.03488C8.05639 6.68944 8.12569 6.06008 7.78025 5.62916C7.43481 5.19824 6.80545 5.12894 6.37453 5.47438C4.31903 7.12213 3 9.65737 3 12.5C3 17.4706 7.02944 21.5 12 21.5C16.9706 21.5 21 17.4706 21 12.5C21 7.82377 17.4336 3.98051 12.8725 3.54175L13.7071 2.70711Z" fill="#0A0B0D"/>
</svg>
