<svg width="24" height="24" viewBox="0 0 24 24" fill="none" xmlns="http://www.w3.org/2000/svg">
<path fill-rule="evenodd" clip-rule="evenodd" d="M16.5 6.5C16.5 8.98528 14.4853 11 12 11C9.51472 11 7.5 8.98528 7.5 6.5C7.5 4.01472 9.51472 2 12 2C14.4853 2 16.5 4.01472 16.5 6.5ZM14.5 6.5C14.5 7.88071 13.3807 9 12 9C10.6193 9 9.5 7.88071 9.5 6.5C9.5 5.11929 10.6193 4 12 4C13.3807 4 14.5 5.11929 14.5 6.5Z" fill="#0A0B0D"/>
<path d="M15.6687 14.263C15.1694 14.0925 14.634 14 14.0769 14H9.92308C7.20414 14 5 16.2041 5 18.9231C5 18.9656 5.03444 19 5.07692 19H13C13.5523 19 14 19.4477 14 20C14 20.5523 13.5523 21 13 21H5.07692C3.92987 21 3 20.0701 3 18.9231C3 15.0996 6.09957 12 9.92308 12H14.0769C15.0066 12 15.8935 12.1832 16.7034 12.5156C17.1867 12.7139 17.355 13.2899 17.1214 13.7572C16.8626 14.2748 16.2163 14.45 15.6687 14.263Z" fill="#0A0B0D"/>
<path d="M16.0251 16.0251C16.4157 15.6346 17.0488 15.6346 17.4393 16.0251L18.5 17.0858L19.5607 16.0251C19.9512 15.6346 20.5844 15.6346 20.9749 16.0251C21.3654 16.4157 21.3654 17.0488 20.9749 17.4393L19.9142 18.5L20.9749 19.5607C21.3654 19.9512 21.3654 20.5843 20.9749 20.9749C20.5844 21.3654 19.9512 21.3654 19.5607 20.9749L18.5 19.9142L17.4393 20.9749C17.0488 21.3654 16.4157 21.3654 16.0251 20.9749C15.6346 20.5843 15.6346 19.9512 16.0251 19.5607L17.0858 18.5L16.0251 17.4393C15.6346 17.0488 15.6346 16.4157 16.0251 16.0251Z" fill="#0A0B0D"/>
</svg>
