<svg width="24" height="24" viewBox="0 0 24 24" fill="none" xmlns="http://www.w3.org/2000/svg">
<path d="M18.2929 10.7071C18.6834 11.0976 19.3166 11.0976 19.7071 10.7071C20.0976 10.3166 20.0976 9.68343 19.7071 9.29291L14.7117 4.29745C14.7086 4.29439 14.7056 4.29135 14.7025 4.28833L14.3536 3.93935C14.1583 3.74409 13.8417 3.74409 13.6464 3.93935L13.2975 4.28833C13.2944 4.29135 13.2914 4.29439 13.2883 4.29745L8.29289 9.29291C7.90237 9.68343 7.90237 10.3166 8.29289 10.7071C8.68342 11.0976 9.31658 11.0976 9.70711 10.7071L13 7.41423V16C13 17.1046 12.1046 18 11 18H5C4.44771 18 4 18.4477 4 19C4 19.5523 4.44771 20 5 20H11C13.2091 20 15 18.2091 15 16V7.41423L18.2929 10.7071Z" fill="#0A0B0D"/>
</svg>
