<svg width="24" height="24" viewBox="0 0 24 24" fill="none" xmlns="http://www.w3.org/2000/svg">
<path d="M15.5355 10.9999C16.0878 10.9999 16.5355 11.4477 16.5355 11.9999C16.5355 12.5522 16.0878 12.9999 15.5355 12.9999L8.46449 13C7.91221 13 7.4645 12.5523 7.4645 12C7.46451 11.4477 7.91223 11 8.46451 11L15.5355 10.9999Z" fill="#0A0B0D"/>
<path fill-rule="evenodd" clip-rule="evenodd" d="M22 12C22 17.5228 17.5228 22 12 22C6.47715 22 2 17.5228 2 12C2 6.47715 6.47715 2 12 2C17.5228 2 22 6.47715 22 12ZM20 12C20 16.4183 16.4183 20 12 20C7.58172 20 4 16.4183 4 12C4 7.58172 7.58172 4 12 4C16.4183 4 20 7.58172 20 12Z" fill="#0A0B0D"/>
</svg>
