<svg width="24" height="24" viewBox="0 0 24 24" fill="none" xmlns="http://www.w3.org/2000/svg">
<path d="M9.5 12.5C8.94772 12.5 8.5 12.9477 8.5 13.5C8.5 14.0523 8.94772 14.5 9.5 14.5H14.5C15.0523 14.5 15.5 14.0523 15.5 13.5C15.5 12.9477 15.0523 12.5 14.5 12.5H9.5Z" fill="#0A0B0D"/>
<path fill-rule="evenodd" clip-rule="evenodd" d="M10.8787 4.87868L12 6H19C20.6569 6 22 7.34315 22 9V17.5C22 19.1569 20.6569 20.5 19 20.5H5C3.34315 20.5 2 19.1569 2 17.5V7C2 5.34315 3.34315 4 5 4H8.75736C9.55301 4 10.3161 4.31607 10.8787 4.87868ZM9.46447 6.29289L11.1716 8H19C19.5523 8 20 8.44772 20 9V17.5C20 18.0523 19.5523 18.5 19 18.5H5C4.44772 18.5 4 18.0523 4 17.5V7C4 6.44772 4.44772 6 5 6H8.75736C9.02258 6 9.27693 6.10536 9.46447 6.29289Z" fill="#0A0B0D"/>
</svg>
