<svg width="24" height="24" viewBox="0 0 24 24" fill="none" xmlns="http://www.w3.org/2000/svg">
<path fill-rule="evenodd" clip-rule="evenodd" d="M12 11C14.4853 11 16.5 8.98528 16.5 6.5C16.5 4.01472 14.4853 2 12 2C9.51472 2 7.5 4.01472 7.5 6.5C7.5 8.98528 9.51472 11 12 11ZM12 9C13.3807 9 14.5 7.88071 14.5 6.5C14.5 5.11929 13.3807 4 12 4C10.6193 4 9.5 5.11929 9.5 6.5C9.5 7.88071 10.6193 9 12 9Z" fill="#0A0B0D"/>
<path d="M14.0769 14C16.1827 14 17.9797 15.3221 18.6831 17.1815C18.8578 17.6434 19.2711 18 19.7649 18C20.3866 18 20.8713 17.4481 20.6858 16.8548C19.8062 14.0415 17.18 12 14.0769 12H9.92308C6.09957 12 3 15.0996 3 18.9231C3 20.0701 3.92987 21 5.07692 21H13C13.5523 21 14 20.5523 14 20C14 19.4477 13.5523 19 13 19H5.07692C5.03444 19 5 18.9656 5 18.9231C5 16.2041 7.20414 14 9.92308 14H14.0769Z" fill="#0A0B0D"/>
<path d="M16 19C15.4477 19 15 19.4477 15 20C15 20.5523 15.4477 21 16 21H21C21.5523 21 22 20.5523 22 20C22 19.4477 21.5523 19 21 19H16Z" fill="#0A0B0D"/>
</svg>
