<svg width="24" height="24" viewBox="0 0 24 24" fill="none" xmlns="http://www.w3.org/2000/svg">
<path fill-rule="evenodd" clip-rule="evenodd" d="M8 6C8 3.79086 9.79086 2 12 2C14.2091 2 16 3.79086 16 6V12C16 14.2091 14.2091 16 12 16C9.79086 16 8 14.2091 8 12V6ZM14 6V12C14 13.1046 13.1046 14 12 14C10.8954 14 10 13.1046 10 12V6C10 4.89543 10.8954 4 12 4C13.1046 4 14 4.89543 14 6Z" fill="#0A0B0D"/>
<path d="M7.5 11.5C7.5 10.9477 7.05228 10.5 6.5 10.5C5.94772 10.5 5.5 10.9477 5.5 11.5V12C5.5 15.2498 7.88491 17.9425 11 18.4236V20H9C8.44772 20 8 20.4477 8 21C8 21.5523 8.44772 22 9 22H15C15.5523 22 16 21.5523 16 21C16 20.4477 15.5523 20 15 20H13V18.4236C16.1151 17.9425 18.5 15.2498 18.5 12V11.5C18.5 10.9477 18.0523 10.5 17.5 10.5C16.9477 10.5 16.5 10.9477 16.5 11.5V12C16.5 14.4853 14.4853 16.5 12 16.5C9.51472 16.5 7.5 14.4853 7.5 12V11.5Z" fill="#0A0B0D"/>
</svg>
