<svg width="24" height="24" viewBox="0 0 24 24" fill="none" xmlns="http://www.w3.org/2000/svg">
<path d="M10.5 4C10.5 3.44772 10.0523 3 9.5 3C8.94772 3 8.5 3.44772 8.5 4V20C8.5 20.5523 8.94772 21 9.5 21C10.0523 21 10.5 20.5523 10.5 20V4Z" fill="#0A0B0D"/>
<path d="M5.5 12C5.5 11.4477 5.05228 11 4.5 11C3.94772 11 3.5 11.4477 3.5 12V20C3.5 20.5523 3.94772 21 4.5 21C5.05228 21 5.5 20.5523 5.5 20V12Z" fill="#0A0B0D"/>
<path d="M14.5 6C15.0523 6 15.5 6.44772 15.5 7V20C15.5 20.5523 15.0523 21 14.5 21C13.9477 21 13.5 20.5523 13.5 20V7C13.5 6.44772 13.9477 6 14.5 6Z" fill="#0A0B0D"/>
<path d="M20.5 10C20.5 9.44772 20.0523 9 19.5 9C18.9477 9 18.5 9.44772 18.5 10V20C18.5 20.5523 18.9477 21 19.5 21C20.0523 21 20.5 20.5523 20.5 20V10Z" fill="#0A0B0D"/>
</svg>
