<svg width="24" height="24" viewBox="0 0 24 24" fill="none" xmlns="http://www.w3.org/2000/svg">
<path fill-rule="evenodd" clip-rule="evenodd" d="M12 11C14.4853 11 16.5 8.98528 16.5 6.5C16.5 4.01472 14.4853 2 12 2C9.51472 2 7.5 4.01472 7.5 6.5C7.5 8.98528 9.51472 11 12 11ZM12 9C13.3807 9 14.5 7.88071 14.5 6.5C14.5 5.11929 13.3807 4 12 4C10.6193 4 9.5 5.11929 9.5 6.5C9.5 7.88071 10.6193 9 12 9Z" fill="#0A0B0D"/>
<path d="M14.0769 14C15.0772 14 16.0078 14.2983 16.7846 14.8108C17.2456 15.115 17.8746 15.1254 18.2652 14.7348C18.6557 14.3443 18.6593 13.7043 18.2169 13.3737C17.0622 12.5109 15.6292 12 14.0769 12H9.92308C6.09957 12 3 15.0996 3 18.9231C3 20.0701 3.92987 21 5.07692 21H12C12.5523 21 13 20.5523 13 20C13 19.4477 12.5523 19 12 19H5.07692C5.03444 19 5 18.9656 5 18.9231C5 16.2041 7.20414 14 9.92308 14H14.0769Z" fill="#0A0B0D"/>
<path d="M22.0015 15.6597C22.3659 15.2446 22.3248 14.6128 21.9097 14.2485C21.4946 13.8841 20.8628 13.9253 20.4985 14.3403L17.1769 18.1243L15.7225 16.9674C15.2903 16.6236 14.6612 16.6953 14.3174 17.1275C13.9736 17.5597 14.0452 18.1888 14.4775 18.5326L17.0502 20.5792C17.2589 20.7452 17.5613 20.7182 17.7372 20.5177L22.0015 15.6597Z" fill="#0A0B0D"/>
</svg>
