<svg width="24" height="24" viewBox="0 0 24 24" fill="none" xmlns="http://www.w3.org/2000/svg">
<path d="M12.2929 6.70711C11.9023 6.31658 11.9023 5.68342 12.2929 5.29289C12.6834 4.90237 13.3166 4.90237 13.7071 5.29289L19.7025 11.2883C19.7056 11.2914 19.7086 11.2944 19.7117 11.2975L20.0606 11.6464C20.2559 11.8417 20.2559 12.1583 20.0606 12.3536L19.7117 12.7025C19.7086 12.7056 19.7056 12.7086 19.7025 12.7117L13.7071 18.7071C13.3166 19.0976 12.6834 19.0976 12.2929 18.7071C11.9023 18.3166 11.9023 17.6834 12.2929 17.2929L16.5858 13H5C4.44771 13 4 12.5523 4 12C4 11.4477 4.44771 11 5 11H16.5858L12.2929 6.70711Z" fill="#0A0B0D"/>
</svg>
