<svg width="24" height="24" viewBox="0 0 24 24" fill="none" xmlns="http://www.w3.org/2000/svg">
<path d="M5.79289 6.70711C5.40237 6.31658 5.40237 5.68342 5.79289 5.29289C6.18342 4.90237 6.81658 4.90237 7.20711 5.29289L13.5607 11.6464C13.7559 11.8417 13.7559 12.1583 13.5607 12.3536L7.20711 18.7071C6.81658 19.0976 6.18342 19.0976 5.79289 18.7071C5.40237 18.3166 5.40237 17.6834 5.79289 17.2929L11.0858 12L5.79289 6.70711Z" fill="#0A0B0D"/>
<path d="M11.7929 6.70711C11.4024 6.31658 11.4024 5.68342 11.7929 5.29289C12.1834 4.90237 12.8166 4.90237 13.2071 5.29289L19.5607 11.6464C19.7559 11.8417 19.7559 12.1583 19.5607 12.3536L13.2071 18.7071C12.8166 19.0976 12.1834 19.0976 11.7929 18.7071C11.4024 18.3166 11.4024 17.6834 11.7929 17.2929L17.0858 12L11.7929 6.70711Z" fill="#0A0B0D"/>
</svg>
