<svg width="24" height="24" viewBox="0 0 24 24" fill="none" xmlns="http://www.w3.org/2000/svg">
<path fill-rule="evenodd" clip-rule="evenodd" d="M14.7847 16.1988C11.6462 18.6414 7.10654 18.4202 4.22181 15.5355C1.09761 12.4113 1.09761 7.346 4.22181 4.22181C7.346 1.09761 12.4113 1.09761 15.5355 4.22181C18.4202 7.10653 18.6414 11.6462 16.1989 14.7846L20.4853 19.0711C20.8758 19.4616 20.8758 20.0948 20.4853 20.4853C20.0948 20.8758 19.4616 20.8758 19.0711 20.4853L14.7847 16.1988ZM5.63602 14.1213C7.97917 16.4644 11.7782 16.4644 14.1213 14.1213C16.4644 11.7782 16.4644 7.97917 14.1213 5.63602C11.7782 3.29288 7.97917 3.29288 5.63602 5.63602C3.29288 7.97917 3.29288 11.7782 5.63602 14.1213Z" fill="#0A0B0D"/>
</svg>
