<svg width="24" height="24" viewBox="0 0 24 24" fill="none" xmlns="http://www.w3.org/2000/svg">
<path fill-rule="evenodd" clip-rule="evenodd" d="M21 6C21 7.933 19.433 9.5 17.5 9.5C16.5382 9.5 15.6669 9.11202 15.0343 8.48402L9.92406 11.2714C9.97382 11.5064 10 11.7502 10 12C10 12.2498 9.97382 12.4936 9.92406 12.7286L15.0343 15.516C15.6669 14.888 16.5382 14.5 17.5 14.5C19.433 14.5 21 16.067 21 18C21 19.933 19.433 21.5 17.5 21.5C15.567 21.5 14 19.933 14 18C14 17.7502 14.0262 17.5064 14.0759 17.2714L8.9657 14.484C8.33307 15.112 7.46184 15.5 6.5 15.5C4.567 15.5 3 13.933 3 12C3 10.067 4.567 8.5 6.5 8.5C7.46184 8.5 8.33307 8.88799 8.9657 9.51599L14.0759 6.72859C14.0262 6.49357 14 6.24984 14 6C14 4.067 15.567 2.5 17.5 2.5C19.433 2.5 21 4.067 21 6ZM19 6C19 6.82843 18.3284 7.5 17.5 7.5C16.6716 7.5 16 6.82843 16 6C16 5.17157 16.6716 4.5 17.5 4.5C18.3284 4.5 19 5.17157 19 6ZM19 18C19 18.8284 18.3284 19.5 17.5 19.5C16.6716 19.5 16 18.8284 16 18C16 17.1716 16.6716 16.5 17.5 16.5C18.3284 16.5 19 17.1716 19 18ZM6.5 13.5C7.32843 13.5 8 12.8284 8 12C8 11.1716 7.32843 10.5 6.5 10.5C5.67157 10.5 5 11.1716 5 12C5 12.8284 5.67157 13.5 6.5 13.5Z" fill="#0A0B0D"/>
</svg>
