<svg width="24" height="24" viewBox="0 0 24 24" fill="none" xmlns="http://www.w3.org/2000/svg">
<path fill-rule="evenodd" clip-rule="evenodd" d="M4 7C3.44772 7 3 7.44772 3 8V8.39445C3 8.59187 3.05844 8.78488 3.16795 8.94915L4.09245 10.3359C4.76425 11.3436 4.76425 12.6564 4.09245 13.6641L3.16795 15.0509C3.05844 15.2151 3 15.4081 3 15.6056V16C3 16.5523 3.44772 17 4 17H14.5V16C14.5 15.4477 14.9477 15 15.5 15C16.0523 15 16.5 15.4477 16.5 16V17H20C20.5523 17 21 16.5523 21 16V15.6056C21 15.4081 20.9416 15.2151 20.8321 15.0509L19.9076 13.6641C19.2358 12.6564 19.2358 11.3436 19.9075 10.3359L20.8321 8.94915C20.9416 8.78488 21 8.59187 21 8.39445V8C21 7.44772 20.5523 7 20 7H16.5V8C16.5 8.55228 16.0523 9 15.5 9C14.9477 9 14.5 8.55228 14.5 8V7H4ZM20 19C21.6569 19 23 17.6569 23 16V15.6056C23 15.0133 22.8247 14.4343 22.4962 13.9415L21.5716 12.5547C21.3477 12.2188 21.3477 11.7812 21.5716 11.4453L22.4962 10.0585C22.8247 9.56575 23 8.98672 23 8.39445V8C23 6.34315 21.6569 5 20 5H4C2.34315 5 1 6.34315 1 8V8.39445C1 8.98672 1.17531 9.56575 1.50385 10.0585L2.42835 11.4453C2.65228 11.7812 2.65228 12.2188 2.42835 12.5547L1.50385 13.9415C1.17531 14.4343 1 15.0133 1 15.6056V16C1 17.6569 2.34315 19 4 19H20ZM15.5 10C16.0523 10 16.5 10.4477 16.5 11V13C16.5 13.5523 16.0523 14 15.5 14C14.9477 14 14.5 13.5523 14.5 13V11C14.5 10.4477 14.9477 10 15.5 10ZM5.5 14.5C5.5 13.9477 5.94772 13.5 6.5 13.5H11C11.5523 13.5 12 13.9477 12 14.5C12 15.0523 11.5523 15.5 11 15.5H6.5C5.94772 15.5 5.5 15.0523 5.5 14.5Z" fill="#0A0B0D"/>
</svg>
