<svg width="24" height="24" viewBox="0 0 24 24" fill="none" xmlns="http://www.w3.org/2000/svg">
<path fill-rule="evenodd" clip-rule="evenodd" d="M16.5 6.5C16.5 8.98528 14.4853 11 12 11C9.51472 11 7.5 8.98528 7.5 6.5C7.5 4.01472 9.51472 2 12 2C14.4853 2 16.5 4.01472 16.5 6.5ZM14.5 6.5C14.5 7.88071 13.3807 9 12 9C10.6193 9 9.5 7.88071 9.5 6.5C9.5 5.11929 10.6193 4 12 4C13.3807 4 14.5 5.11929 14.5 6.5Z" fill="#0A0B0D"/>
<path fill-rule="evenodd" clip-rule="evenodd" d="M3 18.9231C3 15.0996 6.09957 12 9.92308 12H14.0769C17.9004 12 21 15.0996 21 18.9231C21 20.0701 20.0701 21 18.9231 21H5.07692C3.92987 21 3 20.0701 3 18.9231ZM5 18.9231C5 16.2041 7.20414 14 9.92308 14H14.0769C16.7959 14 19 16.2041 19 18.9231C19 18.9656 18.9656 19 18.9231 19H5.07692C5.03444 19 5 18.9656 5 18.9231Z" fill="#0A0B0D"/>
</svg>
