<svg width="24" height="24" viewBox="0 0 24 24" fill="none" xmlns="http://www.w3.org/2000/svg">
<path d="M14 10.3787C14 10.5113 14.0527 10.6385 14.1464 10.7322L15.5737 12.1595C15.7333 12.3191 16 12.2258 16 12V6C16 3.79086 14.2091 2 12 2C10.3253 2 8.89091 3.02923 8.29496 4.48967C8.22417 4.66315 8.27391 4.85969 8.4064 4.99218L9.58579 6.17157C9.73864 6.32443 10 6.21617 10 6C10 4.89543 10.8954 4 12 4C13.1046 4 14 4.89543 14 6V10.3787Z" fill="#0A0B0D"/>
<path fill-rule="evenodd" clip-rule="evenodd" d="M8 9.41421V12C8 14.2091 9.79086 16 12 16C12.7418 16 13.4365 15.7981 14.032 15.4462L14.3957 15.81C13.702 16.2471 12.8805 16.5 12 16.5C9.51472 16.5 7.5 14.4853 7.5 12V11.5C7.5 10.9477 7.05228 10.5 6.5 10.5C5.94772 10.5 5.5 10.9477 5.5 11.5V12C5.5 15.2498 7.88491 17.9425 11 18.4236V20H9C8.44772 20 8 20.4477 8 21C8 21.5523 8.44772 22 9 22H15C15.5523 22 16 21.5523 16 21C16 20.4477 15.5523 20 15 20H13V18.4236C14.0487 18.2616 15.0146 17.849 15.8347 17.2489L20.2929 21.7071C20.6834 22.0976 21.3166 22.0976 21.7071 21.7071C22.0976 21.3166 22.0976 20.6834 21.7071 20.2929L3.70711 2.29289C3.31658 1.90237 2.68342 1.90237 2.29289 2.29289C1.90237 2.68342 1.90237 3.31658 2.29289 3.70711L8 9.41421ZM12.518 13.9323L10 11.4142V12C10 13.1046 10.8954 14 12 14C12.1792 14 12.3528 13.9764 12.518 13.9323Z" fill="#0A0B0D"/>
<path d="M17.4539 14.0397C17.7039 14.2897 18.1261 14.2069 18.2275 13.8682C18.4048 13.2765 18.5 12.6494 18.5 12V11.5C18.5 10.9477 18.0523 10.5 17.5 10.5C16.9477 10.5 16.5 10.9477 16.5 11.5V12C16.5 12.2414 16.481 12.4784 16.4444 12.7095C16.4177 12.8783 16.4664 13.0522 16.5872 13.173L17.4539 14.0397Z" fill="#0A0B0D"/>
</svg>
