<svg width="24" height="24" viewBox="0 0 24 24" fill="none" xmlns="http://www.w3.org/2000/svg">
<path d="M8.5 10C8.5 9.17157 7.82843 8.5 7 8.5C6.17157 8.5 5.5 9.17157 5.5 10C5.5 10.8284 6.17157 11.5 7 11.5C7.82843 11.5 8.5 10.8284 8.5 10Z" fill="#0A0B0D"/>
<path d="M13.5 10C13.5 9.17157 12.8284 8.5 12 8.5C11.1716 8.5 10.5 9.17157 10.5 10C10.5 10.8284 11.1716 11.5 12 11.5C12.8284 11.5 13.5 10.8284 13.5 10Z" fill="#0A0B0D"/>
<path d="M17 8.5C17.8284 8.5 18.5 9.17157 18.5 10C18.5 10.8284 17.8284 11.5 17 11.5C16.1716 11.5 15.5 10.8284 15.5 10C15.5 9.17157 16.1716 8.5 17 8.5Z" fill="#0A0B0D"/>
<path fill-rule="evenodd" clip-rule="evenodd" d="M2 14.5C2 16.1569 3.34315 17.5 5 17.5H8V20.1958C8 20.9812 8.86395 21.46 9.53 21.0438L15.2 17.5H19C20.6569 17.5 22 16.1569 22 14.5V5.5C22 3.84315 20.6569 2.5 19 2.5H5C3.34315 2.5 2 3.84315 2 5.5V14.5ZM10 18.3915V15.5H5C4.44772 15.5 4 15.0523 4 14.5V5.5C4 4.94772 4.44772 4.5 5 4.5H19C19.5523 4.5 20 4.94772 20 5.5V14.5C20 15.0523 19.5523 15.5 19 15.5H14.6264L10 18.3915Z" fill="#0A0B0D"/>
</svg>
