<svg width="24" height="24" viewBox="0 0 24 24" fill="none" xmlns="http://www.w3.org/2000/svg">
<path d="M16.7071 11.9571C16.3166 12.3477 15.6834 12.3477 15.2929 11.9571L12 8.66424L8.70711 11.9571C8.31658 12.3477 7.68342 12.3477 7.29289 11.9571C6.90237 11.5666 6.90237 10.9334 7.29289 10.5429L11.6464 6.18937C11.8417 5.99411 12.1583 5.99411 12.3536 6.18937L16.7071 10.5429C17.0976 10.9334 17.0976 11.5666 16.7071 11.9571Z" fill="#0A0B0D"/>
<path d="M15.2929 16.9571C15.6834 17.3477 16.3166 17.3477 16.7071 16.9571C17.0976 16.5666 17.0976 15.9334 16.7071 15.5429L12.3536 11.1894C12.1583 10.9941 11.8417 10.9941 11.6464 11.1894L7.29289 15.5429C6.90237 15.9334 6.90237 16.5666 7.29289 16.9571C7.68342 17.3477 8.31658 17.3477 8.70711 16.9571L12 13.6642L15.2929 16.9571Z" fill="#0A0B0D"/>
<path fill-rule="evenodd" clip-rule="evenodd" d="M12 22C17.5228 22 22 17.5228 22 12C22 6.47715 17.5228 2 12 2C6.47715 2 2 6.47715 2 12C2 17.5228 6.47715 22 12 22ZM12 20C16.4183 20 20 16.4183 20 12C20 7.58172 16.4183 4 12 4C7.58172 4 4 7.58172 4 12C4 16.4183 7.58172 20 12 20Z" fill="#0A0B0D"/>
</svg>
