<svg width="24" height="24" viewBox="0 0 24 24" fill="none" xmlns="http://www.w3.org/2000/svg">
<path d="M13.2975 19.7117C13.2944 19.7086 13.2914 19.7056 13.2883 19.7025L8.29289 14.7071C7.90237 14.3166 7.90237 13.6834 8.29289 13.2929C8.68342 12.9023 9.31658 12.9023 9.70711 13.2929L13 16.5858V8C13 6.89543 12.1046 6 11 6H5C4.44771 6 4 5.55229 4 5C4 4.44771 4.44771 4 5 4H11C13.2091 4 15 5.79086 15 8V16.5858L18.2929 13.2929C18.6834 12.9023 19.3166 12.9023 19.7071 13.2929C20.0976 13.6834 20.0976 14.3166 19.7071 14.7071L14.7117 19.7025C14.7086 19.7056 14.7056 19.7086 14.7025 19.7117L14.3536 20.0606C14.1583 20.2559 13.8417 20.2559 13.6464 20.0606L13.2975 19.7117Z" fill="#0A0B0D"/>
</svg>
