<svg width="24" height="24" viewBox="0 0 24 24" fill="none" xmlns="http://www.w3.org/2000/svg">
<path d="M6.05023 6.55024C6.05023 6.2741 6.27409 6.05024 6.55023 6.05024L7.04542 6.05024C7.04861 6.05023 7.05181 6.05023 7.055 6.05024L15.5355 6.05024C16.0878 6.05024 16.5355 6.49796 16.5355 7.05024C16.5355 7.60253 16.0878 8.05024 15.5355 8.05024H9.46444L17.6568 16.2426C18.0473 16.6331 18.0473 17.2663 17.6568 17.6568C17.2663 18.0474 16.6331 18.0474 16.2426 17.6568L8.05023 9.46447V15.5355C8.05023 16.0878 7.60252 16.5355 7.05023 16.5355C6.49795 16.5355 6.05023 16.0878 6.05023 15.5355L6.05023 6.55024Z" fill="#0A0B0D"/>
</svg>
