<svg width="24" height="24" viewBox="0 0 24 24" fill="none" xmlns="http://www.w3.org/2000/svg">
<path d="M9.79289 8.70711C9.40237 8.31658 9.40237 7.68342 9.79289 7.29289C10.1834 6.90237 10.8166 6.90237 11.2071 7.29289L15.5607 11.6464C15.7559 11.8417 15.7559 12.1583 15.5607 12.3536L11.2071 16.7071C10.8166 17.0976 10.1834 17.0976 9.79289 16.7071C9.40237 16.3166 9.40237 15.6834 9.79289 15.2929L13.0858 12L9.79289 8.70711Z" fill="#0A0B0D"/>
<path fill-rule="evenodd" clip-rule="evenodd" d="M22 12C22 17.5228 17.5228 22 12 22C6.47715 22 2 17.5228 2 12C2 6.47715 6.47715 2 12 2C17.5228 2 22 6.47715 22 12ZM20 12C20 16.4183 16.4183 20 12 20C7.58172 20 4 16.4183 4 12C4 7.58172 7.58172 4 12 4C16.4183 4 20 7.58172 20 12Z" fill="#0A0B0D"/>
</svg>
