<svg width="24" height="24" viewBox="0 0 24 24" fill="none" xmlns="http://www.w3.org/2000/svg">
<path fill-rule="evenodd" clip-rule="evenodd" d="M15 12C15 13.6569 13.6569 15 12 15C10.3431 15 9 13.6569 9 12C9 10.3431 10.3431 9 12 9C13.6569 9 15 10.3431 15 12ZM13 12C13 12.5523 12.5523 13 12 13C11.4477 13 11 12.5523 11 12C11 11.4477 11.4477 11 12 11C12.5523 11 13 11.4477 13 12Z" fill="#0A0B0D"/>
<path fill-rule="evenodd" clip-rule="evenodd" d="M12 2C12.5523 2 13 2.44772 13 3V3.5582C16.8952 4.01469 19.9853 7.10482 20.4418 11H21C21.5523 11 22 11.4477 22 12C22 12.5523 21.5523 13 21 13H20.4418C19.9853 16.8952 16.8952 19.9853 13 20.4418V21C13 21.5523 12.5523 22 12 22C11.4477 22 11 21.5523 11 21V20.4418C7.10482 19.9853 4.01469 16.8952 3.5582 13H3C2.44772 13 2 12.5523 2 12C2 11.4477 2.44772 11 3 11H3.5582C4.01469 7.10482 7.10482 4.01469 11 3.5582V3C11 2.44772 11.4477 2 12 2ZM18.4236 11H18C17.4477 11 17 11.4477 17 12C17 12.5523 17.4477 13 18 13H18.4236C17.9929 15.7891 15.7891 17.9929 13 18.4236V18C13 17.4477 12.5523 17 12 17C11.4477 17 11 17.4477 11 18V18.4236C8.21088 17.9929 6.00712 15.7891 5.57645 13H6C6.55228 13 7 12.5523 7 12C7 11.4477 6.55228 11 6 11H5.57645C6.00712 8.21088 8.21088 6.00712 11 5.57645V6C11 6.55228 11.4477 7 12 7C12.5523 7 13 6.55228 13 6V5.57645C15.7891 6.00712 17.9929 8.21088 18.4236 11Z" fill="#0A0B0D"/>
</svg>
