<svg width="24" height="24" viewBox="0 0 24 24" fill="none" xmlns="http://www.w3.org/2000/svg">
<path d="M10 9.75C10.5523 9.75 11 10.1977 11 10.75V16.75C11 17.3023 10.5523 17.75 10 17.75C9.44772 17.75 9 17.3023 9 16.75V10.75C9 10.1977 9.44772 9.75 10 9.75Z" fill="#0A0B0D"/>
<path d="M15 10.75C15 10.1977 14.5523 9.75 14 9.75C13.4477 9.75 13 10.1977 13 10.75V16.75C13 17.3023 13.4477 17.75 14 17.75C14.5523 17.75 15 17.3023 15 16.75V10.75Z" fill="#0A0B0D"/>
<path fill-rule="evenodd" clip-rule="evenodd" d="M18 6V5C18 3.34315 16.6569 2 15 2H9C7.34315 2 6 3.34315 6 5V6H4.5C3.94772 6 3.5 6.44772 3.5 7C3.5 7.55228 3.94772 8 4.5 8H5V19C5 20.6569 6.34315 22 8 22H16C17.6569 22 19 20.6569 19 19V8H19.5C20.0523 8 20.5 7.55228 20.5 7C20.5 6.44772 20.0523 6 19.5 6H18ZM15 4H9C8.44772 4 8 4.44772 8 5V6H16V5C16 4.44772 15.5523 4 15 4ZM17 8H7V19C7 19.5523 7.44772 20 8 20H16C16.5523 20 17 19.5523 17 19V8Z" fill="#0A0B0D"/>
</svg>
