<svg width="24" height="24" viewBox="0 0 24 24" fill="none" xmlns="http://www.w3.org/2000/svg">
<path d="M9.5 12.5001C8.94772 12.5001 8.5 12.9478 8.5 13.5001C8.5 14.0523 8.94772 14.5001 9.5 14.5001H14.5C15.0523 14.5001 15.5 14.0523 15.5 13.5001C15.5 12.9478 15.0523 12.5001 14.5 12.5001H9.5Z" fill="#0A0B0D"/>
<path fill-rule="evenodd" clip-rule="evenodd" d="M11.1139 5.2894C11.5499 4.95033 11.6284 4.32205 11.2894 3.88611C10.9503 3.45016 10.322 3.37162 9.88606 3.71069L5.65689 7.00005H3C2.44772 7.00005 2 7.44776 2 8.00005C2 8.55233 2.44772 9.00005 3 9.00005H3.15964C3.1597 9.0508 3.16168 9.10195 3.16565 9.15344L3.78693 17.2301C3.90716 18.7931 5.21048 20 6.77809 20H17.2219C18.7895 20 20.0928 18.7931 20.2131 17.2301L20.8344 9.15344C20.8383 9.10195 20.8403 9.0508 20.8404 9.00005H21C21.5523 9.00005 22 8.55233 22 8.00005C22 7.44776 21.5523 7.00005 21 7.00005H18.3431L14.1139 3.71069C13.678 3.37162 13.0497 3.45016 12.7106 3.88611C12.3716 4.32205 12.4501 4.95033 12.8861 5.2894L15.0855 7.00005H8.91454L11.1139 5.2894ZM5.15975 9.00005L5.78104 17.0767C5.82112 17.5977 6.25556 18 6.77809 18H17.2219C17.7444 18 18.1789 17.5977 18.219 17.0767L18.8402 9.00005H5.15975Z" fill="#0A0B0D"/>
</svg>
