<svg width="24" height="24" viewBox="0 0 24 24" fill="none" xmlns="http://www.w3.org/2000/svg">
<path fill-rule="evenodd" clip-rule="evenodd" d="M8 17L12.5238 20.8775C13.4968 21.7116 15 21.0202 15 19.7387V4.26132C15 2.97979 13.4968 2.28843 12.5238 3.12244L8 6.99999H6C4.34315 6.99999 3 8.34314 3 9.99999V14C3 15.6568 4.34315 17 6 17H8ZM8.73985 8.99999H6C5.44772 8.99999 5 9.44771 5 9.99999V14C5 14.5523 5.44772 15 6 15H8.73985L13 18.6516V5.34843L8.73985 8.99999Z" fill="#0A0B0D"/>
<path d="M16.5251 9.52513C16.9157 9.1346 17.5488 9.1346 17.9394 9.52513L19 10.5858L20.0607 9.52513C20.4512 9.1346 21.0844 9.1346 21.4749 9.52513C21.8654 9.91565 21.8654 10.5488 21.4749 10.9393L20.4142 12L21.4749 13.0607C21.8654 13.4512 21.8654 14.0843 21.4749 14.4749C21.0844 14.8654 20.4512 14.8654 20.0607 14.4749L19 13.4142L17.9394 14.4749C17.5488 14.8654 16.9157 14.8654 16.5251 14.4749C16.1346 14.0843 16.1346 13.4512 16.5251 13.0607L17.5858 12L16.5251 10.9393C16.1346 10.5488 16.1346 9.91565 16.5251 9.52513Z" fill="#0A0B0D"/>
</svg>
