<svg width="24" height="24" viewBox="0 0 24 24" fill="none" xmlns="http://www.w3.org/2000/svg">
<path d="M17.2929 5.79289C17.6834 5.40237 18.3166 5.40237 18.7071 5.79289C19.0976 6.18342 19.0976 6.81658 18.7071 7.20711L12.3536 13.5607C12.1583 13.7559 11.8417 13.7559 11.6464 13.5607L5.29289 7.20711C4.90237 6.81658 4.90237 6.18342 5.29289 5.79289C5.68342 5.40237 6.31658 5.40237 6.70711 5.79289L12 11.0858L17.2929 5.79289Z" fill="#0A0B0D"/>
<path d="M17.2929 11.7929C17.6834 11.4024 18.3166 11.4024 18.7071 11.7929C19.0976 12.1834 19.0976 12.8166 18.7071 13.2071L12.3536 19.5607C12.1583 19.7559 11.8417 19.7559 11.6464 19.5607L5.29289 13.2071C4.90237 12.8166 4.90237 12.1834 5.29289 11.7929C5.68342 11.4024 6.31658 11.4024 6.70711 11.7929L12 17.0858L17.2929 11.7929Z" fill="#0A0B0D"/>
</svg>
