<svg width="24" height="24" viewBox="0 0 24 24" fill="none" xmlns="http://www.w3.org/2000/svg">
<path fill-rule="evenodd" clip-rule="evenodd" d="M3.70711 2.29289C3.31658 1.90237 2.68342 1.90237 2.29289 2.29289C1.90237 2.68342 1.90237 3.31658 2.29289 3.70711L3.04237 4.45658C2.85495 4.84822 2.75 5.28685 2.75 5.75V18.25C2.75 19.9069 4.09315 21.25 5.75 21.25H18.25C18.7131 21.25 19.1518 21.145 19.5434 20.9576L20.2929 21.7071C20.6834 22.0976 21.3166 22.0976 21.7071 21.7071C22.0976 21.3166 22.0976 20.6834 21.7071 20.2929L3.70711 2.29289ZM17.8358 19.25L12.9484 14.3626L10.545 16.2319L7.47842 14.1875L4.75 15.8665V18.25C4.75 18.8023 5.19772 19.25 5.75 19.25H17.8358ZM11.5231 12.9374L8.83325 10.2475C8.59492 10.407 8.30832 10.5 8 10.5C7.17157 10.5 6.5 9.82843 6.5 9C6.5 8.69168 6.59302 8.40508 6.75254 8.16675L4.75 6.16421V13.5181L7.24874 11.9804C7.41503 11.8781 7.62568 11.8819 7.78814 11.9902L10.455 13.7681L11.5231 12.9374Z" fill="#0A0B0D"/>
<path d="M14.2391 10.8249L20.3964 16.9822C20.7114 17.2972 21.25 17.0741 21.25 16.6287V5.75C21.25 4.09315 19.9069 2.75 18.25 2.75H7.37132C6.92587 2.75 6.70278 3.28857 7.01777 3.60355L8.01777 4.60355C8.11154 4.69732 8.23871 4.75 8.37132 4.75H18.25C18.8023 4.75 19.25 5.19772 19.25 5.75V13.5387L15.307 10.4719C15.1264 10.3315 14.8736 10.3315 14.693 10.4719L14.2391 10.8249Z" fill="#0A0B0D"/>
</svg>
