<svg width="24" height="24" viewBox="0 0 24 24" fill="none" xmlns="http://www.w3.org/2000/svg">
<path fill-rule="evenodd" clip-rule="evenodd" d="M16.75 7C16.75 9.48528 14.7353 11.5 12.25 11.5C9.76472 11.5 7.75 9.48528 7.75 7C7.75 4.51472 9.76472 2.5 12.25 2.5C14.7353 2.5 16.75 4.51472 16.75 7ZM14.75 7C14.75 8.38071 13.6307 9.5 12.25 9.5C10.8693 9.5 9.75 8.38071 9.75 7C9.75 5.61929 10.8693 4.5 12.25 4.5C13.6307 4.5 14.75 5.61929 14.75 7ZM17.0346 15.3108C16.2578 14.7983 15.3272 14.5 14.3269 14.5H10.1731C7.45414 14.5 5.25 16.7041 5.25 19.4231C5.25 19.4656 5.28444 19.5 5.32692 19.5H12.25C12.8023 19.5 13.25 19.9477 13.25 20.5C13.25 21.0523 12.8023 21.5 12.25 21.5H5.32692C4.17987 21.5 3.25 20.5701 3.25 19.4231C3.25 15.5996 6.34957 12.5 10.1731 12.5H14.3269C15.8792 12.5 17.3122 13.0109 18.4669 13.8737C18.9093 14.2043 18.9057 14.8443 18.5152 15.2348C18.1246 15.6254 17.4956 15.615 17.0346 15.3108ZM20.4704 16.0046C20.8432 16.3774 20.8432 16.9818 20.4704 17.3546L16.8472 20.9778C16.7156 21.1094 16.5483 21.1997 16.3661 21.2375L15.133 21.4932C14.9088 21.5397 14.7103 21.3412 14.7568 21.117L15.0125 19.8839C15.0503 19.7017 15.1406 19.5344 15.2722 19.4028L18.8954 15.7796C19.2682 15.4068 19.8726 15.4068 20.2454 15.7796L20.4704 16.0046Z" fill="#0A0B0D"/>
</svg>
