<svg width="24" height="24" viewBox="0 0 24 24" fill="none" xmlns="http://www.w3.org/2000/svg">
<path fill-rule="evenodd" clip-rule="evenodd" d="M14.2929 2.29289C14.6834 1.90237 15.3166 1.90237 15.7071 2.29289C16.0976 2.68342 16.0976 3.31658 15.7071 3.70711L14.4142 5H20C21.1046 5 22 5.89543 22 7V9C22 9.93227 21.3621 10.7156 20.499 10.9372C20.4997 10.9581 20.5 10.979 20.5 11V20C20.5 21.1046 19.6046 22 18.5 22H5.5C4.39543 22 3.5 21.1046 3.5 20V11C3.5 10.979 3.50033 10.9581 3.50097 10.9372C2.63786 10.7156 2 9.93227 2 9V7C2 5.89543 2.89543 5 4 5H9.58579L8.29289 3.70711C7.90237 3.31658 7.90237 2.68342 8.29289 2.29289C8.68342 1.90237 9.31658 1.90237 9.70711 2.29289L12 4.58579L14.2929 2.29289ZM11 7H4V9H11V7ZM11 11H5.5V20H11V11ZM13 20V11H18.5V20H13ZM13 9V7H20V9H13Z" fill="#0A0B0D"/>
</svg>
