<svg width="24" height="24" viewBox="0 0 24 24" fill="none" xmlns="http://www.w3.org/2000/svg">
<path fill-rule="evenodd" clip-rule="evenodd" d="M9 3C9.15985 3 9.31094 3.03751 9.44495 3.1042C9.50806 3.1186 9.57063 3.1361 9.63246 3.15671L15 4.94589L19.3675 3.49004C20.6626 3.05836 22 4.02229 22 5.38741V17.2792C22 18.1401 21.4491 18.9044 20.6325 19.1766L15.6325 20.8433C15.5707 20.8639 15.5081 20.8813 15.4451 20.8957C15.311 20.9625 15.1599 21 15 21C14.8401 21 14.689 20.9625 14.5549 20.8957C14.4919 20.8813 14.4293 20.8639 14.3675 20.8433L9 19.0541L4.63246 20.5099C3.33739 20.9416 2 19.9777 2 18.6126V6.72074C2 5.85988 2.55086 5.09561 3.36754 4.82338L8.36754 3.15671C8.42937 3.1361 8.49194 3.1186 8.55505 3.1042C8.68906 3.03751 8.84015 3 9 3ZM16 18.6126L20 17.2792V5.38741L16 6.72074V18.6126ZM14 6.72074V18.6126L10 17.2792V5.38741L14 6.72074ZM4 6.72074L8 5.38741V17.2792L4 18.6126V6.72074Z" fill="#0A0B0D"/>
</svg>
