<svg width="24" height="24" viewBox="0 0 24 24" fill="none" xmlns="http://www.w3.org/2000/svg">
<path d="M22.2501 12.2501C22.2501 11.6978 21.8023 11.2501 21.2501 11.2501H16.7501C16.1978 11.2501 15.7501 11.6978 15.7501 12.2501C15.7501 12.8023 16.1978 13.2501 16.7501 13.2501H21.2501C21.8023 13.2501 22.2501 12.8023 22.2501 12.2501Z" fill="#0A0B0D"/>
<path d="M19.2479 5.00224C18.8574 4.61172 18.2242 4.61172 17.8337 5.00224L14.6517 8.18422C14.2612 8.57475 14.2612 9.20791 14.6517 9.59844C15.0422 9.98896 15.6754 9.98896 16.0659 9.59844L19.2479 6.41646C19.6384 6.02593 19.6384 5.39277 19.2479 5.00224Z" fill="#0A0B0D"/>
<path d="M16.0659 14.9017C15.6754 14.5112 15.0422 14.5112 14.6517 14.9017C14.2612 15.2922 14.2612 15.9254 14.6517 16.3159L17.8337 19.4979C18.2242 19.8884 18.8574 19.8884 19.2479 19.4979C19.6384 19.1074 19.6384 18.4742 19.2479 18.0837L16.0659 14.9017Z" fill="#0A0B0D"/>
<path d="M13 17.0001C13 16.4478 12.5523 16.0001 12 16.0001C11.4477 16.0001 11 16.4478 11 17.0001V21.5001C11 22.0523 11.4477 22.5001 12 22.5001C12.5523 22.5001 13 22.0523 13 21.5001V17.0001Z" fill="#0A0B0D"/>
<path d="M13 3.00006C13 2.44778 12.5523 2.00006 12 2.00006C11.4477 2.00006 11 2.44778 11 3.00006V7.50006C11 8.05235 11.4477 8.50006 12 8.50006C12.5523 8.50006 13 8.05235 13 7.50006V3.00006Z" fill="#0A0B0D"/>
<path d="M4.75219 5.00224C5.14271 4.61172 5.77588 4.61172 6.1664 5.00224L9.34838 8.18422C9.73891 8.57475 9.73891 9.20791 9.34838 9.59844C8.95786 9.98896 8.32469 9.98896 7.93417 9.59844L4.75219 6.41646C4.36166 6.02593 4.36166 5.39277 4.75219 5.00224Z" fill="#0A0B0D"/>
<path d="M7.9342 14.9017C8.32472 14.5112 8.95789 14.5112 9.34841 14.9017C9.73894 15.2922 9.73894 15.9254 9.34841 16.3159L6.16643 19.4979C5.77591 19.8884 5.14274 19.8884 4.75222 19.4979C4.36169 19.1074 4.36169 18.4742 4.75222 18.0837L7.9342 14.9017Z" fill="#0A0B0D"/>
<path d="M7.25006 11.2501C7.80235 11.2501 8.25006 11.6978 8.25006 12.2501C8.25006 12.8023 7.80235 13.2501 7.25006 13.2501H2.75006C2.19778 13.2501 1.75006 12.8023 1.75006 12.2501C1.75006 11.6978 2.19778 11.2501 2.75006 11.2501H7.25006Z" fill="#0A0B0D"/>
</svg>
