<svg width="24" height="24" viewBox="0 0 24 24" fill="none" xmlns="http://www.w3.org/2000/svg">
<path fill-rule="evenodd" clip-rule="evenodd" d="M3 5V19C3 20.6569 4.34315 22 6 22H18C19.6569 22 21 20.6569 21 19V5C21 3.34315 19.6569 2 18 2H6C4.34315 2 3 3.34315 3 5ZM17 4H18C18.5523 4 19 4.44772 19 5V6.5H17V4ZM15 4H9V11H15V4ZM7 4V6.5H5V5C5 4.44772 5.44771 4 6 4H7ZM7 11V8.5H5V11H7ZM5 17.5V19C5 19.5523 5.44772 20 6 20H7V17.5H5ZM7 15.5H5V13H7V15.5ZM9 20H15V13H9V20ZM19 8.5V11H17V8.5H19ZM17 13V15.5H19V13H17ZM19 19V17.5H17V20H18C18.5523 20 19 19.5523 19 19Z" fill="#0A0B0D"/>
</svg>
