<svg width="24" height="24" viewBox="0 0 24 24" fill="none" xmlns="http://www.w3.org/2000/svg">
<path d="M16.2366 10.273C16.6381 10.6522 16.6562 11.2851 16.277 11.6866L11.7057 16.5268C11.525 16.7182 11.2267 16.7366 11.0238 16.5689L8.36313 14.371C7.93735 14.0192 7.87733 13.3889 8.22908 12.9631C8.58082 12.5373 9.21114 12.4773 9.63692 12.8291L11.2154 14.1331L14.8229 10.3134C15.2022 9.91186 15.8351 9.89378 16.2366 10.273Z" fill="#0A0B0D"/>
<path fill-rule="evenodd" clip-rule="evenodd" d="M10 2C8.89543 2 8 2.89543 8 4L7 4C5.34315 4 4 5.34315 4 7V19C4 20.6569 5.34315 22 7 22H17C18.6569 22 20 20.6569 20 19V7C20 5.34315 18.6569 4 17 4H16C16 2.89543 15.1046 2 14 2H10ZM14 4H10V6H14V4ZM8 6H7C6.44772 6 6 6.44772 6 7V19C6 19.5523 6.44772 20 7 20H17C17.5523 20 18 19.5523 18 19V7C18 6.44772 17.5523 6 17 6H16C16 7.10457 15.1046 8 14 8H10C8.89543 8 8 7.10457 8 6Z" fill="#0A0B0D"/>
</svg>
