<svg width="24" height="24" viewBox="0 0 24 24" fill="none" xmlns="http://www.w3.org/2000/svg">
<path d="M6 11C6 10.4477 6.44772 10 7 10H8C8.55228 10 9 10.4477 9 11C9 11.5523 8.55228 12 8 12H7C6.44772 12 6 11.5523 6 11Z" fill="#0A0B0D"/>
<path d="M10.5 11C10.5 10.4477 10.9477 10 11.5 10H12.5C13.0523 10 13.5 10.4477 13.5 11C13.5 11.5523 13.0523 12 12.5 12H11.5C10.9477 12 10.5 11.5523 10.5 11Z" fill="#0A0B0D"/>
<path d="M16 10C15.4477 10 15 10.4477 15 11C15 11.5523 15.4477 12 16 12H17C17.5523 12 18 11.5523 18 11C18 10.4477 17.5523 10 17 10H16Z" fill="#0A0B0D"/>
<path d="M6 14.5C6 13.9477 6.44772 13.5 7 13.5H8C8.55228 13.5 9 13.9477 9 14.5C9 15.0523 8.55228 15.5 8 15.5H7C6.44772 15.5 6 15.0523 6 14.5Z" fill="#0A0B0D"/>
<path d="M11.5 13.5C10.9477 13.5 10.5 13.9477 10.5 14.5C10.5 15.0523 10.9477 15.5 11.5 15.5H12.5C13.0523 15.5 13.5 15.0523 13.5 14.5C13.5 13.9477 13.0523 13.5 12.5 13.5H11.5Z" fill="#0A0B0D"/>
<path d="M15 14.5C15 13.9477 15.4477 13.5 16 13.5H17C17.5523 13.5 18 13.9477 18 14.5C18 15.0523 17.5523 15.5 17 15.5H16C15.4477 15.5 15 15.0523 15 14.5Z" fill="#0A0B0D"/>
<path d="M7 17C6.44772 17 6 17.4477 6 18C6 18.5523 6.44772 19 7 19H8C8.55228 19 9 18.5523 9 18C9 17.4477 8.55228 17 8 17H7Z" fill="#0A0B0D"/>
<path d="M10.5 18C10.5 17.4477 10.9477 17 11.5 17H12.5C13.0523 17 13.5 17.4477 13.5 18C13.5 18.5523 13.0523 19 12.5 19H11.5C10.9477 19 10.5 18.5523 10.5 18Z" fill="#0A0B0D"/>
<path d="M16 17C15.4477 17 15 17.4477 15 18C15 18.5523 15.4477 19 16 19H17C17.5523 19 18 18.5523 18 18C18 17.4477 17.5523 17 17 17H16Z" fill="#0A0B0D"/>
<path fill-rule="evenodd" clip-rule="evenodd" d="M9 3C9 2.44772 8.55228 2 8 2C7.44772 2 7 2.44772 7 3H6C4.34315 3 3 4.34315 3 6V19C3 20.6569 4.34315 22 6 22H18C19.6569 22 21 20.6569 21 19V6C21 4.34315 19.6569 3 18 3H17C17 2.44772 16.5523 2 16 2C15.4477 2 15 2.44772 15 3H9ZM19 7V6C19 5.44772 18.5523 5 18 5H17C17 5.55228 16.5523 6 16 6C15.4477 6 15 5.55228 15 5H9C9 5.55228 8.55228 6 8 6C7.44772 6 7 5.55228 7 5H6C5.44772 5 5 5.44772 5 6V7H19ZM5 9V19C5 19.5523 5.44772 20 6 20H18C18.5523 20 19 19.5523 19 19V9H5Z" fill="#0A0B0D"/>
</svg>
