<svg width="24" height="24" viewBox="0 0 24 24" fill="none" xmlns="http://www.w3.org/2000/svg">
<path d="M12 6.5C12.5523 6.5 13 6.94772 13 7.5V9H14.5C15.0523 9 15.5 9.44772 15.5 10C15.5 10.5523 15.0523 11 14.5 11H13V12.5C13 13.0523 12.5523 13.5 12 13.5C11.4477 13.5 11 13.0523 11 12.5V11H9.5C8.94772 11 8.5 10.5523 8.5 10C8.5 9.44772 8.94772 9 9.5 9H11V7.5C11 6.94772 11.4477 6.5 12 6.5Z" fill="#0A0B0D"/>
<path fill-rule="evenodd" clip-rule="evenodd" d="M8 2C6.34315 2 5 3.34315 5 5V20.4138C5 21.6655 6.44254 22.3666 7.42673 21.5933L11.8455 18.1214C11.9362 18.0501 12.0638 18.0501 12.1545 18.1214L16.5733 21.5933C17.5575 22.3666 19 21.6655 19 20.4138V5C19 3.34315 17.6569 2 16 2H8ZM16 4H8C7.44772 4 7 4.44772 7 5V19.3851L10.6099 16.5487C11.4258 15.9077 12.5742 15.9077 13.3901 16.5487L17 19.3851V5C17 4.44772 16.5523 4 16 4Z" fill="#0A0B0D"/>
</svg>
