<svg width="24" height="24" viewBox="0 0 24 24" fill="none" xmlns="http://www.w3.org/2000/svg">
<path d="M8.793 15.207C8.40247 14.8165 8.40247 14.1833 8.79299 13.7928L10.5858 12L8.79289 10.2071C8.40236 9.81655 8.40236 9.18339 8.79289 8.79287C9.18341 8.40235 9.81659 8.40235 10.2071 8.79287L12 10.5857L13.7928 8.79287C14.1833 8.40234 14.8165 8.40233 15.207 8.79286C15.5976 9.18338 15.5976 9.81654 15.207 10.2071L13.4142 11.9999L15.2071 13.7928C15.5976 14.1833 15.5976 14.8165 15.2071 15.207C14.8166 15.5975 14.1834 15.5975 13.7929 15.207L12 13.4142L10.2072 15.207C9.81669 15.5975 9.18353 15.5975 8.793 15.207Z" fill="#0A0B0D"/>
<path fill-rule="evenodd" clip-rule="evenodd" d="M9.1005 2C8.30486 2 7.54179 2.31607 6.97919 2.87868L2.87868 6.97918C2.31607 7.54179 2 8.30486 2 9.10051V14.8995C2 15.6951 2.31607 16.4582 2.87868 17.0208L6.97918 21.1213C7.54179 21.6839 8.30486 22 9.10051 22L14.8995 22C15.6951 22 16.4582 21.6839 17.0208 21.1213L21.1213 17.0208C21.6839 16.4582 22 15.6951 22 14.8995L22 9.1005C22 8.30486 21.6839 7.54179 21.1213 6.97918L17.0208 2.87868C16.4582 2.31607 15.6951 2 14.8995 2H9.1005ZM14.8995 4L9.1005 4C8.83529 4 8.58094 4.10536 8.3934 4.29289L4.29289 8.3934C4.10536 8.58093 4 8.83529 4 9.10051L4 14.8995C4 15.1647 4.10536 15.4191 4.29289 15.6066L8.3934 19.7071C8.58093 19.8946 8.83529 20 9.10051 20L14.8995 20C15.1647 20 15.4191 19.8946 15.6066 19.7071L19.7071 15.6066C19.8946 15.4191 20 15.1647 20 14.8995L20 9.1005C20 8.83529 19.8946 8.58093 19.7071 8.3934L15.6066 4.29289C15.4191 4.10536 15.1647 4 14.8995 4Z" fill="#0A0B0D"/>
</svg>
