<svg width="24" height="24" viewBox="0 0 24 24" fill="none" xmlns="http://www.w3.org/2000/svg">
<path d="M16.7714 9.13641C17.1228 8.71039 17.0624 8.08012 16.6364 7.72865C16.2104 7.37719 15.5801 7.43763 15.2286 7.86365L10.9365 13.0662L9.16162 11.5002C8.74749 11.1348 8.11556 11.1743 7.75016 11.5884C7.38476 12.0025 7.42425 12.6345 7.83838 12.9999L10.7759 15.5918C10.9879 15.7788 11.3126 15.7531 11.4924 15.5351L16.7714 9.13641Z" fill="#0A0B0D"/>
<path fill-rule="evenodd" clip-rule="evenodd" d="M22 12C22 17.5228 17.5228 22 12 22C6.47715 22 2 17.5228 2 12C2 6.47715 6.47715 2 12 2C17.5228 2 22 6.47715 22 12ZM20 12C20 16.4183 16.4183 20 12 20C7.58172 20 4 16.4183 4 12C4 7.58172 7.58172 4 12 4C16.4183 4 20 7.58172 20 12Z" fill="#0A0B0D"/>
</svg>
