<svg width="24" height="24" viewBox="0 0 24 24" fill="none" xmlns="http://www.w3.org/2000/svg">
<path d="M6.638 4.12231C6.45691 3.18063 5.63292 2.5 4.67398 2.5H3C2.44772 2.5 2 2.94772 2 3.5C2 4.05228 2.44772 4.5 3 4.5L4.67398 4.5L6.55002 14.2554C6.91221 16.1388 8.56018 17.5 10.478 17.5H16.6873C18.5044 17.5 20.0932 16.2752 20.5556 14.518L21.8068 9.76348C22.3074 7.86122 20.8726 6 18.9056 6H17.5C16.9477 6 16.5 6.44772 16.5 7C16.5 7.55228 16.9477 8 17.5 8H18.9056C19.5613 8 20.0395 8.62041 19.8727 9.25449L18.6215 14.009C18.3903 14.8876 17.5959 15.5 16.6873 15.5H10.478C9.51911 15.5 8.69513 14.8194 8.51403 13.8777L7.38371 8H10C10.5523 8 11 7.55228 11 7C11 6.44772 10.5523 6 10 6H6.99909L6.638 4.12231Z" fill="#0A0B0D"/>
<path d="M14.75 8.5C14.75 7.94772 14.3023 7.5 13.75 7.5C13.1977 7.5 12.75 7.94772 12.75 8.5V10H11.25C10.6977 10 10.25 10.4477 10.25 11C10.25 11.5523 10.6977 12 11.25 12H12.75V13.5C12.75 14.0523 13.1977 14.5 13.75 14.5C14.3023 14.5 14.75 14.0523 14.75 13.5V12H16.25C16.8023 12 17.25 11.5523 17.25 11C17.25 10.4477 16.8023 10 16.25 10H14.75V8.5Z" fill="#0A0B0D"/>
<path d="M16 20C16 20.8284 16.6716 21.5 17.5 21.5C18.3284 21.5 19 20.8284 19 20C19 19.1716 18.3284 18.5 17.5 18.5C16.6716 18.5 16 19.1716 16 20Z" fill="#0A0B0D"/>
<path d="M8.75 21.5C7.92157 21.5 7.25 20.8284 7.25 20C7.25 19.1716 7.92157 18.5 8.75 18.5C9.57843 18.5 10.25 19.1716 10.25 20C10.25 20.8284 9.57843 21.5 8.75 21.5Z" fill="#0A0B0D"/>
</svg>
