<svg width="24" height="24" viewBox="0 0 24 24" fill="none" xmlns="http://www.w3.org/2000/svg">
<path d="M16.7071 12.4571C16.3166 12.8477 15.6834 12.8477 15.2929 12.4571L13 10.1642V16.25C13 16.8023 12.5523 17.25 12 17.25C11.4477 17.25 11 16.8023 11 16.25V10.1642L8.70711 12.4571C8.31658 12.8477 7.68342 12.8477 7.29289 12.4571C6.90237 12.0666 6.90237 11.4334 7.29289 11.0429L11.6464 6.68937C11.8417 6.49411 12.1583 6.49411 12.3536 6.68937L16.7071 11.0429C17.0976 11.4334 17.0976 12.0666 16.7071 12.4571Z" fill="#0A0B0D"/>
<path fill-rule="evenodd" clip-rule="evenodd" d="M12 22C17.5228 22 22 17.5228 22 12C22 6.47715 17.5228 2 12 2C6.47715 2 2 6.47715 2 12C2 17.5228 6.47715 22 12 22ZM12 20C16.4183 20 20 16.4183 20 12C20 7.58172 16.4183 4 12 4C7.58172 4 4 7.58172 4 12C4 16.4183 7.58172 20 12 20Z" fill="#0A0B0D"/>
</svg>
