<svg width="24" height="24" viewBox="0 0 24 24" fill="none" xmlns="http://www.w3.org/2000/svg">
<path fill-rule="evenodd" clip-rule="evenodd" d="M22 12C22 17.5228 17.5228 22 12 22C6.47715 22 2 17.5228 2 12C2 6.47715 6.47715 2 12 2C17.5228 2 22 6.47715 22 12ZM9.07082 19.4468C8.10255 18.027 7.19833 15.9342 7.0285 13H4.06189C4.42928 15.9462 6.39866 18.3948 9.07082 19.4468ZM4.06189 11H7.0285C7.19833 8.06582 8.10254 5.97305 9.07082 4.55325C6.39866 5.60518 4.42928 8.05383 4.06189 11ZM19.9381 13C19.5707 15.9462 17.6013 18.3948 14.9292 19.4468C15.8975 18.027 16.8017 15.9342 16.9715 13H19.9381ZM19.9381 11C19.5707 8.05383 17.6013 5.60518 14.9292 4.55324C15.8975 5.97305 16.8017 8.06582 16.9715 11H19.9381ZM10.815 18.4517C10.0291 17.3467 9.20378 15.6016 9.03231 13H14.9677C14.7962 15.6016 13.9709 17.3467 13.185 18.4517C12.749 19.0649 12.3176 19.4913 12 19.7618C11.6824 19.4913 11.251 19.0649 10.815 18.4517ZM9.03231 11H14.9677C14.7962 8.39838 13.9709 6.65332 13.185 5.54827C12.749 4.93515 12.3176 4.50865 12 4.23817C11.6824 4.50865 11.251 4.93515 10.815 5.54827C10.0291 6.65332 9.20378 8.39838 9.03231 11Z" fill="#0A0B0D"/>
</svg>
