<svg width="24" height="24" viewBox="0 0 24 24" fill="none" xmlns="http://www.w3.org/2000/svg">
<path d="M12 9.5C12.5523 9.5 13 9.94772 13 10.5V12H14.5C15.0523 12 15.5 12.4477 15.5 13C15.5 13.5523 15.0523 14 14.5 14H13V15.5C13 16.0523 12.5523 16.5 12 16.5C11.4477 16.5 11 16.0523 11 15.5V14H9.5C8.94772 14 8.5 13.5523 8.5 13C8.5 12.4477 8.94772 12 9.5 12H11V10.5C11 9.94772 11.4477 9.5 12 9.5Z" fill="#0A0B0D"/>
<path fill-rule="evenodd" clip-rule="evenodd" d="M4 5C4 3.34315 5.34315 2 7 2H14.7574C15.553 2 16.3161 2.31607 16.8787 2.87868L19.1213 5.12132C19.6839 5.68393 20 6.44699 20 7.24264V19C20 20.6569 18.6569 22 17 22H7C5.34315 22 4 20.6569 4 19V5ZM14 4H7C6.44771 4 6 4.44772 6 5V19C6 19.5523 6.44772 20 7 20H17C17.5523 20 18 19.5523 18 19V8H15.1C14.4925 8 14 7.50751 14 6.9V4ZM17.1716 6L16 4.82843V6H17.1716Z" fill="#0A0B0D"/>
</svg>
