<svg width="24" height="24" viewBox="0 0 24 24" fill="none" xmlns="http://www.w3.org/2000/svg">
<path fill-rule="evenodd" clip-rule="evenodd" d="M12 5C18.13 5 21.0307 9.10996 22.0519 11.0314C22.377 11.6432 22.377 12.3568 22.0519 12.9686C21.0307 14.89 18.13 19 12 19C5.86999 19 2.96925 14.89 1.94809 12.9686C1.62293 12.3568 1.62293 11.6432 1.94809 11.0314C2.96925 9.10996 5.86999 5 12 5ZM6.83633 8.47769C5.17606 9.57774 4.2066 11.0434 3.71417 11.97C3.70867 11.9803 3.7064 11.9875 3.70542 11.9914C3.70442 11.9955 3.70422 12 3.70422 12C3.70422 12 3.70442 12.0045 3.70542 12.0086C3.7064 12.0125 3.70867 12.0197 3.71417 12.03C4.2066 12.9566 5.17606 14.4223 6.83633 15.5223C6.15086 14.5194 5.74998 13.3065 5.74998 12C5.74998 10.6935 6.15086 9.48064 6.83633 8.47769ZM17.1637 15.5223C18.8239 14.4222 19.7934 12.9566 20.2858 12.03C20.2913 12.0197 20.2936 12.0125 20.2945 12.0086C20.2952 12.006 20.2956 12.0023 20.2956 12.0023L20.2957 12L20.2954 11.9956L20.2945 11.9914C20.2936 11.9875 20.2913 11.9803 20.2858 11.97C19.7934 11.0434 18.8239 9.57775 17.1637 8.47771C17.8491 9.48065 18.25 10.6935 18.25 12C18.25 13.3065 17.8491 14.5194 17.1637 15.5223ZM7.74998 12C7.74998 9.65279 9.65277 7.75 12 7.75C14.3472 7.75 16.25 9.65279 16.25 12C16.25 14.3472 14.3472 16.25 12 16.25C9.65277 16.25 7.74998 14.3472 7.74998 12Z" fill="#0A0B0D"/>
</svg>
