<svg width="24" height="24" viewBox="0 0 24 24" fill="none" xmlns="http://www.w3.org/2000/svg">
<path fill-rule="evenodd" clip-rule="evenodd" d="M17 14.5918V16C17 17.6569 15.6569 19 14 19H5C3.34315 19 2 17.6569 2 16V8C2 6.34315 3.34315 5 5 5H14C15.6569 5 17 6.34315 17 8V8.69387L19.4733 6.37195C20.4311 5.47285 22 6.15191 22 7.46556V16.1679C22 17.5328 20.3252 18.1884 19.3986 17.1862L17 14.5918ZM5 7H14C14.5523 7 15 7.44772 15 8V16C15 16.5523 14.5523 17 14 17H5C4.44772 17 4 16.5523 4 16V8C4 7.44772 4.44772 7 5 7ZM17 11.6457L20 14.8906V8.62075L17 11.4371V11.6457Z" fill="#0A0B0D"/>
</svg>
