<svg width="24" height="24" viewBox="0 0 24 24" fill="none" xmlns="http://www.w3.org/2000/svg">
<path d="M16 18C16 20.2091 14.2091 22 12 22H7C4.79086 22 3 20.2091 3 18V6C3 3.79086 4.79086 2 7 2H12C14.2091 2 16 3.79086 16 6V8C16 8.55229 15.5523 9 15 9C14.4477 9 14 8.55229 14 8V6C14 4.89543 13.1046 4 12 4H7C5.89543 4 5 4.89543 5 6V18C5 19.1046 5.89543 20 7 20H12C13.1046 20 14 19.1046 14 18V16C14 15.4477 14.4477 15 15 15C15.5523 15 16 15.4477 16 16V18Z" fill="#0A0B0D"/>
<path d="M17.5429 15.7071C17.1523 15.3166 17.1523 14.6834 17.5429 14.2929L18.8358 13H9.24997C8.69769 13 8.24997 12.5523 8.24997 12C8.24997 11.4477 8.69769 11 9.24997 11H18.8358L17.5429 9.70711C17.1523 9.31658 17.1523 8.68342 17.5429 8.29289C17.9334 7.90237 18.5666 7.90237 18.9571 8.29289L22.3106 11.6464C22.5059 11.8417 22.5059 12.1583 22.3106 12.3536L18.9571 15.7071C18.5666 16.0976 17.9334 16.0976 17.5429 15.7071Z" fill="#0A0B0D"/>
</svg>
