<svg width="24" height="24" viewBox="0 0 24 24" fill="none" xmlns="http://www.w3.org/2000/svg">
<path d="M9.5 9C8.94772 9 8.5 9.44772 8.5 10C8.5 10.5523 8.94772 11 9.5 11H14.5C15.0523 11 15.5 10.5523 15.5 10C15.5 9.44772 15.0523 9 14.5 9H9.5Z" fill="#0A0B0D"/>
<path fill-rule="evenodd" clip-rule="evenodd" d="M5 5C5 3.34315 6.34315 2 8 2H16C17.6569 2 19 3.34315 19 5V20.4138C19 21.6655 17.5575 22.3666 16.5733 21.5933L12.1545 18.1214C12.0638 18.0501 11.9362 18.0501 11.8455 18.1214L7.42673 21.5933C6.44254 22.3666 5 21.6655 5 20.4138V5ZM8 4H16C16.5523 4 17 4.44772 17 5V19.3851L13.3901 16.5487C12.5742 15.9077 11.4258 15.9077 10.6099 16.5487L7 19.3851V5C7 4.44772 7.44772 4 8 4Z" fill="#0A0B0D"/>
</svg>
