<svg width="24" height="24" viewBox="0 0 24 24" fill="none" xmlns="http://www.w3.org/2000/svg">
<path fill-rule="evenodd" clip-rule="evenodd" d="M9.53223 8.60928L8.19258 9.62089C8.31381 9.87962 8.4689 10.195 8.65425 10.5407C9.15645 11.4771 9.84922 12.5753 10.6554 13.3814C11.4615 14.1876 12.5596 14.8803 13.496 15.3824C13.8415 15.5677 14.1569 15.7227 14.4156 15.8439L15.4272 14.5043C16.1591 13.5351 17.5787 13.4365 18.4375 14.2953L21.4736 17.3314C22.2632 18.121 22.3021 19.5459 21.202 20.2495C20.0887 20.9617 18.0231 21.9953 15.3759 22.0017C12.6927 22.0081 9.54408 20.9582 6.31131 17.7255C3.07856 14.4927 2.02861 11.3441 2.035 8.66084C2.0413 6.01364 3.07487 3.948 3.78697 2.83457C4.49054 1.73449 5.91555 1.77336 6.7051 2.56291L9.74121 5.59901C10.6 6.45776 10.5014 7.87743 9.53223 8.60928ZM17.0233 15.7095L19.9731 18.6593C19.0174 19.2443 17.392 19.9968 15.3711 20.0017C13.2753 20.0067 10.6231 19.2088 7.72552 16.3112C4.82796 13.4137 4.03001 10.7614 4.035 8.6656C4.03981 6.64463 4.7923 5.01923 5.37721 4.06344L8.32699 7.01322L5.74971 8.95941L6.02916 9.66724L6.03066 9.67103L6.03418 9.67984L6.04637 9.71001C6.05677 9.73558 6.07171 9.77189 6.09105 9.81794C6.12972 9.91 6.1861 10.0412 6.25915 10.2033C6.40502 10.5269 6.61858 10.9766 6.89171 11.4859C7.43037 12.4903 8.23221 13.7867 9.24114 14.7956C10.2501 15.8046 11.5464 16.6063 12.5508 17.1449C13.0601 17.418 13.5097 17.6316 13.8333 17.7774C13.9954 17.8504 14.1266 17.9068 14.2186 17.9455C14.2647 17.9648 14.301 17.9797 14.3265 17.9901L14.3567 18.0023L14.3655 18.0059L14.37 18.0076L15.0771 18.2868L17.0233 15.7095Z" fill="#0A0B0D"/>
<path d="M17.4463 6.5448C16.1892 5.28768 14.4282 4.83873 12.8101 5.20215C12.5407 5.26266 12.2579 5.12349 12.1707 4.86145L11.8553 3.91252C11.7681 3.65048 11.9097 3.36557 12.1773 3.29743C14.49 2.70858 17.048 3.3181 18.8605 5.13058C20.673 6.94306 21.2825 9.50115 20.6937 11.8138C20.6255 12.0814 20.3406 12.223 20.0786 12.1358L19.1297 11.8204C18.8676 11.7332 18.7284 11.4504 18.789 11.181C19.1524 9.56286 18.7034 7.80191 17.4463 6.5448Z" fill="#0A0B0D"/>
<path d="M13.827 8.58265C13.6035 8.59503 13.3723 8.48687 13.301 8.27478L12.9517 7.23719C12.8636 6.97548 13.0042 6.6881 13.2758 6.63818C13.4217 6.61136 13.5688 6.59388 13.7163 6.58571C14.6737 6.53268 15.6526 6.87241 16.3856 7.60546C17.1187 8.3385 17.4584 9.31742 17.4054 10.2748C17.3972 10.4223 17.3797 10.5694 17.3529 10.7153C17.303 10.9869 17.0156 11.1275 16.7539 11.0394L15.7163 10.6901C15.5042 10.6188 15.3961 10.3876 15.4085 10.1641C15.4314 9.7508 15.2855 9.33373 14.9714 9.01967C14.6574 8.7056 14.2403 8.55975 13.827 8.58265Z" fill="#0A0B0D"/>
</svg>
