<svg width="24" height="24" viewBox="0 0 24 24" fill="none" xmlns="http://www.w3.org/2000/svg">
<path fill-rule="evenodd" clip-rule="evenodd" d="M2.99998 7.02179V16.9C2.99998 16.916 3.00035 16.9318 3.00109 16.9476C2.98112 17.3326 3.18596 17.711 3.55276 17.8944L11.1055 21.6708C11.3053 21.7707 11.5176 21.8351 11.7336 21.8641C11.8184 21.8875 11.9077 21.9 12 21.9C12.0922 21.9 12.1815 21.8875 12.2663 21.8641C12.4823 21.8351 12.6946 21.7707 12.8944 21.6708L20.4472 17.8944C20.814 17.711 21.0188 17.3326 20.9989 16.9477C20.9996 16.9319 21 16.916 21 16.9V7.02161L21.0002 6.99998C21.0002 6.95905 20.9976 6.91829 20.9926 6.87793C20.9744 6.72827 20.9231 6.58881 20.8463 6.46708C20.8247 6.43265 20.8009 6.39944 20.775 6.36767C20.7013 6.27719 20.6135 6.20195 20.5166 6.14359C20.4876 6.12606 20.4577 6.10997 20.4268 6.09541L12.8944 2.32919C12.3313 2.04766 11.6686 2.04766 11.1055 2.32919L3.57306 6.09543C3.54262 6.10982 3.51303 6.12571 3.48437 6.14298C3.3861 6.20198 3.29724 6.2783 3.22288 6.37023C3.19733 6.4018 3.17383 6.43479 3.15246 6.46897C3.09581 6.5592 3.05317 6.65911 3.02758 6.76566C3.00879 6.84333 2.99969 6.92197 2.99976 6.99998L2.99998 7.02179ZM13 19.3819L19 16.3819V8.61799L13 11.618V19.3819ZM11 11.618L4.99998 8.61799V16.3819L11 19.3819V11.618ZM12 9.88192L6.23609 6.99998L12 4.11804L17.7639 6.99998L12 9.88192Z" fill="#0A0B0D"/>
</svg>
