<svg width="24" height="24" viewBox="0 0 24 24" fill="none" xmlns="http://www.w3.org/2000/svg">
<path d="M11.5429 7.29289C11.1524 7.68342 11.1524 8.31658 11.5429 8.70711L13.8358 11H7.75C7.19771 11 6.75 11.4477 6.75 12C6.75 12.5523 7.19771 13 7.75 13H13.8358L11.5429 15.2929C11.1524 15.6834 11.1524 16.3166 11.5429 16.7071C11.9334 17.0976 12.5666 17.0976 12.9571 16.7071L17.3107 12.3536C17.5059 12.1583 17.5059 11.8417 17.3107 11.6464L12.9571 7.29289C12.5666 6.90237 11.9334 6.90237 11.5429 7.29289Z" fill="#0A0B0D"/>
<path fill-rule="evenodd" clip-rule="evenodd" d="M12 22C17.5228 22 22 17.5228 22 12C22 6.47715 17.5228 2 12 2C6.47715 2 2 6.47715 2 12C2 17.5228 6.47715 22 12 22ZM12 20C16.4183 20 20 16.4183 20 12C20 7.58172 16.4183 4 12 4C7.58172 4 4 7.58172 4 12C4 16.4183 7.58172 20 12 20Z" fill="#0A0B0D"/>
</svg>
