<svg width="24" height="24" viewBox="0 0 24 24" fill="none" xmlns="http://www.w3.org/2000/svg">
<path d="M8.793 15.207C8.40248 14.8165 8.40247 14.1833 8.79299 13.7928L10.5858 12L8.79289 10.2071C8.40236 9.81655 8.40236 9.18339 8.79289 8.79287C9.18342 8.40235 9.81659 8.40235 10.2071 8.79287L12 10.5857L13.7928 8.79287C14.1833 8.40234 14.8165 8.40233 15.207 8.79286C15.5976 9.18338 15.5976 9.81654 15.2071 10.2071L13.4142 11.9999L15.2071 13.7928C15.5976 14.1833 15.5976 14.8165 15.2071 15.207C14.8166 15.5975 14.1834 15.5975 13.7929 15.207L12 13.4142L10.2072 15.207C9.8167 15.5975 9.18353 15.5975 8.793 15.207Z" fill="#0A0B0D"/>
<path fill-rule="evenodd" clip-rule="evenodd" d="M12 22C17.5228 22 22 17.5228 22 12C22 6.47715 17.5228 2 12 2C6.47715 2 2 6.47715 2 12C2 17.5228 6.47715 22 12 22ZM12 20C16.4183 20 20 16.4183 20 12C20 7.58172 16.4183 4 12 4C7.58172 4 4 7.58172 4 12C4 16.4183 7.58172 20 12 20Z" fill="#0A0B0D"/>
</svg>
