<svg width="24" height="24" viewBox="0 0 24 24" fill="none" xmlns="http://www.w3.org/2000/svg">
<path fill-rule="evenodd" clip-rule="evenodd" d="M7.5 6C7.5 3.79086 9.29086 2 11.5 2H17.5C19.7091 2 21.5 3.79086 21.5 6V13C21.5 15.2091 19.7091 17 17.5 17H16.5V18C16.5 20.2091 14.7091 22 12.5 22H6.5C4.29086 22 2.5 20.2091 2.5 18V11C2.5 8.79086 4.29086 7 6.5 7H7.5V6ZM9.5 7H12.5C14.7091 7 16.5 8.79086 16.5 11V15H17.5C18.6046 15 19.5 14.1046 19.5 13V6C19.5 4.89543 18.6046 4 17.5 4H11.5C10.3954 4 9.5 4.89543 9.5 6V7ZM4.5 11C4.5 9.89543 5.39543 9 6.5 9H12.5C13.6046 9 14.5 9.89543 14.5 11V18C14.5 19.1046 13.6046 20 12.5 20H6.5C5.39543 20 4.5 19.1046 4.5 18V11Z" fill="#0A0B0D"/>
</svg>
