<svg width="24" height="24" viewBox="0 0 24 24" fill="none" xmlns="http://www.w3.org/2000/svg">
<path fill-rule="evenodd" clip-rule="evenodd" d="M16 10C16 12.2091 14.2091 14 12 14C9.79086 14 8 12.2091 8 10C8 7.79086 9.79086 6 12 6C14.2091 6 16 7.79086 16 10ZM14 10C14 11.1046 13.1046 12 12 12C10.8954 12 10 11.1046 10 10C10 8.89543 10.8954 8 12 8C13.1046 8 14 8.89543 14 10Z" fill="#0A0B0D"/>
<path fill-rule="evenodd" clip-rule="evenodd" d="M20 9.99998C19.9999 16.8707 14.0992 20.791 12.4332 21.7609C12.1612 21.9192 11.8388 21.9192 11.5668 21.7609C9.90082 20.791 4 16.8707 4 9.99998C4 5.99998 7 2 12 2C17 2 20 5.99998 20 9.99998ZM6 9.99998C6 6.93718 8.26481 4 12 4C15.7352 4 18 6.9372 18 9.99995C18 13.2825 16.3677 15.8038 14.5857 17.5858C13.7002 18.4714 12.8093 19.1401 12.1406 19.5859C12.0924 19.618 12.0455 19.6489 12 19.6785C11.9544 19.6489 11.9075 19.618 11.8594 19.5859C11.1907 19.1401 10.2998 18.4714 9.41422 17.5858C7.63221 15.8038 6 13.2825 6 9.99998Z" fill="#0A0B0D"/>
</svg>
