<svg width="24" height="24" viewBox="0 0 24 24" fill="none" xmlns="http://www.w3.org/2000/svg">
<path fill-rule="evenodd" clip-rule="evenodd" d="M12 4C7.58172 4 4 7.58172 4 12C4 16.4183 7.58172 20 12 20C16.4183 20 20 16.4183 20 12C20 7.58172 16.4183 4 12 4ZM2 12C2 6.47715 6.47715 2 12 2C17.5228 2 22 6.47715 22 12C22 17.5228 17.5228 22 12 22C6.47715 22 2 17.5228 2 12ZM15.7071 8.29289C15.9749 8.56073 16.0685 8.95689 15.9487 9.31623L14.4487 13.8162C14.3491 14.1148 14.1148 14.3491 13.8162 14.4487L9.31623 15.9487C8.95689 16.0685 8.56073 15.9749 8.29289 15.7071C8.02506 15.4393 7.93154 15.0431 8.05132 14.6838L9.55132 10.1838C9.65085 9.88517 9.88517 9.65085 10.1838 9.55132L14.6838 8.05132C15.0431 7.93154 15.4393 8.02506 15.7071 8.29289ZM11.2906 11.2906L10.5811 13.4189L12.7094 12.7094L13.4189 10.5811L11.2906 11.2906Z" fill="#0A0B0D"/>
</svg>
