<svg width="24" height="24" viewBox="0 0 24 24" fill="none" xmlns="http://www.w3.org/2000/svg">
<path fill-rule="evenodd" clip-rule="evenodd" d="M19.75 12C19.75 8.13401 16.616 5 12.75 5C9.1975 5 6.26308 7.64635 5.81054 11.0752L6.54289 10.3429C6.93342 9.95237 7.56658 9.95237 7.95711 10.3429C8.34763 10.7334 8.34763 11.3666 7.95711 11.7571L5.10355 14.6107C4.90829 14.8059 4.59171 14.8059 4.39645 14.6107L1.54289 11.7571C1.15237 11.3666 1.15237 10.7334 1.54289 10.3429C1.93342 9.95237 2.56658 9.95237 2.95711 10.3429L3.78747 11.1733C4.20486 6.59021 8.05816 3 12.75 3C17.7206 3 21.75 7.02944 21.75 12C21.75 16.9706 17.7206 21 12.75 21C9.90737 21 7.37213 19.681 5.72438 17.6255C5.37894 17.1946 5.44824 16.5652 5.87916 16.2198C6.31008 15.8743 6.93944 15.9436 7.28488 16.3745C8.56937 17.9769 10.5399 19 12.75 19C16.616 19 19.75 15.866 19.75 12ZM13.75 8C13.75 7.44772 13.3023 7 12.75 7C12.1977 7 11.75 7.44772 11.75 8V12C11.75 12.5523 12.1977 13 12.75 13H15.25C15.8023 13 16.25 12.5523 16.25 12C16.25 11.4477 15.8023 11 15.25 11H13.75V8Z" fill="#0A0B0D"/>
</svg>
