<svg width="24" height="24" viewBox="0 0 24 24" fill="none" xmlns="http://www.w3.org/2000/svg">
<path fill-rule="evenodd" clip-rule="evenodd" d="M2.7307 6.05308C3.0133 5.40832 3.85592 5.24962 4.3537 5.7474L7.18709 8.5808L8.24775 8.22724L8.60131 7.16658L5.76791 4.33319C5.27013 3.83541 5.42883 2.99279 6.07358 2.7102C8.45251 1.66751 11.3311 2.11818 13.281 4.06807C15.0551 5.84224 15.5881 8.38525 14.8843 10.6212L20.6462 16.3831C21.8178 17.5546 21.8178 19.4541 20.6462 20.6257C19.4746 21.7973 17.5752 21.7973 16.4036 20.6257L10.6417 14.8638C8.40576 15.5676 5.86275 15.0346 4.08858 13.2605C2.13869 11.3106 1.68802 8.43201 2.7307 6.05308ZM4.19152 8.41365C4.12319 9.64799 4.56095 10.9044 5.50279 11.8462C6.85082 13.1943 8.84328 13.5097 10.4931 12.7866L11.1187 12.5124L17.8178 19.2115C18.2083 19.602 18.8415 19.602 19.232 19.2115C19.6225 18.821 19.6225 18.1878 19.232 17.7973L12.5329 11.0981L12.8071 10.4726C13.5302 8.82277 13.2148 6.83032 11.8667 5.48228C10.9249 4.54044 9.6685 4.10269 8.43416 4.17101L10.0155 5.75237C10.5512 6.28804 10.7382 7.08037 10.4987 7.79904L10.1451 8.8597C9.94605 9.45691 9.47742 9.92554 8.88021 10.1246L7.81955 10.4782C7.10088 10.7177 6.30854 10.5307 5.77288 9.99501L4.19152 8.41365Z" fill="#0A0B0D"/>
</svg>
