<svg width="24" height="24" viewBox="0 0 24 24" fill="none" xmlns="http://www.w3.org/2000/svg">
<path d="M11.25 13.5858L9.95711 12.2929C9.56658 11.9024 8.93342 11.9024 8.54289 12.2929C8.15237 12.6834 8.15237 13.3166 8.54289 13.7071L11.8964 17.0607C12.0917 17.2559 12.4083 17.2559 12.6036 17.0607L15.9571 13.7071C16.3476 13.3166 16.3476 12.6834 15.9571 12.2929C15.5666 11.9024 14.9334 11.9024 14.5429 12.2929L13.25 13.5858V4C13.25 3.44771 12.8023 3 12.25 3C11.6977 3 11.25 3.44771 11.25 4V13.5858Z" fill="#0A0B0D"/>
<path d="M4 14C4.55228 14 5 14.4477 5 15V17C5 18.1046 5.89543 19 7 19H17C18.1046 19 19 18.1046 19 17V15C19 14.4477 19.4477 14 20 14C20.5523 14 21 14.4477 21 15V17C21 19.2091 19.2091 21 17 21H7C4.79086 21 3 19.2091 3 17V15C3 14.4477 3.44772 14 4 14Z" fill="#0A0B0D"/>
</svg>
