<svg width="24" height="24" viewBox="0 0 24 24" fill="none" xmlns="http://www.w3.org/2000/svg">
<path fill-rule="evenodd" clip-rule="evenodd" d="M13 3C13 2.44772 12.5523 2 12 2C11.4477 2 11 2.44772 11 3V3.57088C7.60769 4.0561 4.99997 6.97352 4.99997 10.5V15.5L4.28237 16.7558C3.71095 17.7558 4.433 19 5.58474 19H8.12602C8.57006 20.7252 10.1362 22 12 22C13.8638 22 15.4299 20.7252 15.874 19H18.4152C19.5669 19 20.289 17.7558 19.7176 16.7558L19 15.5V10.5C19 6.97354 16.3923 4.05614 13 3.57089V3ZM6.99997 16.0311L6.44633 17H17.5536L17 16.0311V10.5C17 7.73858 14.7614 5.5 12 5.5C9.23854 5.5 6.99997 7.73858 6.99997 10.5V16.0311ZM12 20C11.2597 20 10.6134 19.5978 10.2676 19H13.7324C13.3866 19.5978 12.7403 20 12 20Z" fill="#0A0B0D"/>
</svg>
