<svg width="24" height="24" viewBox="0 0 24 24" fill="none" xmlns="http://www.w3.org/2000/svg">
<path d="M10.5 13C9.94772 13 9.5 13.4477 9.5 14C9.5 14.5523 9.94772 15 10.5 15H13.5C14.0523 15 14.5 14.5523 14.5 14C14.5 13.4477 14.0523 13 13.5 13H10.5Z" fill="#0A0B0D"/>
<path fill-rule="evenodd" clip-rule="evenodd" d="M19 18H13V20H15C15.5523 20 16 20.4477 16 21C16 21.5523 15.5523 22 15 22H9C8.44772 22 8 21.5523 8 21C8 20.4477 8.44772 20 9 20H11V18H5C3.34315 18 2 16.6569 2 15V6C2 4.34315 3.34315 3 5 3H19C20.6569 3 22 4.34315 22 6V15C22 16.6569 20.6569 18 19 18ZM5 5H19C19.5523 5 20 5.44771 20 6V15C20 15.5523 19.5523 16 19 16H5C4.44772 16 4 15.5523 4 15V6C4 5.44772 4.44772 5 5 5Z" fill="#0A0B0D"/>
</svg>
