<svg width="24" height="24" viewBox="0 0 24 24" fill="none" xmlns="http://www.w3.org/2000/svg">
<path fill-rule="evenodd" clip-rule="evenodd" d="M16.5 6.5C16.5 8.98528 14.4853 11 12 11C9.51472 11 7.5 8.98528 7.5 6.5C7.5 4.01472 9.51472 2 12 2C14.4853 2 16.5 4.01472 16.5 6.5ZM14.5 6.5C14.5 7.88071 13.3807 9 12 9C10.6193 9 9.5 7.88071 9.5 6.5C9.5 5.11929 10.6193 4 12 4C13.3807 4 14.5 5.11929 14.5 6.5Z" fill="#0A0B0D"/>
<path d="M15.6687 14.263C15.1694 14.0925 14.634 14 14.0769 14H9.92308C7.20414 14 5 16.2041 5 18.9231C5 18.9656 5.03444 19 5.07692 19H13C13.5523 19 14 19.4477 14 20C14 20.5523 13.5523 21 13 21H5.07692C3.92987 21 3 20.0701 3 18.9231C3 15.0996 6.09957 12 9.92308 12H14.0769C15.0066 12 15.8935 12.1832 16.7034 12.5156C17.1867 12.7139 17.355 13.2899 17.1214 13.7572C16.8626 14.2748 16.2163 14.45 15.6687 14.263Z" fill="#0A0B0D"/>
<path d="M18.5 15C19.0523 15 19.5 15.4477 19.5 16V17.5H21C21.5523 17.5 22 17.9477 22 18.5C22 19.0523 21.5523 19.5 21 19.5H19.5V21C19.5 21.5523 19.0523 22 18.5 22C17.9477 22 17.5 21.5523 17.5 21V19.5H16C15.4477 19.5 15 19.0523 15 18.5C15 17.9477 15.4477 17.5 16 17.5H17.5V16C17.5 15.4477 17.9477 15 18.5 15Z" fill="#0A0B0D"/>
</svg>
