<svg width="24" height="24" viewBox="0 0 24 24" fill="none" xmlns="http://www.w3.org/2000/svg">
<path fill-rule="evenodd" clip-rule="evenodd" d="M14.1327 15.5824L12.5918 20.2052C12.1533 21.5207 10.3175 21.5878 9.78414 20.3077L3.46019 5.13027C3.0309 4.09996 4.06451 3.06636 5.09481 3.49565L20.2723 9.8196C21.5524 10.353 21.4853 12.1887 20.1697 12.6272L15.5469 14.1682L20.2364 18.8577C20.627 19.2482 20.627 19.8814 20.2364 20.2719C19.8459 20.6624 19.2127 20.6624 18.8222 20.2719L14.1327 15.5824ZM11.1167 18.3059L6.00689 6.04235L18.2704 11.1522L13.6166 12.7034C13.573 12.718 13.5302 12.7344 13.4885 12.7527C13.3053 12.7913 13.1308 12.8818 12.9886 13.024C12.8463 13.1663 12.7559 13.3408 12.7173 13.524C12.699 13.5657 12.6825 13.6084 12.668 13.6521L11.1167 18.3059Z" fill="#0A0B0D"/>
</svg>
