<svg width="24" height="24" viewBox="0 0 24 24" fill="none" xmlns="http://www.w3.org/2000/svg">
<path d="M12.0429 7.29289C11.6524 7.68342 11.6524 8.31658 12.0429 8.70711L15.3358 12L12.0429 15.2929C11.6524 15.6834 11.6524 16.3166 12.0429 16.7071C12.4334 17.0976 13.0666 17.0976 13.4571 16.7071L17.8107 12.3536C18.0059 12.1583 18.0059 11.8417 17.8107 11.6464L13.4571 7.29289C13.0666 6.90237 12.4334 6.90237 12.0429 7.29289Z" fill="#0A0B0D"/>
<path d="M7.04289 8.70711C6.65237 8.31658 6.65237 7.68342 7.04289 7.29289C7.43342 6.90237 8.06658 6.90237 8.45711 7.29289L12.8107 11.6464C13.0059 11.8417 13.0059 12.1583 12.8107 12.3536L8.45711 16.7071C8.06658 17.0976 7.43342 17.0976 7.04289 16.7071C6.65237 16.3166 6.65237 15.6834 7.04289 15.2929L10.3358 12L7.04289 8.70711Z" fill="#0A0B0D"/>
<path fill-rule="evenodd" clip-rule="evenodd" d="M12 22C17.5228 22 22 17.5228 22 12C22 6.47715 17.5228 2 12 2C6.47715 2 2 6.47715 2 12C2 17.5228 6.47715 22 12 22ZM12 20C16.4183 20 20 16.4183 20 12C20 7.58172 16.4183 4 12 4C7.58172 4 4 7.58172 4 12C4 16.4183 7.58172 20 12 20Z" fill="#0A0B0D"/>
</svg>
