<svg width="24" height="24" viewBox="0 0 24 24" fill="none" xmlns="http://www.w3.org/2000/svg">
<path fill-rule="evenodd" clip-rule="evenodd" d="M6.51632 16C6.52644 16.0386 6.54119 16.076 6.56035 16.1114L9.17219 20.9333C9.52821 21.5905 10.2157 22 10.9632 22C12.0881 22 13 21.0881 13 19.9632V16H18.2781C20.0191 16 21.3945 14.5229 21.2704 12.7863L20.699 4.78626C20.5869 3.21634 19.2806 2 17.7066 2H5.5C3.84315 2 2.5 3.34315 2.5 5V13C2.5 14.6569 3.84315 16 5.5 16H6.51632ZM11 19.9632V14H18.2781C18.8584 14 19.3169 13.5076 19.2755 12.9288L18.7041 4.92875C18.6667 4.40545 18.2313 4 17.7066 4H8.5V15.4931L10.9308 19.9807C10.9372 19.9926 10.9496 20 10.9632 20C10.9719 20 10.9769 19.9979 10.9769 19.9979C10.9798 19.9967 10.9844 19.994 10.9892 19.9892C10.994 19.9844 10.9967 19.9798 10.9979 19.9769C10.9979 19.9769 11 19.9719 11 19.9632ZM6.5 14H5.5C4.94772 14 4.5 13.5523 4.5 13V5C4.5 4.44772 4.94772 4 5.5 4H6.5V14Z" fill="#0A0B0D"/>
</svg>
