<svg width="24" height="24" viewBox="0 0 24 24" fill="none" xmlns="http://www.w3.org/2000/svg">
<path d="M8.05023 14.5355V8.46443C8.05023 7.91215 7.60252 7.46444 7.05023 7.46444C6.49795 7.46443 6.05023 7.91215 6.05023 8.46444V17.4497C6.05023 17.7259 6.27409 17.9497 6.55023 17.9497H7.04572C7.04873 17.9497 7.05174 17.9497 7.05474 17.9497L15.5355 17.9497C16.0878 17.9497 16.5355 17.502 16.5355 16.9497C16.5355 16.3974 16.0878 15.9497 15.5355 15.9497L9.46446 15.9497L17.6568 7.75734C18.0474 7.36681 18.0474 6.73365 17.6568 6.34313C17.2663 5.9526 16.6331 5.9526 16.2426 6.34313L8.05023 14.5355Z" fill="#0A0B0D"/>
</svg>
