<svg width="24" height="24" viewBox="0 0 24 24" fill="none" xmlns="http://www.w3.org/2000/svg">
<path fill-rule="evenodd" clip-rule="evenodd" d="M13.5238 20.8775L9 17H7C5.34315 17 4 15.6568 4 14V9.99999C4 8.34314 5.34315 6.99999 7 6.99999H9L13.5238 3.12244C14.4968 2.28843 16 2.97979 16 4.26132V19.7387C16 21.0202 14.4968 21.7116 13.5238 20.8775ZM7 8.99999H9.73985L14 5.34843V18.6516L9.73985 15H7C6.44772 15 6 14.5523 6 14V9.99999C6 9.44771 6.44772 8.99999 7 8.99999Z" fill="#0A0B0D"/>
<path d="M17.4909 10.5819C17.6805 10.6475 17.8528 10.7502 17.9998 10.8817C18.3082 11.1578 18.5 11.5558 18.5 12C18.5 12.4441 18.3082 12.8422 17.9998 13.1183C17.8528 13.2498 17.6805 13.3525 17.4909 13.4181C17.2299 13.5083 17 13.7239 17 14V15C17 15.2761 17.225 15.5037 17.4983 15.4647C18.198 15.3647 18.8318 15.0576 19.3336 14.6085C20.048 13.9691 20.5 13.0367 20.5 12C20.5 10.9633 20.048 10.0309 19.3336 9.39144C18.8318 8.94234 18.198 8.63525 17.4983 8.5353C17.225 8.49624 17 8.72385 17 8.99999V9.99999C17 10.2761 17.2299 10.4916 17.4909 10.5819Z" fill="#0A0B0D"/>
</svg>
