<svg width="24" height="24" viewBox="0 0 24 24" fill="none" xmlns="http://www.w3.org/2000/svg">
<path d="M10.7025 19.7117L10.3536 20.0606C10.1583 20.2559 9.84171 20.2559 9.64645 20.0606L9.29747 19.7117C9.29441 19.7086 9.29137 19.7056 9.28835 19.7025L4.29289 14.7071C3.90237 14.3166 3.90237 13.6834 4.29289 13.2929C4.68342 12.9023 5.31658 12.9023 5.70711 13.2929L9 16.5858V8C9 5.79086 10.7909 4 13 4H19C19.5523 4 20 4.44771 20 5C20 5.55229 19.5523 6 19 6H13C11.8954 6 11 6.89543 11 8V16.5858L14.2929 13.2929C14.6834 12.9023 15.3166 12.9023 15.7071 13.2929C16.0976 13.6834 16.0976 14.3166 15.7071 14.7071L10.7117 19.7025C10.7086 19.7056 10.7056 19.7086 10.7025 19.7117Z" fill="#0A0B0D"/>
</svg>
