<svg width="24" height="24" viewBox="0 0 24 24" fill="none" xmlns="http://www.w3.org/2000/svg">
<path d="M9 7C8.44772 7 8 7.44772 8 8C8 8.55228 8.44772 9 9 9H11C11.5523 9 12 8.55228 12 8C12 7.44772 11.5523 7 11 7H9Z" fill="#0A0B0D"/>
<path d="M8 12C8 11.4477 8.44772 11 9 11H15C15.5523 11 16 11.4477 16 12C16 12.5523 15.5523 13 15 13H9C8.44772 13 8 12.5523 8 12Z" fill="#0A0B0D"/>
<path d="M9 15C8.44772 15 8 15.4477 8 16C8 16.5523 8.44772 17 9 17H15C15.5523 17 16 16.5523 16 16C16 15.4477 15.5523 15 15 15H9Z" fill="#0A0B0D"/>
<path fill-rule="evenodd" clip-rule="evenodd" d="M7 2C5.34315 2 4 3.34315 4 5V19C4 20.6569 5.34315 22 7 22H17C18.6569 22 20 20.6569 20 19V7.24264C20 6.44699 19.6839 5.68393 19.1213 5.12132L16.8787 2.87868C16.3161 2.31607 15.553 2 14.7574 2H7ZM7 4H14V6.9C14 7.50751 14.4925 8 15.1 8H18V19C18 19.5523 17.5523 20 17 20H7C6.44772 20 6 19.5523 6 19V5C6 4.44772 6.44771 4 7 4ZM16 4.82843L17.1716 6H16V4.82843Z" fill="#0A0B0D"/>
</svg>
