<svg width="24" height="24" viewBox="0 0 24 24" fill="none" xmlns="http://www.w3.org/2000/svg">
<path fill-rule="evenodd" clip-rule="evenodd" d="M3.70711 2.29289C3.31658 1.90237 2.68342 1.90237 2.29289 2.29289C1.90237 2.68342 1.90237 3.31658 2.29289 3.70711L4.19501 5.60923C2.92908 5.96099 2 7.122 2 8.5V17.5C2 19.1569 3.34315 20.5 5 20.5H19C19.0283 20.5 19.0565 20.4996 19.0846 20.4988L20.2929 21.7071C20.6834 22.0976 21.3166 22.0976 21.7071 21.7071C22.0976 21.3166 22.0976 20.6834 21.7071 20.2929L3.70711 2.29289ZM17.0858 18.5L14.3344 15.7486C13.6774 16.2215 12.8712 16.5 12 16.5C9.79086 16.5 8 14.7091 8 12.5C8 11.6288 8.27854 10.8226 8.75143 10.1656L6.08579 7.5H5C4.44772 7.5 4 7.94772 4 8.5V17.5C4 18.0523 4.44772 18.5 5 18.5H17.0858ZM10.2043 11.6185C10.0735 11.8844 10 12.1836 10 12.5C10 13.6046 10.8954 14.5 12 14.5C12.3164 14.5 12.6156 14.4265 12.8815 14.2957L10.2043 11.6185Z" fill="#0A0B0D"/>
<path d="M11.9151 8.50088L15.9991 12.5849C15.9997 12.5567 16 12.5284 16 12.5C16 10.2909 14.2091 8.5 12 8.5C11.9716 8.5 11.9433 8.5003 11.9151 8.50088Z" fill="#0A0B0D"/>
<path d="M20 8.5V16.3787C20 16.5113 20.0527 16.6385 20.1464 16.7322L21.7071 18.2929C21.7688 18.3546 21.8827 18.3382 21.9045 18.2537C21.9668 18.0129 22 17.7603 22 17.5V8.5C22 6.84315 20.6569 5.5 19 5.5H16.5L15.9 4.7C15.3334 3.94458 14.4443 3.5 13.5 3.5H10.5C9.70535 3.5 8.94974 3.81485 8.39256 4.36484C8.21502 4.54009 8.23739 4.82317 8.41379 4.99957L9.33981 5.9256C9.44265 6.02844 9.61274 6.01635 9.7 5.9C9.88885 5.64819 10.1852 5.5 10.5 5.5H13.5C13.8148 5.5 14.1111 5.64819 14.3 5.9L15.5 7.5H19C19.5523 7.5 20 7.94772 20 8.5Z" fill="#0A0B0D"/>
</svg>
