<svg width="24" height="24" viewBox="0 0 24 24" fill="none" xmlns="http://www.w3.org/2000/svg">
<path d="M8 10.5001C8.55228 10.5001 9 10.9478 9 11.5001V15.5001C9 16.0523 8.55228 16.5001 8 16.5001C7.44772 16.5001 7 16.0523 7 15.5001V11.5001C7 10.9478 7.44772 10.5001 8 10.5001Z" fill="#0A0B0D"/>
<path d="M17 11.5001C17 10.9478 16.5523 10.5001 16 10.5001C15.4477 10.5001 15 10.9478 15 11.5001V15.5001C15 16.0523 15.4477 16.5001 16 16.5001C16.5523 16.5001 17 16.0523 17 15.5001V11.5001Z" fill="#0A0B0D"/>
<path d="M12 10.5001C12.5523 10.5001 13 10.9478 13 11.5001V15.5001C13 16.0523 12.5523 16.5001 12 16.5001C11.4477 16.5001 11 16.0523 11 15.5001V11.5001C11 10.9478 11.4477 10.5001 12 10.5001Z" fill="#0A0B0D"/>
<path fill-rule="evenodd" clip-rule="evenodd" d="M11.2894 3.88611C11.6285 4.32205 11.5499 4.95033 11.114 5.2894L8.91456 7.00006H15.0854L12.886 5.2894C12.4501 4.95033 12.3715 4.32205 12.7106 3.88611C13.0497 3.45016 13.6779 3.37162 14.1139 3.71069L18.3431 7.00006H21C21.5523 7.00006 22 7.44778 22 8.00006C22 8.55235 21.5523 9.00006 21 9.00006H20.8404C20.8403 9.05081 20.8383 9.10197 20.8344 9.15345L20.2131 17.2301C20.0929 18.7931 18.7895 20.0001 17.2219 20.0001H6.77813C5.21052 20.0001 3.90719 18.7931 3.78696 17.2302L3.16568 9.15346C3.16172 9.10197 3.15974 9.05081 3.15967 9.00006H3C2.44772 9.00006 2 8.55235 2 8.00006C2 7.44778 2.44772 7.00006 3 7.00006H5.65692L9.88611 3.71069C10.3221 3.37162 10.9503 3.45016 11.2894 3.88611ZM17.9914 9.00006C17.9966 9.0001 18.0019 9.0001 18.0071 9.00006H18.8403L18.219 17.0768C18.1789 17.5978 17.7445 18.0001 17.2219 18.0001H6.77813C6.25559 18.0001 5.82115 17.5978 5.78107 17.0768L5.15979 9.00006H17.9914Z" fill="#0A0B0D"/>
</svg>
