<svg width="24" height="24" viewBox="0 0 24 24" fill="none" xmlns="http://www.w3.org/2000/svg">
<path fill-rule="evenodd" clip-rule="evenodd" d="M9 3C9 2.44772 8.55228 2 8 2C7.44772 2 7 2.44772 7 3H6C4.34315 3 3 4.34315 3 6V19C3 20.6569 4.34315 22 6 22H18C19.6569 22 21 20.6569 21 19V6C21 4.34315 19.6569 3 18 3H17C17 2.44772 16.5523 2 16 2C15.4477 2 15 2.44772 15 3H9ZM19 7V6C19 5.44772 18.5523 5 18 5H17C17 5.55228 16.5523 6 16 6C15.4477 6 15 5.55228 15 5H9C9 5.55228 8.55228 6 8 6C7.44772 6 7 5.55228 7 5H6C5.44772 5 5 5.44772 5 6V7H19ZM5 9V19C5 19.5523 5.44772 20 6 20H18C18.5523 20 19 19.5523 19 19V9H5Z" fill="#0A0B0D"/>
</svg>
