<svg width="24" height="24" viewBox="0 0 24 24" fill="none" xmlns="http://www.w3.org/2000/svg">
<path d="M12 10.0001C12.5523 10.0001 13 10.4478 13 11.0001V12.5001H14.5C15.0523 12.5001 15.5 12.9478 15.5 13.5001C15.5 14.0523 15.0523 14.5001 14.5 14.5001H13V16.0001C13 16.5523 12.5523 17.0001 12 17.0001C11.4477 17.0001 11 16.5523 11 16.0001V14.5001H9.5C8.94772 14.5001 8.5 14.0523 8.5 13.5001C8.5 12.9478 8.94772 12.5001 9.5 12.5001H11V11.0001C11 10.4478 11.4477 10.0001 12 10.0001Z" fill="#0A0B0D"/>
<path fill-rule="evenodd" clip-rule="evenodd" d="M11.2894 3.88611C11.6284 4.32205 11.5499 4.95033 11.1139 5.2894L8.91454 7.00005H15.0855L12.8861 5.2894C12.4501 4.95033 12.3716 4.32205 12.7106 3.88611C13.0497 3.45016 13.678 3.37162 14.1139 3.71069L18.3431 7.00005H21C21.5523 7.00005 22 7.44776 22 8.00005C22 8.55233 21.5523 9.00005 21 9.00005H20.8404C20.8403 9.0508 20.8383 9.10195 20.8344 9.15344L20.2131 17.2301C20.0928 18.7931 18.7895 20 17.2219 20H6.77809C5.21048 20 3.90716 18.7931 3.78693 17.2301L3.16565 9.15344C3.16168 9.10195 3.1597 9.0508 3.15964 9.00005H3C2.44772 9.00005 2 8.55233 2 8.00005C2 7.44776 2.44772 7.00005 3 7.00005H5.65689L9.88606 3.71069C10.322 3.37162 10.9503 3.45016 11.2894 3.88611ZM18.8402 9.00005L18.219 17.0767C18.1789 17.5977 17.7444 18 17.2219 18H6.77809C6.25556 18 5.82112 17.5977 5.78104 17.0767L5.15975 9.00005H18.8402Z" fill="#0A0B0D"/>
</svg>
