<svg width="24" height="24" viewBox="0 0 24 24" fill="none" xmlns="http://www.w3.org/2000/svg">
<path d="M9.52517 12.0251C9.91569 11.6346 10.5489 11.6346 10.9394 12.0251L12 13.0858L13.0607 12.0251C13.4512 11.6346 14.0844 11.6346 14.4749 12.0251C14.8654 12.4157 14.8654 13.0488 14.4749 13.4393L13.4143 14.5L14.4749 15.5607C14.8654 15.9512 14.8654 16.5843 14.4749 16.9749C14.0844 17.3654 13.4512 17.3654 13.0607 16.9749L12 15.9142L10.9394 16.9749C10.5489 17.3654 9.91569 17.3654 9.52517 16.9749C9.13464 16.5843 9.13464 15.9512 9.52517 15.5607L10.5858 14.5L9.52517 13.4393C9.13464 13.0488 9.13464 12.4157 9.52517 12.0251Z" fill="#0A0B0D"/>
<path fill-rule="evenodd" clip-rule="evenodd" d="M9 3C9 2.44772 8.55228 2 8 2C7.44772 2 7 2.44772 7 3H6C4.34315 3 3 4.34315 3 6V19C3 20.6569 4.34315 22 6 22H18C19.6569 22 21 20.6569 21 19V6C21 4.34315 19.6569 3 18 3H17C17 2.44772 16.5523 2 16 2C15.4477 2 15 2.44772 15 3H9ZM19 7V6C19 5.44772 18.5523 5 18 5H17C17 5.55228 16.5523 6 16 6C15.4477 6 15 5.55228 15 5H9C9 5.55228 8.55228 6 8 6C7.44772 6 7 5.55228 7 5H6C5.44772 5 5 5.44772 5 6V7H19ZM5 9V19C5 19.5523 5.44772 20 6 20H18C18.5523 20 19 19.5523 19 19V9H5Z" fill="#0A0B0D"/>
</svg>
