<svg width="24" height="24" viewBox="0 0 24 24" fill="none" xmlns="http://www.w3.org/2000/svg">
<path fill-rule="evenodd" clip-rule="evenodd" d="M6.51632 8C6.52644 7.96138 6.54119 7.92396 6.56035 7.88858L9.17219 3.06673C9.52821 2.40945 10.2157 2 10.9632 2C12.0881 2 13 2.91192 13 4.03684V8H18.2781C20.0191 8 21.3945 9.47714 21.2704 11.2137L20.699 19.2137C20.5869 20.7837 19.2806 22 17.7066 22H5.5C3.84315 22 2.5 20.6569 2.5 19V11C2.5 9.34315 3.84315 8 5.5 8H6.51632ZM11 4.03684V10H18.2781C18.8584 10 19.3169 10.4924 19.2755 11.0712L18.7041 19.0712C18.6667 19.5946 18.2313 20 17.7066 20H8.5V8.50688L10.9308 4.01929C10.9372 4.0074 10.9496 4 10.9632 4C10.9719 4 10.9769 4.00207 10.9769 4.00207C10.9798 4.00333 10.9844 4.006 10.9892 4.01079C10.994 4.01558 10.9967 4.02015 10.9979 4.02311C10.9979 4.02311 11 4.02806 11 4.03684ZM6.5 10H5.5C4.94772 10 4.5 10.4477 4.5 11V19C4.5 19.5523 4.94772 20 5.5 20H6.5V10Z" fill="#0A0B0D"/>
</svg>
