<svg width="24" height="24" viewBox="0 0 24 24" fill="none" xmlns="http://www.w3.org/2000/svg">
<path fill-rule="evenodd" clip-rule="evenodd" d="M14.1483 9.972L12 5.61905L9.85171 9.972L5.04794 10.67L8.52398 14.0583L7.7034 18.8427L12 16.5838L16.2966 18.8427L15.4761 14.0583L18.9521 10.67L14.1483 9.972ZM8.52358 8.14399L2.75518 8.98218C1.93496 9.10137 1.60745 10.1093 2.20097 10.6879L6.37502 14.7566L5.38966 20.5017C5.24955 21.3186 6.10698 21.9415 6.84061 21.5558L12 18.8434L17.1594 21.5558C17.8931 21.9415 18.7505 21.3186 18.6104 20.5017L17.625 14.7566L21.7991 10.6879C22.3926 10.1093 22.0651 9.10137 21.2449 8.98218L15.4765 8.14399L12.8968 2.91693C12.5299 2.17369 11.4701 2.17369 11.1033 2.91693L8.52358 8.14399Z" fill="#0A0B0D"/>
</svg>
