<svg width="24" height="24" viewBox="0 0 24 24" fill="none" xmlns="http://www.w3.org/2000/svg">
<path d="M13.5 15.25C13.5 15.6943 13.3069 16.0934 13 16.3681V17.25C13 17.8023 12.5523 18.25 12 18.25C11.4477 18.25 11 17.8023 11 17.25V16.3681C10.6931 16.0934 10.5 15.6943 10.5 15.25C10.5 14.4216 11.1716 13.75 12 13.75C12.8284 13.75 13.5 14.4216 13.5 15.25Z" fill="#0A0B0D"/>
<path fill-rule="evenodd" clip-rule="evenodd" d="M16 10V8C16 5.79086 14.2091 4 12 4C9.95985 4 8.27643 5.52736 8.03082 7.50099C7.99672 7.77502 7.77614 8 7.5 8H6.5C6.22386 8 5.99783 7.77536 6.02052 7.50015C6.27453 4.42031 8.85462 2 12 2C15.3137 2 18 4.68629 18 8V10C19.6569 10 21 11.3431 21 13V19C21 20.6569 19.6569 22 18 22H6C4.34315 22 3 20.6569 3 19V13C3 11.3431 4.34315 10 6 10H16ZM18 12H6C5.44772 12 5 12.4477 5 13V19C5 19.5523 5.44772 20 6 20H18C18.5523 20 19 19.5523 19 19V13C19 12.4477 18.5523 12 18 12Z" fill="#0A0B0D"/>
</svg>
