<svg width="24" height="24" viewBox="0 0 24 24" fill="none" xmlns="http://www.w3.org/2000/svg">
<path d="M12 9C12.5523 9 13 9.44772 13 10V12H14C14.5523 12 15 12.4477 15 13C15 13.5523 14.5523 14 14 14H12C11.4477 14 11 13.5523 11 13V10C11 9.44772 11.4477 9 12 9Z" fill="#0A0B0D"/>
<path fill-rule="evenodd" clip-rule="evenodd" d="M10 3C10 2.44772 10.4477 2 11 2H13C13.5523 2 14 2.44772 14 3C14 3.55228 13.5523 4 13 4V5.0582C14.2863 5.20895 15.4848 5.64688 16.5296 6.30616L17.2929 5.54289C17.6834 5.15237 18.3166 5.15237 18.7071 5.54289C19.0976 5.93342 19.0976 6.56658 18.7071 6.95711L18.092 7.57226C19.5822 9.10348 20.5 11.1946 20.5 13.5C20.5 18.1944 16.6944 22 12 22C7.30558 22 3.5 18.1944 3.5 13.5C3.5 11.1946 4.41784 9.10348 5.90804 7.57226L5.29289 6.95711C4.90237 6.56658 4.90237 5.93342 5.29289 5.54289C5.68342 5.15237 6.31658 5.15237 6.70711 5.54289L7.47037 6.30616C8.51523 5.64688 9.71372 5.20895 11 5.0582V4C10.4477 4 10 3.55228 10 3ZM18.5 13.5C18.5 17.0899 15.5899 20 12 20C8.41015 20 5.5 17.0899 5.5 13.5C5.5 9.91015 8.41015 7 12 7C15.5899 7 18.5 9.91015 18.5 13.5Z" fill="#0A0B0D"/>
</svg>
