<svg width="24" height="24" viewBox="0 0 24 24" fill="none" xmlns="http://www.w3.org/2000/svg">
<path d="M9.5 12C8.94772 12 8.5 12.4477 8.5 13C8.5 13.5523 8.94772 14 9.5 14H14.5C15.0523 14 15.5 13.5523 15.5 13C15.5 12.4477 15.0523 12 14.5 12H9.5Z" fill="#0A0B0D"/>
<path fill-rule="evenodd" clip-rule="evenodd" d="M7 2C5.34315 2 4 3.34315 4 5V19C4 20.6569 5.34315 22 7 22H17C18.6569 22 20 20.6569 20 19V7.24264C20 6.44699 19.6839 5.68393 19.1213 5.12132L16.8787 2.87868C16.3161 2.31607 15.553 2 14.7574 2H7ZM7 4H14V6.9C14 7.50751 14.4925 8 15.1 8H18V19C18 19.5523 17.5523 20 17 20H7C6.44772 20 6 19.5523 6 19V5C6 4.44772 6.44771 4 7 4ZM16 4.82843L17.1716 6H16V4.82843Z" fill="#0A0B0D"/>
</svg>
